<?xml version="1.0" encoding="UTF-8" standalone="no"?>
<!-- Created with Inkscape (http://www.inkscape.org/) -->

<svg
   xmlns:dc="http://purl.org/dc/elements/1.1/"
   xmlns:cc="http://creativecommons.org/ns#"
   xmlns:rdf="http://www.w3.org/1999/02/22-rdf-syntax-ns#"
   xmlns:svg="http://www.w3.org/2000/svg"
   xmlns="http://www.w3.org/2000/svg"
   xmlns:sodipodi="http://sodipodi.sourceforge.net/DTD/sodipodi-0.dtd"
   xmlns:inkscape="http://www.inkscape.org/namespaces/inkscape"
   width="641.31989"
   height="641.31989"
   viewBox="0 0 169.68254 169.68257"
   version="1.1"
   id="svg8"
   inkscape:version="0.92.1 r15371"
   sodipodi:docname="logoGood2.svg">
  <title
     id="title4490">1920x1080</title>
  <defs
     id="defs2" />
  <sodipodi:namedview
     id="base"
     pagecolor="#636363"
     bordercolor="#666666"
     borderopacity="1.0"
     inkscape:pageopacity="0"
     inkscape:pageshadow="2"
     inkscape:zoom="0.80487132"
     inkscape:cx="11.706338"
     inkscape:cy="390.75193"
     inkscape:document-units="px"
     inkscape:current-layer="layer1"
     showgrid="false"
     inkscape:showpageshadow="false"
     inkscape:pagecheckerboard="true"
     units="px"
     inkscape:window-width="1914"
     inkscape:window-height="1088"
     inkscape:window-x="6"
     inkscape:window-y="46"
     inkscape:window-maximized="1"
     showguides="true"
     inkscape:guide-bbox="true"
     guidecolor="#05157e"
     guideopacity="0.13333333"
     fit-margin-top="0"
     fit-margin-left="0"
     fit-margin-right="0"
     fit-margin-bottom="0">
    <sodipodi:guide
       position="-220.5594,-42.790595"
       orientation="1,0"
       id="guide4483"
       inkscape:locked="false"
       inkscape:label=""
       inkscape:color="rgb(4,102,16)" />
    <sodipodi:guide
       position="236.64059,-42.790595"
       orientation="1,0"
       id="guide4485"
       inkscape:locked="false"
       inkscape:label=""
       inkscape:color="rgb(3,73,12)" />
    <sodipodi:guide
       position="264.68642,-28.5031"
       orientation="0,1"
       id="guide4487"
       inkscape:locked="false"
       inkscape:label="1920x1080, HDTV 10% title safe"
       inkscape:color="rgb(3,73,12)" />
    <sodipodi:guide
       position="-245.95941,228.67191"
       orientation="0,1"
       id="guide4489"
       inkscape:locked="false"
       inkscape:label=""
       inkscape:color="rgb(3,73,12)" />
    <sodipodi:guide
       position="69.338446,132.68742"
       orientation="0,1"
       id="guide4643"
       inkscape:locked="false" />
    <sodipodi:guide
       position="122.0502,129.88657"
       orientation="0,1"
       id="guide4548"
       inkscape:locked="false" />
    <sodipodi:guide
       position="106.54856,68.548211"
       orientation="3.7954972e-07,1"
       id="guide4550"
       inkscape:locked="false" />
  </sodipodi:namedview>
  <metadata
     id="metadata5">
    <rdf:RDF>
      <cc:Work
         rdf:about="">
        <dc:format>image/svg+xml</dc:format>
        <dc:type
           rdf:resource="http://purl.org/dc/dcmitype/StillImage" />
        <dc:title>1920x1080</dc:title>
        <cc:license
           rdf:resource="http://artlibre.org/licence/lal" />
        <dc:publisher>
          <cc:Agent>
            <dc:title>brontosaurusrex</dc:title>
          </cc:Agent>
        </dc:publisher>
      </cc:Work>
      <cc:License
         rdf:about="http://artlibre.org/licence/lal">
        <cc:permits
           rdf:resource="http://creativecommons.org/ns#Reproduction" />
        <cc:permits
           rdf:resource="http://creativecommons.org/ns#Distribution" />
        <cc:permits
           rdf:resource="http://creativecommons.org/ns#DerivativeWorks" />
        <cc:requires
           rdf:resource="http://creativecommons.org/ns#ShareAlike" />
        <cc:requires
           rdf:resource="http://creativecommons.org/ns#Notice" />
        <cc:requires
           rdf:resource="http://creativecommons.org/ns#Attribution" />
      </cc:License>
    </rdf:RDF>
  </metadata>
  <g
     inkscape:label="Layer 1"
     inkscape:groupmode="layer"
     id="layer1"
     transform="translate(-245.95941,-84.526823)">
    <g
       transform="matrix(1.2382253,0,0,1.2382253,-14.470791,-9.6896403)"
       id="g4621"
       style="fill:#000000;fill-opacity:1">
      <g
         aria-label="SKU2"
         transform="matrix(0.99820164,0,0,1.0018016,0,9.8228614)"
         style="font-style:normal;font-weight:normal;font-size:15.32222652px;line-height:1.25;font-family:sans-serif;letter-spacing:0px;word-spacing:0px;fill:#000000;fill-opacity:1;stroke:none;stroke-width:0.38305563"
         id="text4489-0-3-5-9-4">
        <path
           inkscape:connector-curvature="0"
           d="m 219.06316,143.14651 c 0,9.63462 4.04506,14.3416 12.1352,14.3416 7.79595,0 12.1352,-4.4128 12.1352,-12.65003 0,-7.13403 -4.92762,-10.88491 -9.78171,-14.63579 h 0.0736 c -3.60379,-2.79477 -7.20758,-5.66309 -7.20758,-9.41398 0,-3.82442 1.69158,-5.516 4.78054,-5.516 3.23605,0 4.78053,2.2064 4.78053,7.06049 v 1.02965 c 0,1.47093 1.17675,2.64768 2.64769,2.64768 h 2.0593 c 1.47094,0 2.64768,-1.17675 2.64768,-2.64768 v -1.02965 c 0,-9.34043 -4.19216,-14.41516 -12.1352,-14.41516 -7.79595,0 -12.1352,4.78054 -12.1352,13.09131 0,7.28113 5.07472,11.25265 9.9288,15.07708 v -0.0735 c 3.60379,2.79477 6.98693,5.516 6.98693,8.9727 0,3.89797 -1.69157,5.22181 -4.78053,5.22181 -1.02965,0 -2.27995,-0.14709 -3.08896,-0.95611 -1.02966,-0.88256 -1.69158,-2.57413 -1.69158,-6.10437 v -0.95611 c 0,-1.47093 -1.25029,-2.64768 -2.64768,-2.64768 h -2.0593 c -1.47094,0 -2.64768,1.17675 -2.64768,2.64768 z"
           style="font-style:normal;font-variant:normal;font-weight:900;font-stretch:normal;font-size:73.54669189px;font-family:'Ostrich Sans';-inkscape-font-specification:'Ostrich Sans Heavy';letter-spacing:0px;word-spacing:0px;fill:#000000;fill-opacity:1;stroke-width:0.38305563"
           id="path5388" />
        <path
           inkscape:connector-curvature="0"
           d="m 255.64804,126.52496 v -15.88609 c 0,-1.47093 -1.17675,-2.64768 -2.64768,-2.64768 h -2.05931 c -1.47093,0 -2.64768,1.17675 -2.64768,2.64768 v 44.27511 c 0,1.47093 1.17675,2.64768 2.64768,2.64768 h 2.05931 c 1.47093,0 2.64768,-1.17675 2.64768,-2.64768 v -14.56225 l 0.88256,-1.32384 9.85526,17.20993 c 0.36773,0.66192 1.54448,1.32384 2.27994,1.32384 h 2.3535 c 2.2064,0 3.38314,-2.05931 2.35349,-3.97152 l -12.35584,-21.76982 12.28229,-19.78406 c 1.17675,-1.91222 0,-4.04507 -2.27994,-4.04507 h -2.50059 c -0.73547,0 -1.83867,0.66192 -2.2064,1.25029 z"
           style="font-style:normal;font-variant:normal;font-weight:900;font-stretch:normal;font-size:73.54669189px;font-family:'Ostrich Sans';-inkscape-font-specification:'Ostrich Sans Heavy';letter-spacing:0px;word-spacing:0px;fill:#000000;fill-opacity:1;stroke-width:0.38305563"
           id="path5390" />
        <path
           inkscape:connector-curvature="0"
           d="m 276.43762,144.02907 c 0,7.79595 3.23605,13.45904 12.06166,13.45904 8.53141,0 12.06165,-5.22181 12.06165,-13.45904 v -33.46375 c 0,-1.47093 -1.17674,-2.64768 -2.64768,-2.64768 h -2.0593 c -1.39739,0 -2.57414,1.17675 -2.57414,2.64768 v 33.46375 c 0,3.53024 -1.02965,6.17792 -4.78053,6.17792 -3.60379,0 -4.78054,-2.27995 -4.78054,-6.17792 v -33.46375 c 0,-1.47093 -1.17675,-2.64768 -2.64768,-2.64768 h -2.05931 c -1.39738,0 -2.57413,1.17675 -2.57413,2.64768 z"
           style="font-style:normal;font-variant:normal;font-weight:900;font-stretch:normal;font-family:'Ostrich Sans';-inkscape-font-specification:'Ostrich Sans Heavy';letter-spacing:-3.52567434px;fill:#000000;fill-opacity:1;stroke-width:0.38305563"
           id="path5392" />
        <path
           inkscape:connector-curvature="0"
           d="m 307.23641,124.50242 c 0.25742,-2.50058 1.13998,-4.19216 2.9051,-5.73664 2.79477,-2.50059 4.15539,-5.40568 4.15539,-8.78883 0,-3.78765 -1.94899,-6.6192 -5.40568,-6.6192 -3.64057,0 -5.44246,2.46381 -5.44246,6.72952 v 0.22064 c 0,0.6987 0.58837,1.28707 1.32384,1.28707 h 1.06643 c 0.69869,0 1.28706,-0.58837 1.28706,-1.28707 v -0.22064 c 0,-2.13285 0.58838,-3.08896 1.76513,-3.08896 1.1032,0 1.72834,1.17675 1.72834,2.97864 0,2.16963 -1.06642,4.26571 -2.94186,6.03083 -1.54449,1.43416 -2.72123,3.08896 -3.38315,4.89086 l 0.0368,-0.0368 c -0.58837,1.58126 -0.88256,3.34638 -0.88256,5.44246 v 0.51482 c 0,0.73547 0.58837,1.32384 1.32384,1.32384 h 8.20046 c 0.73546,0 1.32384,-0.58837 1.32384,-1.32384 v -0.99288 c 0,-0.73546 -0.58838,-1.32384 -1.32384,-1.32384 z"
           style="font-style:normal;font-variant:normal;font-weight:900;font-stretch:normal;font-size:36.77334595px;font-family:'Ostrich Sans';-inkscape-font-specification:'Ostrich Sans Heavy';letter-spacing:-2.75091577px;word-spacing:0px;baseline-shift:super;fill:#000000;fill-opacity:1;stroke-width:0.38305563"
           id="path5394" />
      </g>
    </g>
    <g
       aria-label="sindikat  kulturnih in  umetniških  ustvarjalcev rtv slovenija"
       transform="matrix(0,-1.004778,1.004778,0,-17.422319,33.394841)"
       style="font-style:normal;font-weight:normal;font-size:7.38960171px;line-height:1.25;font-family:sans-serif;letter-spacing:0px;word-spacing:0px;fill:#000000;fill-opacity:1;stroke:none;stroke-width:0.18483275;stroke-miterlimit:4;stroke-dasharray:none;stroke-opacity:1"
       id="text5199-1">
      <path
         d="m -135.01296,376.06744 c -1.24705,0 -1.8563,0.52357 -1.8563,1.57072 0,1.00906 0.57117,1.57071 1.63735,1.57071 0.92339,0 1.40889,-0.6378 1.89438,-1.26609 v 0.01 c 0.36174,-0.46645 0.733,-0.93291 1.2185,-0.93291 0.49501,0 0.71396,0.21895 0.71396,0.61877 0,0.41885 -0.28559,0.61876 -0.91387,0.61876 h -0.13328 c -0.19039,0 -0.3427,0.15232 -0.3427,0.34271 v 0.26654 c 0,0.19039 0.15231,0.3427 0.3427,0.3427 h 0.13328 c 1.20897,0 1.86582,-0.54261 1.86582,-1.57071 0,-1.00907 -0.61877,-1.57072 -1.69447,-1.57072 -0.94243,0 -1.45648,0.65685 -1.9515,1.28513 h 0.01 c -0.36174,0.46646 -0.71396,0.90435 -1.16137,0.90435 -0.50454,0 -0.67589,-0.21894 -0.67589,-0.61876 0,-0.13328 0.019,-0.29511 0.12375,-0.39982 0.11424,-0.13327 0.33319,-0.21895 0.79012,-0.21895 h 0.12376 c 0.19039,0 0.3427,-0.16183 0.3427,-0.3427 v -0.26655 c 0,-0.19039 -0.15231,-0.3427 -0.3427,-0.3427 z"
         style="font-style:normal;font-variant:normal;font-weight:900;font-stretch:normal;font-size:9.51948643px;line-height:0;font-family:'Ostrich Sans';-inkscape-font-specification:'Ostrich Sans Heavy';text-align:start;writing-mode:tb-rl;text-anchor:start;fill:#000000;fill-opacity:1;stroke:none;stroke-width:0.18483275;stroke-miterlimit:4;stroke-dasharray:none;stroke-opacity:1"
         id="path5531"
         inkscape:connector-curvature="0" />
      <path
         d="m -130.80534,380.77007 c 0.19039,0 0.3427,-0.16183 0.3427,-0.3427 v -0.26655 c 0,-0.19039 -0.15231,-0.3427 -0.3427,-0.3427 h -5.73074 c -0.19039,0 -0.3427,0.15231 -0.3427,0.3427 v 0.26655 c 0,0.18087 0.15231,0.3427 0.3427,0.3427 z"
         style="font-style:normal;font-variant:normal;font-weight:900;font-stretch:normal;font-size:9.51948643px;line-height:0;font-family:'Ostrich Sans';-inkscape-font-specification:'Ostrich Sans Heavy';text-align:start;writing-mode:tb-rl;text-anchor:start;fill:#000000;fill-opacity:1;stroke:none;stroke-width:0.18483275;stroke-miterlimit:4;stroke-dasharray:none;stroke-opacity:1"
         id="path5533"
         inkscape:connector-curvature="0" />
      <path
         d="m -136.87878,384.22564 c 0,0.19039 0.15231,0.3427 0.3427,0.3427 h 5.73074 c 0.19039,0 0.3427,-0.15231 0.3427,-0.3427 v -0.26654 c 0,-0.19039 -0.15231,-0.34271 -0.3427,-0.34271 h -3.14144 l 3.27471,-1.3232 c 0.10471,-0.0381 0.20943,-0.19039 0.20943,-0.31415 v -0.22846 c 0,-0.18088 -0.15231,-0.34271 -0.3427,-0.34271 h -5.73074 c -0.19039,0 -0.3427,0.16183 -0.3427,0.34271 v 0.27606 c 0,0.18087 0.15231,0.3427 0.3427,0.3427 h 3.14144 l -3.27471,1.32321 c -0.10471,0.0381 -0.20943,0.19991 -0.20943,0.31414 z"
         style="font-style:normal;font-variant:normal;font-weight:900;font-stretch:normal;font-size:9.51948643px;line-height:0;font-family:'Ostrich Sans';-inkscape-font-specification:'Ostrich Sans Heavy';text-align:start;writing-mode:tb-rl;text-anchor:start;fill:#000000;fill-opacity:1;stroke:none;stroke-width:0.18483275;stroke-miterlimit:4;stroke-dasharray:none;stroke-opacity:1"
         id="path5535"
         inkscape:connector-curvature="0" />
      <path
         d="m -136.87878,386.65311 c 0,1.14234 0.64733,1.67543 1.88486,1.67543 h 2.64642 c 1.23753,0 1.88486,-0.53309 1.88486,-1.67543 v -0.97099 c 0,-0.19039 -0.15231,-0.3427 -0.3427,-0.3427 h -5.73074 c -0.19039,0 -0.3427,0.15231 -0.3427,0.3427 z m 5.47371,0 c 0,0.50453 -0.30463,0.71396 -0.94243,0.71396 h -2.64642 c -0.6378,0 -0.94243,-0.20943 -0.94243,-0.71396 v -0.37126 h 4.53128 z"
         style="font-style:normal;font-variant:normal;font-weight:900;font-stretch:normal;font-size:9.51948643px;line-height:0;font-family:'Ostrich Sans';-inkscape-font-specification:'Ostrich Sans Heavy';text-align:start;writing-mode:tb-rl;text-anchor:start;fill:#000000;fill-opacity:1;stroke:none;stroke-width:0.18483275;stroke-miterlimit:4;stroke-dasharray:none;stroke-opacity:1"
         id="path5537"
         inkscape:connector-curvature="0" />
      <path
         d="m -130.80534,390.02301 c 0.19039,0 0.3427,-0.16183 0.3427,-0.3427 v -0.26655 c 0,-0.19039 -0.15231,-0.3427 -0.3427,-0.3427 h -5.73074 c -0.19039,0 -0.3427,0.15231 -0.3427,0.3427 v 0.26655 c 0,0.18087 0.15231,0.3427 0.3427,0.3427 z"
         style="font-style:normal;font-variant:normal;font-weight:900;font-stretch:normal;font-size:9.51948643px;line-height:0;font-family:'Ostrich Sans';-inkscape-font-specification:'Ostrich Sans Heavy';text-align:start;writing-mode:tb-rl;text-anchor:start;fill:#000000;fill-opacity:1;stroke:none;stroke-width:0.18483275;stroke-miterlimit:4;stroke-dasharray:none;stroke-opacity:1"
         id="path5539"
         inkscape:connector-curvature="0" />
      <path
         d="m -132.86155,391.61276 h 2.05621 c 0.19039,0 0.3427,-0.15231 0.3427,-0.3427 v -0.26654 c 0,-0.19039 -0.15231,-0.34271 -0.3427,-0.34271 h -5.73074 c -0.19039,0 -0.3427,0.15232 -0.3427,0.34271 v 0.26654 c 0,0.19039 0.15231,0.3427 0.3427,0.3427 h 1.88486 l 0.17135,0.11424 -2.22756,1.27561 c -0.0857,0.0476 -0.17135,0.19991 -0.17135,0.2951 v 0.30463 c 0,0.28558 0.26655,0.43789 0.51406,0.30462 l 2.81776,-1.59927 2.56075,1.58975 c 0.2475,0.15231 0.52357,0 0.52357,-0.2951 v -0.32367 c 0,-0.0952 -0.0857,-0.23798 -0.16183,-0.28558 z"
         style="letter-spacing:-0.4176307px;fill:#000000;fill-opacity:1;stroke:none;stroke-width:0.18483275;stroke-miterlimit:4;stroke-dasharray:none;stroke-opacity:1"
         id="path5541"
         inkscape:connector-curvature="0" />
      <path
         d="m -136.61223,396.74499 c -0.14279,0.0381 -0.26655,0.19039 -0.26655,0.33319 v 0.27606 c 0,0.22847 0.19991,0.38078 0.41886,0.33318 l 5.73073,-1.31369 c 0.14279,-0.0286 0.26655,-0.19039 0.26655,-0.33318 v -0.20943 c 0,-0.14279 -0.12376,-0.2951 -0.26655,-0.33318 l -3.72212,-0.86627 -2.01813,-0.45694 c -0.21895,-0.0476 -0.40934,0.10472 -0.40934,0.33318 v 0.27607 c 0,0.14279 0.12376,0.2951 0.26655,0.33318 l 1.48504,0.33318 v 0.97099 z m 3.95059,-0.80915 c -0.80916,0.18087 -1.06619,0.16183 -1.52312,0.26654 v -0.53309 z"
         style="letter-spacing:-1.0881387px;fill:#000000;fill-opacity:1;stroke:none;stroke-width:0.18483275;stroke-miterlimit:4;stroke-dasharray:none;stroke-opacity:1"
         id="path5543"
         inkscape:connector-curvature="0" />
      <path
         d="m -131.06237,397.23709 c -0.19039,0 -0.3427,0.15231 -0.3427,0.3427 v 0.77108 h -5.12149 c -0.19039,0 -0.3427,0.15231 -0.3427,0.3427 v 0.25703 c 0,0.19039 0.15231,0.3427 0.3427,0.3427 h 5.12149 v 0.7806 c 0,0.19039 0.15231,0.3427 0.3427,0.3427 h 0.26654 c 0.19039,0 0.34271,-0.15231 0.34271,-0.3427 v -2.49411 c 0,-0.19039 -0.15232,-0.3427 -0.34271,-0.3427 z"
         style="font-style:normal;font-variant:normal;font-weight:900;font-stretch:normal;font-size:9.51948643px;line-height:0;font-family:'Ostrich Sans';-inkscape-font-specification:'Ostrich Sans Heavy';text-align:start;writing-mode:tb-rl;text-anchor:start;fill:#000000;fill-opacity:1;stroke:none;stroke-width:0.18483275;stroke-miterlimit:4;stroke-dasharray:none;stroke-opacity:1"
         id="path5545"
         inkscape:connector-curvature="0" />
      <path
         d="m -142.09856,377.00987 h 2.05621 c 0.19039,0 0.3427,-0.15231 0.3427,-0.3427 v -0.26655 c 0,-0.19039 -0.15231,-0.3427 -0.3427,-0.3427 h -5.73073 c -0.19039,0 -0.3427,0.15231 -0.3427,0.3427 v 0.26655 c 0,0.19039 0.15231,0.3427 0.3427,0.3427 h 1.88486 l 0.17135,0.11423 -2.22756,1.27562 c -0.0857,0.0476 -0.17135,0.19991 -0.17135,0.2951 v 0.30462 c 0,0.28559 0.26655,0.4379 0.51405,0.30463 l 2.81777,-1.59928 2.56074,1.58976 c 0.24751,0.15231 0.52357,0 0.52357,-0.29511 v -0.32366 c 0,-0.0952 -0.0857,-0.23799 -0.16183,-0.28558 z"
         style="letter-spacing:-0.36399001px;fill:#000000;fill-opacity:1;stroke:none;stroke-width:0.18483275;stroke-miterlimit:4;stroke-dasharray:none;stroke-opacity:1"
         id="path5547"
         inkscape:connector-curvature="0" />
      <path
         d="m -144.36419,379.5398 c -1.00907,0 -1.74207,0.41886 -1.74207,1.5612 0,1.10426 0.67588,1.5612 1.74207,1.5612 h 4.33136 c 0.19039,0 0.3427,-0.15232 0.3427,-0.34271 v -0.26654 c 0,-0.18087 -0.15231,-0.33318 -0.3427,-0.33318 h -4.33136 c -0.45694,0 -0.79964,-0.13328 -0.79964,-0.61877 0,-0.46645 0.2951,-0.61877 0.79964,-0.61877 h 4.33136 c 0.19039,0 0.3427,-0.15231 0.3427,-0.3427 v -0.26654 c 0,-0.18087 -0.15231,-0.33319 -0.3427,-0.33319 z"
         style="font-style:normal;font-variant:normal;font-weight:900;font-stretch:normal;font-size:9.51948643px;line-height:0;font-family:'Ostrich Sans';-inkscape-font-specification:'Ostrich Sans Heavy';text-align:start;writing-mode:tb-rl;text-anchor:start;fill:#000000;fill-opacity:1;stroke:none;stroke-width:0.18483275;stroke-miterlimit:4;stroke-dasharray:none;stroke-opacity:1"
         id="path5549"
         inkscape:connector-curvature="0" />
      <path
         d="m -145.51605,386.14633 c 0.19039,0 0.3427,-0.15231 0.3427,-0.3427 v -1.41841 h 5.131 c 0.19039,0 0.3427,-0.15231 0.3427,-0.33318 v -0.27606 c 0,-0.19039 -0.15231,-0.34271 -0.3427,-0.34271 h -5.73073 c -0.19039,0 -0.3427,0.15232 -0.3427,0.34271 v 2.02765 c 0,0.19039 0.15231,0.3427 0.3427,0.3427 z"
         style="letter-spacing:-1.11495888px;word-spacing:-1.5364213px;fill:#000000;fill-opacity:1;stroke:none;stroke-width:0.18483275;stroke-miterlimit:4;stroke-dasharray:none;stroke-opacity:1"
         id="path5551"
         inkscape:connector-curvature="0" />
      <path
         d="m -140.29937,385.5359 c -0.19039,0 -0.3427,0.15231 -0.3427,0.3427 v 0.77108 h -5.12149 c -0.19039,0 -0.3427,0.15231 -0.3427,0.3427 v 0.25703 c 0,0.19039 0.15231,0.3427 0.3427,0.3427 h 5.12149 v 0.7806 c 0,0.19039 0.15231,0.3427 0.3427,0.3427 h 0.26654 c 0.19039,0 0.3427,-0.15231 0.3427,-0.3427 v -2.49411 c 0,-0.19039 -0.15231,-0.3427 -0.3427,-0.3427 z"
         style="letter-spacing:-0.28736058px;fill:#000000;fill-opacity:1;stroke:none;stroke-width:0.18483275;stroke-miterlimit:4;stroke-dasharray:none;stroke-opacity:1"
         id="path5553"
         inkscape:connector-curvature="0" />
      <path
         d="m -144.36419,389.0373 c -1.00907,0 -1.74207,0.41886 -1.74207,1.56119 0,1.10426 0.67588,1.5612 1.74207,1.5612 h 4.33136 c 0.19039,0 0.3427,-0.15231 0.3427,-0.3427 v -0.26655 c 0,-0.18087 -0.15231,-0.33318 -0.3427,-0.33318 h -4.33136 c -0.45694,0 -0.79964,-0.13327 -0.79964,-0.61877 0,-0.46645 0.2951,-0.61876 0.79964,-0.61876 h 4.33136 c 0.19039,0 0.3427,-0.15231 0.3427,-0.3427 v -0.26655 c 0,-0.18087 -0.15231,-0.33318 -0.3427,-0.33318 z"
         style="letter-spacing:-0.32950681px;fill:#000000;fill-opacity:1;stroke:none;stroke-width:0.18483275;stroke-miterlimit:4;stroke-dasharray:none;stroke-opacity:1"
         id="path5555"
         inkscape:connector-curvature="0" />
      <path
         d="m -144.1738,395.73317 c 0.49501,0 0.88531,-0.13327 1.18041,-0.40934 0.0286,0.0286 0.0476,0.0476 0.0762,0.0762 0.2951,0.2951 0.77108,0.39982 1.36128,0.39982 1.27562,0 1.86582,-0.40934 1.86582,-1.58024 v -1.19945 c 0,-0.19039 -0.15231,-0.3427 -0.3427,-0.3427 h -5.73073 c -0.19039,0 -0.3427,0.15231 -0.3427,0.3427 v 0.26654 c 0,0.18087 0.15231,0.33319 0.3427,0.33319 h 2.33228 v 0.42837 c 0,0.46646 -0.26655,0.733 -0.74252,0.733 h -1.58976 c -0.19039,0 -0.3427,0.15232 -0.3427,0.34271 v 0.26654 c 0,0.19039 0.15231,0.3427 0.3427,0.3427 z m 3.53173,-2.11332 v 0.59972 c 0,0.49502 -0.26655,0.63781 -0.91388,0.63781 -0.64732,0 -0.91387,-0.27607 -0.91387,-0.80916 v -0.42837 z"
         style="font-style:normal;font-variant:normal;font-weight:900;font-stretch:normal;font-size:9.51948643px;line-height:0;font-family:'Ostrich Sans';-inkscape-font-specification:'Ostrich Sans Heavy';text-align:start;writing-mode:tb-rl;text-anchor:start;fill:#000000;fill-opacity:1;stroke:none;stroke-width:0.18483275;stroke-miterlimit:4;stroke-dasharray:none;stroke-opacity:1"
         id="path5557"
         inkscape:connector-curvature="0" />
      <path
         d="m -146.11578,399.2649 c 0,0.19039 0.15231,0.3427 0.3427,0.3427 h 5.73073 c 0.19039,0 0.3427,-0.15231 0.3427,-0.3427 v -0.26654 c 0,-0.19039 -0.15231,-0.34271 -0.3427,-0.34271 h -3.14143 l 3.27471,-1.3232 c 0.10471,-0.0381 0.20942,-0.19039 0.20942,-0.31415 v -0.22846 c 0,-0.18087 -0.15231,-0.34271 -0.3427,-0.34271 h -5.73073 c -0.19039,0 -0.3427,0.16184 -0.3427,0.34271 v 0.27606 c 0,0.18087 0.15231,0.3427 0.3427,0.3427 h 3.14143 l -3.2747,1.32321 c -0.10471,0.0381 -0.20943,0.19991 -0.20943,0.31414 z"
         style="font-style:normal;font-variant:normal;font-weight:900;font-stretch:normal;font-size:9.51948643px;line-height:0;font-family:'Ostrich Sans';-inkscape-font-specification:'Ostrich Sans Heavy';text-align:start;writing-mode:tb-rl;text-anchor:start;fill:#000000;fill-opacity:1;stroke:none;stroke-width:0.18483275;stroke-miterlimit:4;stroke-dasharray:none;stroke-opacity:1"
         id="path5559"
         inkscape:connector-curvature="0" />
      <path
         d="m -140.04235,401.27351 c 0.19039,0 0.3427,-0.16183 0.3427,-0.3427 v -0.26654 c 0,-0.19039 -0.15231,-0.34271 -0.3427,-0.34271 h -5.73073 c -0.19039,0 -0.3427,0.15232 -0.3427,0.34271 v 0.26654 c 0,0.18087 0.15231,0.3427 0.3427,0.3427 z"
         style="font-style:normal;font-variant:normal;font-weight:900;font-stretch:normal;font-size:9.51948643px;line-height:0;font-family:'Ostrich Sans';-inkscape-font-specification:'Ostrich Sans Heavy';text-align:start;writing-mode:tb-rl;text-anchor:start;fill:#000000;fill-opacity:1;stroke:none;stroke-width:0.18483275;stroke-miterlimit:4;stroke-dasharray:none;stroke-opacity:1"
         id="path5561"
         inkscape:connector-curvature="0" />
      <path
         d="m -142.44126,402.87279 h 2.39891 c 0.19039,0 0.3427,-0.15232 0.3427,-0.34271 v -0.26654 c 0,-0.19039 -0.15231,-0.3427 -0.3427,-0.3427 h -5.73073 c -0.19039,0 -0.3427,0.15231 -0.3427,0.3427 v 0.26654 c 0,0.19039 0.15231,0.34271 0.3427,0.34271 h 2.38939 v 1.05666 h -2.38939 c -0.19039,0 -0.3427,0.15231 -0.3427,0.3427 v 0.26655 c 0,0.19039 0.15231,0.3427 0.3427,0.3427 h 5.73073 c 0.19039,0 0.3427,-0.15231 0.3427,-0.3427 v -0.26655 c 0,-0.19039 -0.15231,-0.3427 -0.3427,-0.3427 h -2.39891 z"
         style="font-style:normal;font-variant:normal;font-weight:900;font-stretch:normal;font-size:9.51948643px;line-height:0;font-family:'Ostrich Sans';-inkscape-font-specification:'Ostrich Sans Heavy';text-align:start;writing-mode:tb-rl;text-anchor:start;fill:#000000;fill-opacity:1;stroke:none;stroke-width:0.18483275;stroke-miterlimit:4;stroke-dasharray:none;stroke-opacity:1"
         id="path5563"
         inkscape:connector-curvature="0" />
      <path
         d="m -140.04235,408.58448 c 0.19039,0 0.3427,-0.16183 0.3427,-0.3427 v -0.26655 c 0,-0.19039 -0.15231,-0.3427 -0.3427,-0.3427 h -5.73073 c -0.19039,0 -0.3427,0.15231 -0.3427,0.3427 v 0.26655 c 0,0.18087 0.15231,0.3427 0.3427,0.3427 z"
         style="font-style:normal;font-variant:normal;font-weight:900;font-stretch:normal;font-size:9.51948643px;line-height:0;font-family:'Ostrich Sans';-inkscape-font-specification:'Ostrich Sans Heavy';text-align:start;writing-mode:tb-rl;text-anchor:start;fill:#000000;fill-opacity:1;stroke:none;stroke-width:0.18483275;stroke-miterlimit:4;stroke-dasharray:none;stroke-opacity:1"
         id="path5565"
         inkscape:connector-curvature="0" />
      <path
         d="m -146.11578,412.04005 c 0,0.19039 0.15231,0.3427 0.3427,0.3427 h 5.73073 c 0.19039,0 0.3427,-0.15231 0.3427,-0.3427 v -0.26655 c 0,-0.19038 -0.15231,-0.3427 -0.3427,-0.3427 h -3.14143 l 3.27471,-1.32321 c 0.10471,-0.0381 0.20942,-0.19039 0.20942,-0.31414 v -0.22847 c 0,-0.18087 -0.15231,-0.3427 -0.3427,-0.3427 h -5.73073 c -0.19039,0 -0.3427,0.16183 -0.3427,0.3427 v 0.27607 c 0,0.18087 0.15231,0.3427 0.3427,0.3427 h 3.14143 l -3.2747,1.32321 c -0.10471,0.0381 -0.20943,0.19991 -0.20943,0.31414 z"
         style="font-style:normal;font-variant:normal;font-weight:900;font-stretch:normal;font-size:9.51948643px;line-height:0;font-family:'Ostrich Sans';-inkscape-font-specification:'Ostrich Sans Heavy';text-align:start;writing-mode:tb-rl;text-anchor:start;fill:#000000;fill-opacity:1;stroke:none;stroke-width:0.18483275;stroke-miterlimit:4;stroke-dasharray:none;stroke-opacity:1"
         id="path5567"
         inkscape:connector-curvature="0" />
      <path
         d="m -153.6012,376.00081 c -1.00906,0 -1.74206,0.41885 -1.74206,1.56119 0,1.10426 0.67588,1.5612 1.74206,1.5612 h 4.33137 c 0.19039,0 0.3427,-0.15231 0.3427,-0.3427 v -0.26655 c 0,-0.18087 -0.15231,-0.33318 -0.3427,-0.33318 h -4.33137 c -0.45693,0 -0.79963,-0.13327 -0.79963,-0.61877 0,-0.46645 0.2951,-0.61877 0.79963,-0.61877 h 4.33137 c 0.19039,0 0.3427,-0.15231 0.3427,-0.3427 v -0.26654 c 0,-0.18087 -0.15231,-0.33318 -0.3427,-0.33318 z"
         style="letter-spacing:-0.27586615px;fill:#000000;fill-opacity:1;stroke:none;stroke-width:0.18483275;stroke-miterlimit:4;stroke-dasharray:none;stroke-opacity:1"
         id="path5569"
         inkscape:connector-curvature="0" />
      <path
         d="m -155.35278,381.47471 c 0,0.14279 0.12375,0.2951 0.27606,0.33318 l 2.11333,0.31414 h -2.04669 c -0.19039,0 -0.3427,0.15232 -0.3427,0.34271 v 0.26654 c 0,0.19039 0.15231,0.3427 0.3427,0.3427 h 5.73073 c 0.19039,0 0.3427,-0.15231 0.3427,-0.3427 v -0.28558 c 0,-0.1428 -0.12375,-0.30463 -0.26654,-0.33319 l -3.83636,-0.74252 3.83636,-0.75203 c 0.14279,-0.0286 0.26654,-0.18087 0.26654,-0.32367 v -0.28558 c 0,-0.19039 -0.15231,-0.3427 -0.3427,-0.3427 h -5.73073 c -0.19039,0 -0.3427,0.15231 -0.3427,0.3427 v 0.26654 c 0,0.18087 0.15231,0.34271 0.3427,0.34271 h 2.06573 l -2.14189,0.32366 c -0.14279,0.0286 -0.26654,0.18087 -0.26654,0.32366 z"
         style="letter-spacing:-0.24521434px;fill:#000000;fill-opacity:1;stroke:none;stroke-width:0.18483275;stroke-miterlimit:4;stroke-dasharray:none;stroke-opacity:1"
         id="path5571"
         inkscape:connector-curvature="0" />
      <path
         d="m -148.93665,383.99015 c 0,-0.19039 -0.15231,-0.34271 -0.3427,-0.34271 h -5.73073 c -0.19039,0 -0.3427,0.15232 -0.3427,0.34271 v 2.05621 c 0,0.19039 0.15231,0.3427 0.3427,0.3427 h 0.25703 c 0.19039,0 0.3427,-0.15231 0.3427,-0.3427 v -1.45649 h 1.79918 v 1.19946 c 0,0.19039 0.15231,0.3427 0.3427,0.3427 h 0.25703 c 0.19039,0 0.3427,-0.15231 0.3427,-0.3427 v -1.19946 h 1.78966 v 1.45649 c 0,0.19039 0.15232,0.3427 0.3427,0.3427 h 0.25703 c 0.19039,0 0.3427,-0.15231 0.3427,-0.3427 z"
         style="letter-spacing:-0.03448327px;fill:#000000;fill-opacity:1;stroke:none;stroke-width:0.18483275;stroke-miterlimit:4;stroke-dasharray:none;stroke-opacity:1"
         id="path5573"
         inkscape:connector-curvature="0" />
      <path
         d="m -149.53638,386.94478 c -0.19038,0 -0.3427,0.15231 -0.3427,0.3427 v 0.77108 h -5.12148 c -0.19039,0 -0.3427,0.15231 -0.3427,0.3427 v 0.25703 c 0,0.19039 0.15231,0.3427 0.3427,0.3427 h 5.12148 v 0.7806 c 0,0.19039 0.15232,0.3427 0.3427,0.3427 h 0.26655 c 0.19039,0 0.3427,-0.15231 0.3427,-0.3427 v -2.49411 c 0,-0.19039 -0.15231,-0.3427 -0.3427,-0.3427 z"
         style="letter-spacing:-0.28352907px;fill:#000000;fill-opacity:1;stroke:none;stroke-width:0.18483275;stroke-miterlimit:4;stroke-dasharray:none;stroke-opacity:1"
         id="path5575"
         inkscape:connector-curvature="0" />
      <path
         d="m -155.35278,393.32489 c 0,0.19039 0.15231,0.3427 0.3427,0.3427 h 5.73073 c 0.19039,0 0.3427,-0.15231 0.3427,-0.3427 v -0.26654 c 0,-0.19039 -0.15231,-0.3427 -0.3427,-0.3427 h -3.14143 l 3.2747,-1.32321 c 0.10472,-0.0381 0.20943,-0.19039 0.20943,-0.31415 v -0.22846 c 0,-0.18087 -0.15231,-0.34271 -0.3427,-0.34271 h -5.73073 c -0.19039,0 -0.3427,0.16184 -0.3427,0.34271 v 0.27606 c 0,0.18087 0.15231,0.3427 0.3427,0.3427 h 3.14143 l -3.2747,1.32321 c -0.10472,0.0381 -0.20943,0.19991 -0.20943,0.31414 z"
         style="font-style:normal;font-variant:normal;font-weight:900;font-stretch:normal;font-size:9.51948643px;line-height:0;font-family:'Ostrich Sans';-inkscape-font-specification:'Ostrich Sans Heavy';text-align:start;writing-mode:tb-rl;text-anchor:start;fill:#000000;fill-opacity:1;stroke:none;stroke-width:0.18483275;stroke-miterlimit:4;stroke-dasharray:none;stroke-opacity:1"
         id="path5577"
         inkscape:connector-curvature="0" />
      <path
         d="m -149.27935,395.3335 c 0.19039,0 0.3427,-0.16183 0.3427,-0.3427 v -0.26654 c 0,-0.19039 -0.15231,-0.3427 -0.3427,-0.3427 h -5.73073 c -0.19039,0 -0.3427,0.15231 -0.3427,0.3427 v 0.26654 c 0,0.18087 0.15231,0.3427 0.3427,0.3427 z"
         style="font-style:normal;font-variant:normal;font-weight:900;font-stretch:normal;font-size:9.51948643px;line-height:0;font-family:'Ostrich Sans';-inkscape-font-specification:'Ostrich Sans Heavy';text-align:start;writing-mode:tb-rl;text-anchor:start;fill:#000000;fill-opacity:1;stroke:none;stroke-width:0.18483275;stroke-miterlimit:4;stroke-dasharray:none;stroke-opacity:1"
         id="path5579"
         inkscape:connector-curvature="0" />
      <path
         d="m -153.48696,395.98083 c -1.24705,0 -1.8563,0.52357 -1.8563,1.57071 0,1.00907 0.57117,1.57072 1.63735,1.57072 0.92339,0 1.40888,-0.63781 1.89438,-1.26609 v 0.01 c 0.36174,-0.46646 0.733,-0.93291 1.21849,-0.93291 0.49502,0 0.71396,0.21895 0.71396,0.61876 0,0.41886 -0.28558,0.61877 -0.91387,0.61877 h -0.13327 c -0.19039,0 -0.3427,0.15231 -0.3427,0.3427 v 0.26655 c 0,0.19039 0.15231,0.3427 0.3427,0.3427 h 0.13327 c 1.20898,0 1.86582,-0.54261 1.86582,-1.57072 0,-1.00906 -0.61876,-1.57071 -1.69447,-1.57071 -0.94243,0 -1.45648,0.65684 -1.95149,1.28513 h 0.01 c -0.36174,0.46645 -0.71396,0.90435 -1.16138,0.90435 -0.50453,0 -0.67588,-0.21895 -0.67588,-0.61877 0,-0.13327 0.019,-0.2951 0.12375,-0.39981 0.11423,-0.13328 0.33318,-0.21895 0.79012,-0.21895 h 0.12375 c 0.19039,0 0.3427,-0.16183 0.3427,-0.3427 v -0.26655 c 0,-0.19039 -0.15231,-0.3427 -0.3427,-0.3427 z m 5.93064,1.58975 0.28558,-0.16183 c 0.0571,-0.0381 0.13328,-0.19039 0.13328,-0.26654 v -0.31415 c 0,-0.31414 -0.31415,-0.46645 -0.55213,-0.26654 l -0.70445,0.58069 c -0.0571,0.0381 -0.13327,0.19039 -0.13327,0.25702 v 0.3427 c 0,0.0666 0.0762,0.21895 0.13327,0.26655 l 0.70445,0.58069 c 0.23798,0.19039 0.55213,0.0381 0.55213,-0.26655 v -0.32366 c 0,-0.0666 -0.0762,-0.21895 -0.13328,-0.26655 z"
         style="font-style:normal;font-variant:normal;font-weight:900;font-stretch:normal;font-size:9.51948643px;line-height:0;font-family:'Ostrich Sans';-inkscape-font-specification:'Ostrich Sans Heavy';text-align:start;writing-mode:tb-rl;text-anchor:start;fill:#000000;fill-opacity:1;stroke:none;stroke-width:0.18483275;stroke-miterlimit:4;stroke-dasharray:none;stroke-opacity:1"
         id="path5581"
         inkscape:connector-curvature="0" />
      <path
         d="m -151.33556,400.71201 h 2.05621 c 0.19039,0 0.3427,-0.15231 0.3427,-0.3427 v -0.26654 c 0,-0.19039 -0.15231,-0.3427 -0.3427,-0.3427 h -5.73073 c -0.19039,0 -0.3427,0.15231 -0.3427,0.3427 v 0.26654 c 0,0.19039 0.15231,0.3427 0.3427,0.3427 h 1.88486 l 0.17135,0.11424 -2.22756,1.27561 c -0.0857,0.0476 -0.17135,0.19991 -0.17135,0.2951 v 0.30463 c 0,0.28558 0.26654,0.43789 0.51405,0.30462 l 2.81777,-1.59927 2.56074,1.58975 c 0.24751,0.15231 0.52357,0 0.52357,-0.2951 v -0.32367 c 0,-0.0952 -0.0857,-0.23798 -0.16183,-0.28558 z"
         style="font-style:normal;font-variant:normal;font-weight:900;font-stretch:normal;font-size:9.51948643px;line-height:0;font-family:'Ostrich Sans';-inkscape-font-specification:'Ostrich Sans Heavy';text-align:start;writing-mode:tb-rl;text-anchor:start;fill:#000000;fill-opacity:1;stroke:none;stroke-width:0.18483275;stroke-miterlimit:4;stroke-dasharray:none;stroke-opacity:1"
         id="path5583"
         inkscape:connector-curvature="0" />
      <path
         d="m -149.27935,404.58645 c 0.19039,0 0.3427,-0.16184 0.3427,-0.34271 v -0.26654 c 0,-0.19039 -0.15231,-0.3427 -0.3427,-0.3427 h -5.73073 c -0.19039,0 -0.3427,0.15231 -0.3427,0.3427 v 0.26654 c 0,0.18087 0.15231,0.34271 0.3427,0.34271 z"
         style="font-style:normal;font-variant:normal;font-weight:900;font-stretch:normal;font-size:9.51948643px;line-height:0;font-family:'Ostrich Sans';-inkscape-font-specification:'Ostrich Sans Heavy';text-align:start;writing-mode:tb-rl;text-anchor:start;fill:#000000;fill-opacity:1;stroke:none;stroke-width:0.18483275;stroke-miterlimit:4;stroke-dasharray:none;stroke-opacity:1"
         id="path5585"
         inkscape:connector-curvature="0" />
      <path
         d="m -151.67826,406.18572 h 2.39891 c 0.19039,0 0.3427,-0.15231 0.3427,-0.3427 v -0.26655 c 0,-0.19039 -0.15231,-0.3427 -0.3427,-0.3427 h -5.73073 c -0.19039,0 -0.3427,0.15231 -0.3427,0.3427 v 0.26655 c 0,0.19039 0.15231,0.3427 0.3427,0.3427 h 2.38939 v 1.05666 h -2.38939 c -0.19039,0 -0.3427,0.15231 -0.3427,0.3427 v 0.26655 c 0,0.19039 0.15231,0.3427 0.3427,0.3427 h 5.73073 c 0.19039,0 0.3427,-0.15231 0.3427,-0.3427 v -0.26655 c 0,-0.19039 -0.15231,-0.3427 -0.3427,-0.3427 h -2.39891 z"
         style="font-style:normal;font-variant:normal;font-weight:900;font-stretch:normal;font-size:9.51948643px;line-height:0;font-family:'Ostrich Sans';-inkscape-font-specification:'Ostrich Sans Heavy';text-align:start;writing-mode:tb-rl;text-anchor:start;fill:#000000;fill-opacity:1;stroke:none;stroke-width:0.18483275;stroke-miterlimit:4;stroke-dasharray:none;stroke-opacity:1"
         id="path5587"
         inkscape:connector-curvature="0" />
      <path
         d="m -162.8382,376.00081 c -1.00906,0 -1.74206,0.41885 -1.74206,1.56119 0,1.10426 0.67588,1.5612 1.74206,1.5612 h 4.33137 c 0.19039,0 0.3427,-0.15231 0.3427,-0.3427 v -0.26655 c 0,-0.18087 -0.15231,-0.33318 -0.3427,-0.33318 h -4.33137 c -0.45693,0 -0.79963,-0.13327 -0.79963,-0.61877 0,-0.46645 0.2951,-0.61877 0.79963,-0.61877 h 4.33137 c 0.19039,0 0.3427,-0.15231 0.3427,-0.3427 v -0.26654 c 0,-0.18087 -0.15231,-0.33318 -0.3427,-0.33318 z"
         style="letter-spacing:-0.44828245px;fill:#000000;fill-opacity:1;stroke:none;stroke-width:0.18483275;stroke-miterlimit:4;stroke-dasharray:none;stroke-opacity:1"
         id="path5589"
         inkscape:connector-curvature="0" />
      <path
         d="m -162.72396,379.51263 c -1.24706,0 -1.8563,0.52357 -1.8563,1.57071 0,1.00907 0.57117,1.57072 1.63735,1.57072 0.92339,0 1.40888,-0.63781 1.89438,-1.26609 v 0.01 c 0.36174,-0.46646 0.733,-0.93291 1.21849,-0.93291 0.49501,0 0.71396,0.21895 0.71396,0.61876 0,0.41886 -0.28558,0.61877 -0.91387,0.61877 h -0.13327 c -0.19039,0 -0.3427,0.15231 -0.3427,0.3427 v 0.26655 c 0,0.19039 0.15231,0.3427 0.3427,0.3427 h 0.13327 c 1.20898,0 1.86582,-0.54261 1.86582,-1.57072 0,-1.00906 -0.61877,-1.57071 -1.69447,-1.57071 -0.94243,0 -1.45648,0.65684 -1.95149,1.28513 h 0.01 c -0.36174,0.46645 -0.71397,0.90435 -1.16138,0.90435 -0.50453,0 -0.67588,-0.21895 -0.67588,-0.61877 0,-0.13327 0.019,-0.2951 0.12375,-0.39981 0.11423,-0.13328 0.33318,-0.21895 0.79012,-0.21895 h 0.12375 c 0.19039,0 0.3427,-0.16183 0.3427,-0.3427 v -0.26655 c 0,-0.19039 -0.15231,-0.3427 -0.3427,-0.3427 z"
         style="letter-spacing:-0.34483266px;fill:#000000;fill-opacity:1;stroke:none;stroke-width:0.18483275;stroke-miterlimit:4;stroke-dasharray:none;stroke-opacity:1"
         id="path5591"
         inkscape:connector-curvature="0" />
      <path
         d="m -158.77338,382.91847 c -0.19039,0 -0.3427,0.15232 -0.3427,0.34271 v 0.77107 h -5.12148 c -0.19039,0 -0.3427,0.15232 -0.3427,0.34271 v 0.25702 c 0,0.19039 0.15231,0.3427 0.3427,0.3427 h 5.12148 v 0.7806 c 0,0.19039 0.15231,0.3427 0.3427,0.3427 h 0.26655 c 0.19039,0 0.3427,-0.15231 0.3427,-0.3427 v -2.4941 c 0,-0.19039 -0.15231,-0.34271 -0.3427,-0.34271 z"
         style="letter-spacing:-0.33716974px;fill:#000000;fill-opacity:1;stroke:none;stroke-width:0.18483275;stroke-miterlimit:4;stroke-dasharray:none;stroke-opacity:1"
         id="path5593"
         inkscape:connector-curvature="0" />
      <path
         d="m -158.43068,387.39817 c 0.1428,-0.0381 0.26655,-0.19039 0.26655,-0.33319 v -0.26654 c 0,-0.23799 -0.19991,-0.3903 -0.41886,-0.33318 l -5.73073,1.35176 c -0.15231,0.0286 -0.26654,0.18087 -0.26654,0.33318 v 0.19991 c 0,0.1428 0.11423,0.29511 0.26654,0.33319 l 5.73073,1.35176 c 0.21895,0.0476 0.41886,-0.10471 0.41886,-0.33318 v -0.27606 c 0,-0.1428 -0.12375,-0.30463 -0.26655,-0.33319 l -3.62692,-0.84723 z"
         style="letter-spacing:-1.11879051px;fill:#000000;fill-opacity:1;stroke:none;stroke-width:0.18483275;stroke-miterlimit:4;stroke-dasharray:none;stroke-opacity:1"
         id="path5595"
         inkscape:connector-curvature="0" />
      <path
         d="m -164.32324,392.04818 c -0.14279,0.0381 -0.26654,0.19039 -0.26654,0.33319 v 0.27606 c 0,0.22847 0.19991,0.38078 0.41885,0.33318 l 5.73073,-1.31369 c 0.1428,-0.0285 0.26655,-0.19039 0.26655,-0.33318 v -0.20943 c 0,-0.14279 -0.12375,-0.2951 -0.26655,-0.33318 l -3.72211,-0.86627 -2.01814,-0.45694 c -0.21894,-0.0476 -0.40933,0.10472 -0.40933,0.33318 v 0.27607 c 0,0.14279 0.12375,0.2951 0.26654,0.33318 l 1.48504,0.33318 v 0.97099 z m 3.95059,-0.80915 c -0.80916,0.18087 -1.06618,0.16183 -1.52312,0.26654 v -0.53309 z"
         style="letter-spacing:-0.39847332px;fill:#000000;fill-opacity:1;stroke:none;stroke-width:0.18483275;stroke-miterlimit:4;stroke-dasharray:none;stroke-opacity:1"
         id="path5597"
         inkscape:connector-curvature="0" />
      <path
         d="m -162.64781,396.3333 c 0.49502,0 0.88531,-0.13328 1.18042,-0.40934 0.0286,0.0286 0.0476,0.0476 0.0761,0.0762 0.29511,0.2951 0.77108,0.39981 1.36129,0.39981 1.27561,0 1.86582,-0.40933 1.86582,-1.58023 v -1.19946 c 0,-0.19039 -0.15231,-0.3427 -0.3427,-0.3427 h -5.73073 c -0.19039,0 -0.3427,0.15231 -0.3427,0.3427 v 0.26655 c 0,0.18087 0.15231,0.33318 0.3427,0.33318 h 2.33227 v 0.42838 c 0,0.46645 -0.26654,0.733 -0.74252,0.733 h -1.58975 c -0.19039,0 -0.3427,0.15231 -0.3427,0.3427 v 0.26655 c 0,0.19039 0.15231,0.3427 0.3427,0.3427 z m 3.53173,-2.11333 v 0.59973 c 0,0.49501 -0.26654,0.6378 -0.91387,0.6378 -0.64732,0 -0.91387,-0.27606 -0.91387,-0.80915 v -0.42838 z"
         style="letter-spacing:-0.19923668px;fill:#000000;fill-opacity:1;stroke:none;stroke-width:0.18483275;stroke-miterlimit:4;stroke-dasharray:none;stroke-opacity:1"
         id="path5599"
         inkscape:connector-curvature="0" />
      <path
         d="m -162.84772,396.76235 c -1.14234,0 -1.74206,0.49501 -1.74206,1.48504 0,0.99002 0.59972,1.466 1.74206,1.466 h 4.33137 c 0.19039,0 0.3427,-0.15231 0.3427,-0.33318 v -0.26655 c 0,-0.19039 -0.15231,-0.3427 -0.3427,-0.3427 h -4.33137 c -0.55213,0 -0.79963,-0.18087 -0.79963,-0.52357 0,-0.12376 0.01,-0.25703 0.0952,-0.3427 0.11423,-0.11424 0.31414,-0.19039 0.70444,-0.19039 h 0.13328 c 0.18087,0 0.33318,-0.16184 0.33318,-0.34271 v -0.26654 c 0,-0.19039 -0.15231,-0.3427 -0.33318,-0.3427 z"
         style="letter-spacing:-0.52874345px;fill:#000000;fill-opacity:1;stroke:none;stroke-width:0.18483275;stroke-miterlimit:4;stroke-dasharray:none;stroke-opacity:1"
         id="path5601"
         inkscape:connector-curvature="0" />
      <path
         d="m -164.32324,402.47839 c -0.14279,0.0381 -0.26654,0.19039 -0.26654,0.33318 v 0.27606 c 0,0.22847 0.19991,0.38078 0.41885,0.33319 l 5.73073,-1.31369 c 0.1428,-0.0286 0.26655,-0.19039 0.26655,-0.33319 v -0.20942 c 0,-0.1428 -0.12375,-0.29511 -0.26655,-0.33319 l -3.72211,-0.86627 -2.01814,-0.45694 c -0.21894,-0.0476 -0.40933,0.10472 -0.40933,0.33319 v 0.27606 c 0,0.14279 0.12375,0.29511 0.26654,0.33318 l 1.48504,0.33319 v 0.97098 z m 3.95059,-0.80916 c -0.80916,0.18087 -1.06618,0.16183 -1.52312,0.26655 v -0.5331 z"
         style="font-style:normal;font-variant:normal;font-weight:900;font-stretch:normal;font-size:9.51948643px;line-height:0;font-family:'Ostrich Sans';-inkscape-font-specification:'Ostrich Sans Heavy';text-align:start;writing-mode:tb-rl;text-anchor:start;fill:#000000;fill-opacity:1;stroke:none;stroke-width:0.18483275;stroke-miterlimit:4;stroke-dasharray:none;stroke-opacity:1"
         id="path5603"
         inkscape:connector-curvature="0" />
      <path
         d="m -163.99006,406.74312 c 0.19039,0 0.34271,-0.15232 0.34271,-0.34271 v -1.4184 h 5.131 c 0.19039,0 0.3427,-0.15231 0.3427,-0.33318 v -0.27607 c 0,-0.19039 -0.15231,-0.3427 -0.3427,-0.3427 h -5.73073 c -0.19039,0 -0.3427,0.15231 -0.3427,0.3427 v 2.02765 c 0,0.19039 0.15231,0.34271 0.3427,0.34271 z"
         style="letter-spacing:-0.16475341px;fill:#000000;fill-opacity:1;stroke:none;stroke-width:0.18483275;stroke-miterlimit:4;stroke-dasharray:none;stroke-opacity:1"
         id="path5605"
         inkscape:connector-curvature="0" />
      <path
         d="m -162.72396,407.10193 c -0.75204,0 -1.18994,0.20943 -1.48504,0.50454 -0.30463,0.31414 -0.38078,0.70444 -0.38078,1.06618 0,0.3427 0.0761,0.74252 0.38078,1.05666 0.2951,0.29511 0.733,0.49502 1.48504,0.49502 h 0.13327 c 0.19039,0 0.3427,-0.15232 0.3427,-0.33319 v -0.27606 c 0,-0.19039 -0.15231,-0.3427 -0.3427,-0.3427 h -0.13327 c -0.34271,0 -0.59973,-0.0476 -0.75204,-0.16183 -0.0952,-0.0857 -0.17135,-0.25703 -0.17135,-0.4379 0,-0.40934 0.28558,-0.60925 0.92339,-0.60925 h 2.69401 c 0.63781,0 0.91387,0.20943 0.91387,0.60925 0,0.3903 -0.27606,0.59973 -0.91387,0.59973 h -0.13327 c -0.19039,0 -0.3427,0.15231 -0.3427,0.3427 v 0.27606 c 0,0.18087 0.15231,0.33319 0.3427,0.33319 h 0.13327 c 0.72348,0 1.19946,-0.19991 1.48504,-0.50454 0.28559,-0.31414 0.37126,-0.69492 0.37126,-1.04714 0,-0.36174 -0.0857,-0.74252 -0.37126,-1.05666 -0.28558,-0.30463 -0.76156,-0.51406 -1.48504,-0.51406 z"
         style="letter-spacing:-0.10344981px;fill:#000000;fill-opacity:1;stroke:none;stroke-width:0.18483275;stroke-miterlimit:4;stroke-dasharray:none;stroke-opacity:1"
         id="path5607"
         inkscape:connector-curvature="0" />
      <path
         d="m -158.17365,411.10138 c 0,-0.19039 -0.15231,-0.3427 -0.3427,-0.3427 h -5.73073 c -0.19039,0 -0.3427,0.15231 -0.3427,0.3427 v 2.05621 c 0,0.19039 0.15231,0.3427 0.3427,0.3427 h 0.25702 c 0.19039,0 0.34271,-0.15231 0.34271,-0.3427 v -1.45648 h 1.79918 v 1.19946 c 0,0.19039 0.15231,0.3427 0.3427,0.3427 h 0.25703 c 0.19039,0 0.3427,-0.15231 0.3427,-0.3427 v -1.19946 h 1.78966 v 1.45648 c 0,0.19039 0.15231,0.3427 0.3427,0.3427 h 0.25703 c 0.19039,0 0.3427,-0.15231 0.3427,-0.3427 z"
         style="letter-spacing:-0.23371996px;fill:#000000;fill-opacity:1;stroke:none;stroke-width:0.18483275;stroke-miterlimit:4;stroke-dasharray:none;stroke-opacity:1"
         id="path5609"
         inkscape:connector-curvature="0" />
      <path
         d="m -158.43068,414.85633 c 0.1428,-0.0381 0.26655,-0.19039 0.26655,-0.33318 v -0.26655 c 0,-0.23799 -0.19991,-0.3903 -0.41886,-0.33318 l -5.73073,1.35177 c -0.15231,0.0286 -0.26654,0.18087 -0.26654,0.33318 v 0.19991 c 0,0.14279 0.11423,0.2951 0.26654,0.33318 l 5.73073,1.35177 c 0.21895,0.0476 0.41886,-0.10472 0.41886,-0.33319 v -0.27606 c 0,-0.14279 -0.12375,-0.30462 -0.26655,-0.33318 l -3.62692,-0.84724 z"
         style="font-style:normal;font-variant:normal;font-weight:900;font-stretch:normal;font-size:9.51948643px;line-height:0;font-family:'Ostrich Sans';-inkscape-font-specification:'Ostrich Sans Heavy';text-align:start;writing-mode:tb-rl;text-anchor:start;fill:#000000;fill-opacity:1;stroke:none;stroke-width:0.18483275;stroke-miterlimit:4;stroke-dasharray:none;stroke-opacity:1"
         id="path5611"
         inkscape:connector-curvature="0" />
      <path
         d="m -171.88481,379.13272 c 0.49501,0 0.88531,-0.13328 1.18042,-0.40934 0.0285,0.0286 0.0476,0.0476 0.0761,0.0761 0.29511,0.29511 0.77108,0.39982 1.36129,0.39982 1.27561,0 1.86582,-0.40934 1.86582,-1.58023 v -1.19946 c 0,-0.19039 -0.15231,-0.3427 -0.3427,-0.3427 h -5.73073 c -0.19039,0 -0.34271,0.15231 -0.34271,0.3427 v 0.26655 c 0,0.18087 0.15232,0.33318 0.34271,0.33318 h 2.33227 v 0.42838 c 0,0.46645 -0.26655,0.733 -0.74252,0.733 h -1.58975 c -0.19039,0 -0.34271,0.15231 -0.34271,0.3427 v 0.26654 c 0,0.19039 0.15232,0.34271 0.34271,0.34271 z m 3.53173,-2.11333 v 0.59973 c 0,0.49501 -0.26655,0.6378 -0.91387,0.6378 -0.64733,0 -0.91387,-0.27606 -0.91387,-0.80915 v -0.42838 z"
         style="font-style:normal;font-variant:normal;font-weight:900;font-stretch:normal;font-size:9.51948643px;line-height:0;font-family:'Ostrich Sans';-inkscape-font-specification:'Ostrich Sans Heavy';text-align:start;writing-mode:tb-rl;text-anchor:start;fill:#000000;fill-opacity:1;stroke:none;stroke-width:0.18483275;stroke-miterlimit:4;stroke-dasharray:none;stroke-opacity:1"
         id="path5613"
         inkscape:connector-curvature="0" />
      <path
         d="m -168.01038,379.81812 c -0.19039,0 -0.3427,0.15231 -0.3427,0.3427 v 0.77108 h -5.12148 c -0.19039,0 -0.34271,0.15231 -0.34271,0.3427 v 0.25703 c 0,0.19039 0.15232,0.3427 0.34271,0.3427 h 5.12148 v 0.7806 c 0,0.19039 0.15231,0.3427 0.3427,0.3427 h 0.26655 c 0.19039,0 0.3427,-0.15231 0.3427,-0.3427 v -2.49411 c 0,-0.19039 -0.15231,-0.3427 -0.3427,-0.3427 z"
         style="font-style:normal;font-variant:normal;font-weight:900;font-stretch:normal;font-size:9.51948643px;line-height:0;font-family:'Ostrich Sans';-inkscape-font-specification:'Ostrich Sans Heavy';text-align:start;writing-mode:tb-rl;text-anchor:start;fill:#000000;fill-opacity:1;stroke:none;stroke-width:0.18483275;stroke-miterlimit:4;stroke-dasharray:none;stroke-opacity:1"
         id="path5615"
         inkscape:connector-curvature="0" />
      <path
         d="m -167.66768,384.63498 c 0.14279,-0.0381 0.26655,-0.19039 0.26655,-0.33318 v -0.26655 c 0,-0.23799 -0.19991,-0.3903 -0.41886,-0.33318 l -5.73073,1.35177 c -0.15231,0.0286 -0.26655,0.18087 -0.26655,0.33318 v 0.19991 c 0,0.14279 0.11424,0.2951 0.26655,0.33318 l 5.73073,1.35177 c 0.21895,0.0476 0.41886,-0.10472 0.41886,-0.33318 v -0.27607 c 0,-0.14279 -0.12376,-0.30462 -0.26655,-0.33318 l -3.62692,-0.84724 z"
         style="font-style:normal;font-variant:normal;font-weight:900;font-stretch:normal;font-size:9.51948643px;line-height:0;font-family:'Ostrich Sans';-inkscape-font-specification:'Ostrich Sans Heavy';text-align:start;writing-mode:tb-rl;text-anchor:start;fill:#000000;fill-opacity:1;stroke:none;stroke-width:0.18483275;stroke-miterlimit:4;stroke-dasharray:none;stroke-opacity:1"
         id="path5617"
         inkscape:connector-curvature="0" />
      <path
         d="m -171.96097,389.81358 c -1.24705,0 -1.8563,0.52357 -1.8563,1.57072 0,1.00906 0.57117,1.57071 1.63736,1.57071 0.92339,0 1.40888,-0.6378 1.89437,-1.26609 v 0.01 c 0.36174,-0.46646 0.733,-0.93291 1.2185,-0.93291 0.49501,0 0.71396,0.21895 0.71396,0.61877 0,0.41885 -0.28559,0.61876 -0.91387,0.61876 h -0.13327 c -0.19039,0 -0.34271,0.15231 -0.34271,0.3427 v 0.26655 c 0,0.19039 0.15232,0.3427 0.34271,0.3427 h 0.13327 c 1.20897,0 1.86582,-0.54261 1.86582,-1.57071 0,-1.00907 -0.61877,-1.57072 -1.69447,-1.57072 -0.94243,0 -1.45648,0.65684 -1.9515,1.28513 h 0.01 c -0.36174,0.46646 -0.71396,0.90435 -1.16137,0.90435 -0.50454,0 -0.67589,-0.21895 -0.67589,-0.61876 0,-0.13328 0.019,-0.29511 0.12376,-0.39982 0.11423,-0.13328 0.33318,-0.21895 0.79011,-0.21895 h 0.12376 c 0.19039,0 0.3427,-0.16183 0.3427,-0.3427 v -0.26655 c 0,-0.19039 -0.15231,-0.3427 -0.3427,-0.3427 z"
         style="font-style:normal;font-variant:normal;font-weight:900;font-stretch:normal;font-size:9.51948643px;line-height:0;font-family:'Ostrich Sans';-inkscape-font-specification:'Ostrich Sans Heavy';text-align:start;writing-mode:tb-rl;text-anchor:start;fill:#000000;fill-opacity:1;stroke:none;stroke-width:0.18483275;stroke-miterlimit:4;stroke-dasharray:none;stroke-opacity:1"
         id="path5619"
         inkscape:connector-curvature="0" />
      <path
         d="m -173.22706,396.24875 c 0.19039,0 0.3427,-0.15231 0.3427,-0.3427 v -1.4184 h 5.13101 c 0.19039,0 0.3427,-0.15231 0.3427,-0.33318 v -0.27607 c 0,-0.19039 -0.15231,-0.3427 -0.3427,-0.3427 h -5.73073 c -0.19039,0 -0.34271,0.15231 -0.34271,0.3427 v 2.02765 c 0,0.19039 0.15232,0.3427 0.34271,0.3427 z"
         style="font-style:normal;font-variant:normal;font-weight:900;font-stretch:normal;font-size:9.51948643px;line-height:0;font-family:'Ostrich Sans';-inkscape-font-specification:'Ostrich Sans Heavy';text-align:start;writing-mode:tb-rl;text-anchor:start;fill:#000000;fill-opacity:1;stroke:none;stroke-width:0.18483275;stroke-miterlimit:4;stroke-dasharray:none;stroke-opacity:1"
         id="path5621"
         inkscape:connector-curvature="0" />
      <path
         d="m -171.96097,396.79136 c -0.75204,0 -1.18993,0.20943 -1.48504,0.50454 -0.30462,0.31414 -0.38078,0.71396 -0.38078,1.05666 0,0.35222 0.0762,0.75204 0.38078,1.06618 0.29511,0.29511 0.733,0.49502 1.48504,0.49502 h 2.69402 c 1.20897,0 1.8563,-0.51406 1.8563,-1.5612 0,-1.03762 -0.65685,-1.5612 -1.8563,-1.5612 z m 2.69402,0.95195 c 0.61877,0 0.91387,0.19039 0.91387,0.60925 0,0.40934 -0.27607,0.60925 -0.91387,0.60925 h -2.69402 c -0.64732,0 -0.92339,-0.20943 -0.92339,-0.60925 0,-0.40934 0.29511,-0.60925 0.92339,-0.60925 z"
         style="font-style:normal;font-variant:normal;font-weight:900;font-stretch:normal;font-size:9.51948643px;line-height:0;font-family:'Ostrich Sans';-inkscape-font-specification:'Ostrich Sans Heavy';text-align:start;writing-mode:tb-rl;text-anchor:start;fill:#000000;fill-opacity:1;stroke:none;stroke-width:0.18483275;stroke-miterlimit:4;stroke-dasharray:none;stroke-opacity:1"
         id="path5623"
         inkscape:connector-curvature="0" />
      <path
         d="m -167.66768,401.61774 c 0.14279,-0.0381 0.26655,-0.19039 0.26655,-0.33318 v -0.26654 c 0,-0.23799 -0.19991,-0.3903 -0.41886,-0.33319 l -5.73073,1.35177 c -0.15231,0.0286 -0.26655,0.18087 -0.26655,0.33318 v 0.19991 c 0,0.14279 0.11424,0.29511 0.26655,0.33318 l 5.73073,1.35177 c 0.21895,0.0476 0.41886,-0.10471 0.41886,-0.33318 v -0.27607 c 0,-0.14279 -0.12376,-0.30462 -0.26655,-0.33318 l -3.62692,-0.84723 z"
         style="font-style:normal;font-variant:normal;font-weight:900;font-stretch:normal;font-size:9.51948643px;line-height:0;font-family:'Ostrich Sans';-inkscape-font-specification:'Ostrich Sans Heavy';text-align:start;writing-mode:tb-rl;text-anchor:start;fill:#000000;fill-opacity:1;stroke:none;stroke-width:0.18483275;stroke-miterlimit:4;stroke-dasharray:none;stroke-opacity:1"
         id="path5625"
         inkscape:connector-curvature="0" />
      <path
         d="m -167.41065,405.13043 c 0,-0.19039 -0.15231,-0.3427 -0.3427,-0.3427 h -5.73073 c -0.19039,0 -0.34271,0.15231 -0.34271,0.3427 v 2.05621 c 0,0.19039 0.15232,0.34271 0.34271,0.34271 h 0.25702 c 0.19039,0 0.3427,-0.15232 0.3427,-0.34271 v -1.45648 h 1.79919 v 1.19946 c 0,0.19039 0.15231,0.3427 0.3427,0.3427 h 0.25702 c 0.19039,0 0.34271,-0.15231 0.34271,-0.3427 v -1.19946 h 1.78966 v 1.45648 c 0,0.19039 0.15231,0.34271 0.3427,0.34271 h 0.25703 c 0.19039,0 0.3427,-0.15232 0.3427,-0.34271 z"
         style="font-style:normal;font-variant:normal;font-weight:900;font-stretch:normal;font-size:9.51948643px;line-height:0;font-family:'Ostrich Sans';-inkscape-font-specification:'Ostrich Sans Heavy';text-align:start;writing-mode:tb-rl;text-anchor:start;fill:#000000;fill-opacity:1;stroke:none;stroke-width:0.18483275;stroke-miterlimit:4;stroke-dasharray:none;stroke-opacity:1"
         id="path5627"
         inkscape:connector-curvature="0" />
      <path
         d="m -173.82679,410.96588 c 0,0.19039 0.15232,0.3427 0.34271,0.3427 h 5.73073 c 0.19039,0 0.3427,-0.15231 0.3427,-0.3427 v -0.26655 c 0,-0.19039 -0.15231,-0.3427 -0.3427,-0.3427 h -3.14143 l 3.2747,-1.32321 c 0.10471,-0.0381 0.20943,-0.19039 0.20943,-0.31414 v -0.22847 c 0,-0.18087 -0.15231,-0.3427 -0.3427,-0.3427 h -5.73073 c -0.19039,0 -0.34271,0.16183 -0.34271,0.3427 v 0.27607 c 0,0.18087 0.15232,0.3427 0.34271,0.3427 h 3.14143 l -3.27471,1.32321 c -0.10471,0.0381 -0.20943,0.19991 -0.20943,0.31414 z"
         style="font-style:normal;font-variant:normal;font-weight:900;font-stretch:normal;font-size:9.51948643px;line-height:0;font-family:'Ostrich Sans';-inkscape-font-specification:'Ostrich Sans Heavy';text-align:start;writing-mode:tb-rl;text-anchor:start;fill:#000000;fill-opacity:1;stroke:none;stroke-width:0.18483275;stroke-miterlimit:4;stroke-dasharray:none;stroke-opacity:1"
         id="path5629"
         inkscape:connector-curvature="0" />
      <path
         d="m -167.75335,412.97449 c 0.19039,0 0.3427,-0.16183 0.3427,-0.3427 v -0.26655 c 0,-0.19038 -0.15231,-0.3427 -0.3427,-0.3427 h -5.73073 c -0.19039,0 -0.34271,0.15232 -0.34271,0.3427 v 0.26655 c 0,0.18087 0.15232,0.3427 0.34271,0.3427 z"
         style="font-style:normal;font-variant:normal;font-weight:900;font-stretch:normal;font-size:9.51948643px;line-height:0;font-family:'Ostrich Sans';-inkscape-font-specification:'Ostrich Sans Heavy';text-align:start;writing-mode:tb-rl;text-anchor:start;fill:#000000;fill-opacity:1;stroke:none;stroke-width:0.18483275;stroke-miterlimit:4;stroke-dasharray:none;stroke-opacity:1"
         id="path5631"
         inkscape:connector-curvature="0" />
      <path
         d="m -172.08472,413.52662 c -1.14234,0 -1.74207,0.49501 -1.74207,1.48504 0,0.99003 0.59973,1.466 1.74207,1.466 h 4.33137 c 0.19039,0 0.3427,-0.15231 0.3427,-0.33318 v -0.26655 c 0,-0.19038 -0.15231,-0.3427 -0.3427,-0.3427 h -4.33137 c -0.55213,0 -0.79964,-0.18087 -0.79964,-0.52357 0,-0.12375 0.01,-0.25702 0.0952,-0.3427 0.11423,-0.11423 0.31414,-0.19039 0.70444,-0.19039 h 0.13327 c 0.18087,0 0.33319,-0.16183 0.33319,-0.3427 v -0.26655 c 0,-0.19039 -0.15232,-0.3427 -0.33319,-0.3427 z"
         style="font-style:normal;font-variant:normal;font-weight:900;font-stretch:normal;font-size:9.51948643px;line-height:0;font-family:'Ostrich Sans';-inkscape-font-specification:'Ostrich Sans Heavy';text-align:start;writing-mode:tb-rl;text-anchor:start;fill:#000000;fill-opacity:1;stroke:none;stroke-width:0.18483275;stroke-miterlimit:4;stroke-dasharray:none;stroke-opacity:1"
         id="path5633"
         inkscape:connector-curvature="0" />
      <path
         d="m -173.56024,419.7714 c -0.14279,0.0381 -0.26655,0.19039 -0.26655,0.33319 v 0.27606 c 0,0.22847 0.19991,0.38078 0.41886,0.33318 l 5.73073,-1.31369 c 0.14279,-0.0285 0.26655,-0.19039 0.26655,-0.33318 v -0.20943 c 0,-0.14279 -0.12376,-0.2951 -0.26655,-0.33318 l -3.72212,-0.86627 -2.01813,-0.45694 c -0.21895,-0.0476 -0.40934,0.10472 -0.40934,0.33319 v 0.27606 c 0,0.14279 0.12376,0.2951 0.26655,0.33318 l 1.48504,0.33318 v 0.97099 z m 3.95059,-0.80915 c -0.80916,0.18087 -1.06619,0.16183 -1.52312,0.26654 v -0.53309 z"
         style="font-style:normal;font-variant:normal;font-weight:900;font-stretch:normal;font-size:9.51948643px;line-height:0;font-family:'Ostrich Sans';-inkscape-font-specification:'Ostrich Sans Heavy';text-align:start;writing-mode:tb-rl;text-anchor:start;fill:#000000;fill-opacity:1;stroke:none;stroke-width:0.18483275;stroke-miterlimit:4;stroke-dasharray:none;stroke-opacity:1"
         id="path5635"
         inkscape:connector-curvature="0" />
    </g>
    <rect
       style="opacity:1;fill:none;fill-opacity:1;stroke:#000000;stroke-width:5.41046476;stroke-linecap:butt;stroke-linejoin:round;stroke-miterlimit:4;stroke-dasharray:none;stroke-dashoffset:15.55857372;stroke-opacity:1;paint-order:markers fill stroke"
       id="rect5622"
       width="164.27209"
       height="164.27209"
       x="248.66464"
       y="87.232056"
       rx="9.8563242"
       ry="9.8563242" />
  </g>
</svg>
