<?xml version="1.0" encoding="UTF-8" standalone="no"?>
<svg
   xmlns:dc="http://purl.org/dc/elements/1.1/"
   xmlns:cc="http://creativecommons.org/ns#"
   xmlns:rdf="http://www.w3.org/1999/02/22-rdf-syntax-ns#"
   xmlns:svg="http://www.w3.org/2000/svg"
   xmlns="http://www.w3.org/2000/svg"
   xmlns:sodipodi="http://sodipodi.sourceforge.net/DTD/sodipodi-0.dtd"
   xmlns:inkscape="http://www.inkscape.org/namespaces/inkscape"
   width="256px"
   height="271px"
   viewBox="0 0 256 271"
   version="1.1"
   preserveAspectRatio="xMidYMid"
   id="svg44"
   sodipodi:docname="logo.svg"
   inkscape:version="0.92.1 r15371">
  <metadata
     id="metadata50">
    <rdf:RDF>
      <cc:Work
         rdf:about="">
        <dc:format>image/svg+xml</dc:format>
        <dc:type
           rdf:resource="http://purl.org/dc/dcmitype/StillImage" />
      </cc:Work>
    </rdf:RDF>
  </metadata>
  <defs
     id="defs48" />
  <sodipodi:namedview
     pagecolor="#ffffff"
     bordercolor="#666666"
     borderopacity="1"
     objecttolerance="10"
     gridtolerance="10"
     guidetolerance="10"
     inkscape:pageopacity="0"
     inkscape:pageshadow="2"
     inkscape:window-width="1908"
     inkscape:window-height="1083"
     id="namedview46"
     showgrid="false"
     inkscape:zoom="0.87084871"
     inkscape:cx="-68.934322"
     inkscape:cy="135.5"
     inkscape:window-x="6"
     inkscape:window-y="46"
     inkscape:window-maximized="1"
     inkscape:current-layer="svg44" />
  <g
     id="g42"
     style="fill:#000000">
    <path
       d="m 23.221424,60.228651 c 7.870417,2.030092 39.193576,11.491661 58.000884,17.235053 18.807312,5.736077 32.883832,9.448767 43.820722,12.496954 11.02834,3.15853 10.20533,11.778802 1.57896,11.034432 -8.62027,-0.8352 -18.8134,-5.468445 -29.000441,-9.461568 C 87.422319,87.656839 55.361498,78.292201 38.864715,72.73292 22.477667,67.263864 18.484543,67.263864 16.180114,64.11265 c -2.322717,-3.054893 -0.835202,-5.93238 7.04131,-3.883999"
       id="path2"
       inkscape:connector-curvature="0"
       style="fill:#000000" />
    <path
       d="m 140.79423,94.693271 c 7.03521,-0.743757 7.77897,6.297549 6.2061,10.193129 -1.57286,3.88949 -9.35183,5.46235 -10.9247,1.57897 -2.41416,-5.47455 -2.41416,-10.942992 4.7186,-11.772099"
       id="path4"
       inkscape:connector-curvature="0"
       style="fill:#000000" />
    <path
       d="m 233.17438,38.262813 c -4.63934,3.987027 -18.80731,12.607297 -28.91509,19.649217 -10.18704,7.0407 -29.00044,19.550455 -34.56033,22.696183 -5.45626,3.145728 -12.49757,7.047406 -17.22835,10.924699 -4.63934,3.993124 -3.06038,11.034438 3.98703,8.626978 7.02911,-2.316623 14.08262,-6.206109 18.80121,-10.9436 4.63324,-4.718592 9.35793,-7.869806 14.08262,-10.924698 4.73078,-3.145728 40.77253,-29.829549 47.81384,-34.56643 7.04741,-7.778971 0.74376,-9.357322 -3.98093,-5.462349"
       id="path6"
       inkscape:connector-curvature="0"
       style="fill:#000000" />
    <path
       d="m 251.24891,25.013567 c 3.88339,0 5.45625,8.62027 1.57286,10.930795 -3.88949,2.316622 -9.45547,2.316622 -9.45547,-5.462349 0,-7.882609 3.98702,-5.468446 7.88261,-5.468446"
       id="path8"
       inkscape:connector-curvature="0"
       style="fill:#000000" />
    <path
       d="m 248.93046,41.40976 c 3.06037,0 4.62714,6.309745 3.89558,11.028337 -0.83521,4.633243 0.73156,35.212645 1.56677,46.14344 0.74375,11.028333 0.74375,15.759123 -0.83521,19.648603 -1.56677,3.88949 0,10.18704 0,20.38018 0,10.19923 -1.56677,23.44664 -2.31052,29.00653 -0.82911,5.46235 -1.57287,9.35184 -4.73688,8.61418 -3.14573,-0.82911 -3.14573,-4.73079 -3.14573,-11.03444 0,-6.20001 0,-39.18748 0.8413,-46.96645 0.72547,-7.87651 0.72547,-11.02833 0.72547,-17.24054 V 51.60899 c 0,-6.303648 0.84739,-10.19923 3.99922,-10.19923"
       id="path10"
       inkscape:connector-curvature="0"
       style="fill:#000000" />
    <path
       d="m 246.5102,182.43896 c 4.73688,-0.74985 6.31584,7.87042 3.90777,10.18704 -2.32881,2.41417 -7.80336,1.57896 -9.37012,-2.31662 -1.57287,-3.88949 0.74375,-7.03521 5.46235,-7.87042"
       id="path12"
       inkscape:connector-curvature="0"
       style="fill:#000000" />
    <path
       d="M 6.5307767,53.182464 C 10.804334,52.530152 12.18821,60.22987 8.6706033,62.997623 5.1529966,65.881207 0.23932071,63.74138 0.97698173,59.486113 1.6171008,55.310098 2.3669546,53.926221 6.5307767,53.182464"
       id="path14"
       inkscape:connector-curvature="0"
       style="fill:#000000" />
    <path
       d="m 16.452622,46.880644 c 9.827352,-4.913676 30.207524,-17.606322 35.115104,-18.990199 4.913675,-1.389973 13.991173,-7.04131 17.520973,-9.821255 3.505414,-2.786042 14.716642,-9.1750403 16.850372,-10.5650132 2.139827,-1.3899728 11.94889,0 3.523703,5.6513372 C 81.019299,18.812947 69.088699,25.756715 60.65132,30.670391 52.213941,35.669416 28.30397,48.270617 23.39639,50.404347 18.482714,52.531981 6.5338249,51.79432 16.452622,46.880644"
       id="path16"
       inkscape:connector-curvature="0"
       style="fill:#000000" />
    <path
       d="m 100.02779,0.46408633 c 1.40216,-0.64621545 5.64524,2.87139127 3.51151,5.65133697 -2.10935,2.7738493 -4.907582,4.9075797 -7.778973,0 -2.773849,-4.913676 2.871391,-4.913676 4.267463,-5.65133697"
       id="path18"
       inkscape:connector-curvature="0"
       style="fill:#000000" />
    <path
       d="m 114.10736,1.202357 c 9.08969,0 31.5914,3.5182163 38.6388,5.6574333 6.95597,2.0300919 21.04468,4.1644317 23.81853,4.9075797 2.8653,0.646215 12.68655,0.646215 14.81418,1.389973 2.04839,0.640119 8.43129,3.518216 21.03249,4.914285 12.69874,1.383877 20.37407,2.779946 23.91607,4.163822 3.5237,1.486905 1.39607,9.912092 -4.27356,8.430673 -5.5538,-1.389973 -28.71391,-4.169918 -34.37135,-4.90697 -5.65743,-0.652311 -16.86256,-4.907579 -23.16011,-5.559891 -6.4012,-0.743757 -22.52,-4.26746 -35.86496,-5.658043 -13.33886,-1.383876 -22.50781,-4.163822 -26.03761,-4.9075794 -3.5176,-0.7437574 -7.68142,-8.4312826 1.48752,-8.4312826"
       id="path20"
       inkscape:connector-curvature="0"
       style="fill:#000000" />
    <path
       d="m 4.5006848,76.347459 c 0,-4.913676 7.6875252,-7.047406 8.4312822,-0.652312 0.646216,6.303649 1.383877,16.862565 2.036189,25.293853 0.743757,8.43737 1.481418,16.131 2.127633,21.77624 0.743758,5.55989 4.261365,19.64251 4.925869,23.90997 0.725468,4.15772 1.37778,12.5951 1.37778,17.50878 0,4.91367 1.481419,11.96108 0.743758,15.47869 -0.743758,3.51151 -4.261364,12.5951 -6.303649,2.12153 -2.127634,-10.55891 -0.743758,-23.89778 -2.127634,-27.42148 -1.396069,-3.5298 -4.26746,-11.21732 -4.26746,-16.86256 0,-5.65744 -2.7738497,-20.38017 -3.4322579,-23.90388 C 7.2806305,110.07259 4.5006848,81.255038 4.5006848,76.347459"
       id="path22"
       inkscape:connector-curvature="0"
       style="fill:#000000" />
    <path
       d="m 19.881832,195.13466 c 0.743757,-2.87688 6.395094,-4.91368 8.425186,-1.39607 2.139826,3.5298 1.481418,9.08359 -3.426161,9.82735 -4.999025,0.65231 -5.651337,-5.65682 -4.999025,-8.43128"
       id="path24"
       inkscape:connector-curvature="0"
       style="fill:#000000" />
    <path
       d="m 31.178409,185.96023 c 6.309745,-6.29755 24.556187,-16.11881 35.127296,-25.29995 10.558916,-9.08359 29.451574,-21.77624 32.975277,-25.28775 3.517608,-3.5298 12.698748,-0.65841 4.913678,5.64524 -7.681431,6.30365 -25.940066,19.64251 -33.731229,25.95226 -7.681429,6.389 -28.720009,20.38017 -32.975277,24.63544 -4.169918,4.17601 -12.607297,0.65231 -6.309745,-5.64524"
       id="path26"
       inkscape:connector-curvature="0"
       style="fill:#000000" />
    <path
       d="m 113.36604,123.41572 c 2.78604,0.74376 2.78604,6.39509 0,7.78446 -2.77995,1.38448 -7.69362,0.64072 -7.03521,-3.52371 0.73766,-4.26075 4.25526,-4.90758 7.03521,-4.26075"
       id="path28"
       inkscape:connector-curvature="0"
       style="fill:#000000" />
    <path
       d="m 41.010638,202.17719 c 9.815159,2.77994 31.585304,16.86256 38.63271,19.63641 7.04131,2.78604 20.386272,9.82126 26.683822,13.34496 6.29755,3.51761 21.77014,10.56501 26.0376,12.6012 4.15773,2.13373 7.68753,2.87139 9.81516,5.00512 2.13373,2.0301 -0.73156,9.82126 -6.30365,6.94987 -5.64524,-2.77995 -27.42148,-13.99118 -30.93908,-16.12491 -3.50542,-2.13373 -16.86257,-9.16894 -21.13003,-11.95498 -4.163822,-2.77995 -9.815159,-3.51761 -15.37505,-6.30365 -5.651337,-2.76775 -25.293848,-13.33277 -31.688942,-16.85647 -6.291456,-3.51761 -5.565988,-9.17504 4.26746,-6.29755"
       id="path30"
       inkscape:connector-curvature="0"
       style="fill:#000000" />
    <path
       d="m 137.91857,116.46829 c -0.64622,6.94987 0.74376,20.29483 1.48751,23.81853 0.64622,3.50541 3.43226,18.24034 2.77385,28.81145 -0.73156,10.56563 0,23.90388 1.39607,30.93909 1.37778,7.04741 2.12154,25.29385 2.12154,30.21362 0,4.90758 1.38997,11.20513 2.13373,12.6012 0.64621,1.48142 4.91977,7.77897 5.55989,-1.39607 0.75595,-9.08298 0,-27.33003 0.75595,-32.98137 0.65231,-5.65134 -0.75595,-18.9902 -2.13983,-35.86496 -1.38997,-16.86866 -2.12153,-30.84764 -2.12153,-35.109 0,-4.16992 1.37778,-14.73493 -1.40827,-18.98959 -2.12763,-7.04802 -9.81515,-9.08421 -10.55891,-2.0429"
       id="path32"
       inkscape:connector-curvature="0"
       style="fill:#000000" />
    <path
       d="m 151.26353,255.54178 c 2.12763,-0.74376 9.18723,4.91429 6.38899,11.21123 -2.8531,6.31035 -7.02911,3.5237 -9.82125,-1.38388 -2.87749,-4.91306 1.38997,-9.17504 3.43226,-9.82735"
       id="path34"
       inkscape:connector-curvature="0"
       style="fill:#000000" />
    <path
       d="m 166.09051,248.49559 c 9.0775,-10.55891 11.22342,-7.68752 16.131,-11.94279 4.90758,-4.18211 24.544,-19.64861 31.5914,-25.94616 7.02912,-6.389 12.68655,-9.9127 16.84428,-13.33886 4.27356,-3.5298 10.5894,1.67041 4.27356,5.55379 -6.30365,3.88949 -20.37408,17.69168 -26.03761,25.29385 -5.55379,7.60218 -10.56501,5.64524 -16.86866,11.95499 -6.27926,6.29755 -9.80297,11.21123 -13.33886,12.69874 -3.51761,1.38997 -6.29146,3.42616 -9.0836,5.5477 -2.87139,2.13373 -12.68655,0.74985 -3.51151,-9.82126"
       id="path36"
       inkscape:connector-curvature="0"
       style="fill:#000000" />
    <path
       d="m 125.96115,128.32452 c 4.26745,1.48751 21.86768,7.78506 33.74341,13.4364 11.95499,5.55989 40.75425,17.50878 46.41778,21.03858 5.63914,3.51151 28.0677,11.9428 30.93909,14.07652 2.79214,2.03619 3.43835,12.6073 -2.87139,9.82736 -6.30365,-2.8714 -23.90388,-12.69875 -35.10291,-17.60633 C 187.8698,164.18338 170.26348,155.746 161.82,153.61836 c -8.42518,-2.04228 -24.55009,-11.85744 -28.79926,-14.73493 -4.16992,-2.77385 -9.08969,-2.77385 -11.21122,-6.29755 -2.14593,-3.51761 0,-5.64524 4.15163,-4.26136"
       id="path38"
       inkscape:connector-curvature="0"
       style="fill:#000000" />
    <path
       d="m 104.93598,18.809899 c 1.39607,8.431282 2.77994,17.508781 2.77994,24.55009 0,7.04131 1.38998,18.252538 2.13983,21.776241 0.73156,3.517607 2.12154,15.472593 1.37778,17.606323 -0.64622,2.036188 0,18.898757 0,23.166217 0,4.16382 1.38997,9.82125 -2.77995,9.82125 -4.26136,0 -4.91367,-3.52919 -4.91367,-11.21732 0,-7.785069 -2.8592,-24.641538 -2.8592,-31.688944 0,-6.943768 -1.39607,-21.776242 -1.39607,-31.597497 0,-9.815159 -2.042285,-20.380172 -2.77385,-23.160118 -0.749854,-2.786042 7.02912,-7.687525 8.42519,0.743758"
       id="path40"
       inkscape:connector-curvature="0"
       style="fill:#000000" />
  </g>
</svg>
