<?xml version="1.0" encoding="UTF-8" standalone="no"?>
<!-- Created with Inkscape (http://www.inkscape.org/) -->

<svg
   xmlns:dc="http://purl.org/dc/elements/1.1/"
   xmlns:cc="http://creativecommons.org/ns#"
   xmlns:rdf="http://www.w3.org/1999/02/22-rdf-syntax-ns#"
   xmlns:svg="http://www.w3.org/2000/svg"
   xmlns="http://www.w3.org/2000/svg"
   xmlns:sodipodi="http://sodipodi.sourceforge.net/DTD/sodipodi-0.dtd"
   xmlns:inkscape="http://www.inkscape.org/namespaces/inkscape"
   width="426.27768"
   height="426.27768"
   viewBox="0 0 112.78597 112.78597"
   version="1.1"
   id="svg8"
   inkscape:version="0.92.1 r15371"
   sodipodi:docname="logo.svg">
  <title
     id="title4490">1920x1080</title>
  <defs
     id="defs2" />
  <sodipodi:namedview
     id="base"
     pagecolor="#636363"
     bordercolor="#666666"
     borderopacity="1.0"
     inkscape:pageopacity="0"
     inkscape:pageshadow="2"
     inkscape:zoom="0.9899495"
     inkscape:cx="-163.05396"
     inkscape:cy="177.06458"
     inkscape:document-units="px"
     inkscape:current-layer="g5358"
     showgrid="false"
     inkscape:showpageshadow="false"
     inkscape:pagecheckerboard="true"
     units="px"
     inkscape:window-width="1914"
     inkscape:window-height="1088"
     inkscape:window-x="6"
     inkscape:window-y="46"
     inkscape:window-maximized="1"
     showguides="true"
     inkscape:guide-bbox="true"
     guidecolor="#05157e"
     guideopacity="0.13333333"
     fit-margin-top="0"
     fit-margin-left="0"
     fit-margin-right="0"
     fit-margin-bottom="0">
    <sodipodi:guide
       position="-184.40746,-87.93256"
       orientation="1,0"
       id="guide4483"
       inkscape:locked="false"
       inkscape:label=""
       inkscape:color="rgb(4,102,16)" />
    <sodipodi:guide
       position="272.79254,-87.93256"
       orientation="1,0"
       id="guide4485"
       inkscape:locked="false"
       inkscape:label=""
       inkscape:color="rgb(3,73,12)" />
    <sodipodi:guide
       position="300.83838,-73.64506"
       orientation="0,1"
       id="guide4487"
       inkscape:locked="false"
       inkscape:label="1920x1080, HDTV 10% title safe"
       inkscape:color="rgb(3,73,12)" />
    <sodipodi:guide
       position="-209.80746,183.52994"
       orientation="0,1"
       id="guide4489"
       inkscape:locked="false"
       inkscape:label=""
       inkscape:color="rgb(3,73,12)" />
  </sodipodi:namedview>
  <metadata
     id="metadata5">
    <rdf:RDF>
      <cc:Work
         rdf:about="">
        <dc:format>image/svg+xml</dc:format>
        <dc:type
           rdf:resource="http://purl.org/dc/dcmitype/StillImage" />
        <dc:title>1920x1080</dc:title>
        <cc:license
           rdf:resource="http://artlibre.org/licence/lal" />
        <dc:publisher>
          <cc:Agent>
            <dc:title>brontosaurusrex</dc:title>
          </cc:Agent>
        </dc:publisher>
      </cc:Work>
      <cc:License
         rdf:about="http://artlibre.org/licence/lal">
        <cc:permits
           rdf:resource="http://creativecommons.org/ns#Reproduction" />
        <cc:permits
           rdf:resource="http://creativecommons.org/ns#Distribution" />
        <cc:permits
           rdf:resource="http://creativecommons.org/ns#DerivativeWorks" />
        <cc:requires
           rdf:resource="http://creativecommons.org/ns#ShareAlike" />
        <cc:requires
           rdf:resource="http://creativecommons.org/ns#Notice" />
        <cc:requires
           rdf:resource="http://creativecommons.org/ns#Attribution" />
      </cc:License>
    </rdf:RDF>
  </metadata>
  <g
     inkscape:label="Layer 1"
     inkscape:groupmode="layer"
     id="layer1"
     transform="translate(-209.80747,-96.281452)">
    <g
       id="g5358">
      <path
         style="color:#000000;font-style:normal;font-variant:normal;font-weight:normal;font-stretch:normal;font-size:medium;line-height:normal;font-family:sans-serif;font-variant-ligatures:normal;font-variant-position:normal;font-variant-caps:normal;font-variant-numeric:normal;font-variant-alternates:normal;font-feature-settings:normal;text-indent:0;text-align:start;text-decoration:none;text-decoration-line:none;text-decoration-style:solid;text-decoration-color:#000000;letter-spacing:normal;word-spacing:normal;text-transform:none;writing-mode:lr-tb;direction:ltr;text-orientation:mixed;dominant-baseline:auto;baseline-shift:baseline;text-anchor:start;white-space:normal;shape-padding:0;clip-rule:nonzero;display:inline;overflow:visible;visibility:visible;opacity:1;isolation:auto;mix-blend-mode:normal;color-interpolation:sRGB;color-interpolation-filters:linearRGB;solid-color:#000000;solid-opacity:1;vector-effect:none;fill:#1a1a1a;fill-opacity:1;fill-rule:nonzero;stroke:none;stroke-width:2.31060624;stroke-linecap:butt;stroke-linejoin:round;stroke-miterlimit:4;stroke-dasharray:none;stroke-dashoffset:4.11653948;stroke-opacity:1;paint-order:markers fill stroke;color-rendering:auto;image-rendering:auto;shape-rendering:auto;text-rendering:auto;enable-background:accumulate"
         d="m 215.39062,96.849609 c -2.75792,0 -5.01367,2.257697 -5.01367,5.015621 v 101.61915 c 0,2.75792 2.25575,5.01367 5.01367,5.01367 h 101.61915 c 2.75792,0 5.01562,-2.25575 5.01562,-5.01367 V 101.86523 c 0,-2.757924 -2.2577,-5.015621 -5.01562,-5.015621 z m 0,2.310547 h 101.61915 c 1.51781,0 2.70507,1.187264 2.70507,2.705074 v 101.61915 c 0,1.51781 -1.18726,2.70312 -2.70507,2.70312 H 215.39062 c -1.51781,0 -2.70312,-1.18531 -2.70312,-2.70312 V 101.86523 c 0,-1.51781 1.18531,-2.705074 2.70312,-2.705074 z"
         id="rect4995-1-6"
         inkscape:connector-curvature="0" />
      <g
         aria-label="SKU2"
         transform="scale(0.99820164,1.0018016)"
         style="font-style:normal;font-weight:normal;font-size:15.32222652px;line-height:1.25;font-family:sans-serif;letter-spacing:0px;word-spacing:0px;fill:#1a1a1a;fill-opacity:1;stroke:none;stroke-width:0.38305563"
         id="text4489-0-3-5-9-4">
        <path
           d="m 219.06316,143.14651 c 0,9.63462 4.04506,14.3416 12.1352,14.3416 7.79595,0 12.1352,-4.4128 12.1352,-12.65003 0,-7.13403 -4.92762,-10.88491 -9.78171,-14.63579 h 0.0736 c -3.60379,-2.79477 -7.20758,-5.66309 -7.20758,-9.41398 0,-3.82442 1.69158,-5.516 4.78054,-5.516 3.23605,0 4.78053,2.2064 4.78053,7.06049 v 1.02965 c 0,1.47093 1.17675,2.64768 2.64769,2.64768 h 2.0593 c 1.47094,0 2.64768,-1.17675 2.64768,-2.64768 v -1.02965 c 0,-9.34043 -4.19216,-14.41516 -12.1352,-14.41516 -7.79595,0 -12.1352,4.78054 -12.1352,13.09131 0,7.28113 5.07472,11.25265 9.9288,15.07708 v -0.0735 c 3.60379,2.79477 6.98693,5.516 6.98693,8.9727 0,3.89797 -1.69157,5.22181 -4.78053,5.22181 -1.02965,0 -2.27995,-0.14709 -3.08896,-0.95611 -1.02966,-0.88256 -1.69158,-2.57413 -1.69158,-6.10437 v -0.95611 c 0,-1.47093 -1.25029,-2.64768 -2.64768,-2.64768 h -2.0593 c -1.47094,0 -2.64768,1.17675 -2.64768,2.64768 z"
           style="font-style:normal;font-variant:normal;font-weight:900;font-stretch:normal;font-size:73.54669189px;font-family:'Ostrich Sans';-inkscape-font-specification:'Ostrich Sans Heavy';letter-spacing:0px;word-spacing:0px;stroke-width:0.38305563;fill:#1a1a1a"
           id="path5388" />
        <path
           d="m 255.64804,126.52496 v -15.88609 c 0,-1.47093 -1.17675,-2.64768 -2.64768,-2.64768 h -2.05931 c -1.47093,0 -2.64768,1.17675 -2.64768,2.64768 v 44.27511 c 0,1.47093 1.17675,2.64768 2.64768,2.64768 h 2.05931 c 1.47093,0 2.64768,-1.17675 2.64768,-2.64768 v -14.56225 l 0.88256,-1.32384 9.85526,17.20993 c 0.36773,0.66192 1.54448,1.32384 2.27994,1.32384 h 2.3535 c 2.2064,0 3.38314,-2.05931 2.35349,-3.97152 l -12.35584,-21.76982 12.28229,-19.78406 c 1.17675,-1.91222 0,-4.04507 -2.27994,-4.04507 h -2.50059 c -0.73547,0 -1.83867,0.66192 -2.2064,1.25029 z"
           style="font-style:normal;font-variant:normal;font-weight:900;font-stretch:normal;font-size:73.54669189px;font-family:'Ostrich Sans';-inkscape-font-specification:'Ostrich Sans Heavy';letter-spacing:0px;word-spacing:0px;stroke-width:0.38305563;fill:#1a1a1a"
           id="path5390" />
        <path
           d="m 276.43762,144.02907 c 0,7.79595 3.23605,13.45904 12.06166,13.45904 8.53141,0 12.06165,-5.22181 12.06165,-13.45904 v -33.46375 c 0,-1.47093 -1.17674,-2.64768 -2.64768,-2.64768 h -2.0593 c -1.39739,0 -2.57414,1.17675 -2.57414,2.64768 v 33.46375 c 0,3.53024 -1.02965,6.17792 -4.78053,6.17792 -3.60379,0 -4.78054,-2.27995 -4.78054,-6.17792 v -33.46375 c 0,-1.47093 -1.17675,-2.64768 -2.64768,-2.64768 h -2.05931 c -1.39738,0 -2.57413,1.17675 -2.57413,2.64768 z"
           style="font-style:normal;font-variant:normal;font-weight:900;font-stretch:normal;font-family:'Ostrich Sans';-inkscape-font-specification:'Ostrich Sans Heavy';letter-spacing:-3.52567434px;stroke-width:0.38305563;fill:#1a1a1a"
           id="path5392" />
        <path
           d="m 307.23641,124.50242 c 0.25742,-2.50058 1.13998,-4.19216 2.9051,-5.73664 2.79477,-2.50059 4.15539,-5.40568 4.15539,-8.78883 0,-3.78765 -1.94899,-6.6192 -5.40568,-6.6192 -3.64057,0 -5.44246,2.46381 -5.44246,6.72952 v 0.22064 c 0,0.6987 0.58837,1.28707 1.32384,1.28707 h 1.06643 c 0.69869,0 1.28706,-0.58837 1.28706,-1.28707 v -0.22064 c 0,-2.13285 0.58838,-3.08896 1.76513,-3.08896 1.1032,0 1.72834,1.17675 1.72834,2.97864 0,2.16963 -1.06642,4.26571 -2.94186,6.03083 -1.54449,1.43416 -2.72123,3.08896 -3.38315,4.89086 l 0.0368,-0.0368 c -0.58837,1.58126 -0.88256,3.34638 -0.88256,5.44246 v 0.51482 c 0,0.73547 0.58837,1.32384 1.32384,1.32384 h 8.20046 c 0.73546,0 1.32384,-0.58837 1.32384,-1.32384 v -0.99288 c 0,-0.73546 -0.58838,-1.32384 -1.32384,-1.32384 z"
           style="font-style:normal;font-variant:normal;font-weight:900;font-stretch:normal;font-size:36.77334595px;font-family:'Ostrich Sans';-inkscape-font-specification:'Ostrich Sans Heavy';letter-spacing:-2.75091577px;word-spacing:0px;baseline-shift:super;stroke-width:0.38305563;fill:#1a1a1a"
           id="path5394" />
      </g>
      <path
         id="path4526"
         style="font-style:normal;font-variant:normal;font-weight:900;font-stretch:normal;font-size:6.57370329px;line-height:0;font-family:'Ostrich Sans';-inkscape-font-specification:'Ostrich Sans Heavy';text-align:start;letter-spacing:0px;word-spacing:0px;writing-mode:tb-rl;text-anchor:start;fill:#1a1a1a;fill-opacity:1;stroke:none;stroke-width:0.18474005"
         d="m 218.84524,168.24155 c 0,1.24706 0.52357,1.85632 1.57072,1.85632 1.00906,0 1.57071,-0.57118 1.57071,-1.63736 0,-0.92339 -0.6378,-1.40889 -1.26609,-1.89438 h 0.01 c -0.46645,-0.36174 -0.93291,-0.733 -0.93291,-1.21849 0,-0.49501 0.21895,-0.71397 0.61877,-0.71397 0.41885,0 0.61876,0.28559 0.61876,0.91388 v 0.13323 c 0,0.19038 0.15232,0.3427 0.3427,0.3427 h 0.26655 c 0.19039,0 0.3427,-0.15232 0.3427,-0.3427 v -0.13323 c 0,-1.20897 -0.54261,-1.86582 -1.57071,-1.86582 -1.00907,0 -1.57072,0.61876 -1.57072,1.69447 0,0.94243 0.65685,1.45648 1.28513,1.95149 v -0.0101 c 0.46646,0.36176 0.90435,0.71397 0.90435,1.16139 0,0.50452 -0.21894,0.67588 -0.61876,0.67588 -0.13327,0 -0.29511,-0.019 -0.39982,-0.12381 -0.13327,-0.11426 -0.21895,-0.33319 -0.21895,-0.79013 v -0.12381 c 0,-0.1904 -0.16183,-0.34271 -0.3427,-0.34271 h -0.26655 c -0.19039,0 -0.3427,0.15231 -0.3427,0.34271 z"
         inkscape:connector-curvature="0" />
      <path
         id="path4528"
         style="font-style:normal;font-variant:normal;font-weight:900;font-stretch:normal;font-size:6.57370329px;line-height:0;font-family:'Ostrich Sans';-inkscape-font-specification:'Ostrich Sans Heavy';text-align:start;letter-spacing:0px;word-spacing:0px;writing-mode:tb-rl;text-anchor:start;fill:#1a1a1a;fill-opacity:1;stroke:none;stroke-width:0.18474005"
         d="m 223.54787,164.03395 c 0,-0.1904 -0.16183,-0.34271 -0.3427,-0.34271 h -0.26655 c -0.19039,0 -0.3427,0.15231 -0.3427,0.34271 v 5.73073 c 0,0.19039 0.15231,0.3427 0.3427,0.3427 h 0.26655 c 0.18087,0 0.3427,-0.15231 0.3427,-0.3427 z"
         inkscape:connector-curvature="0" />
      <path
         id="path4530"
         style="font-style:normal;font-variant:normal;font-weight:900;font-stretch:normal;font-size:6.57370329px;line-height:0;font-family:'Ostrich Sans';-inkscape-font-specification:'Ostrich Sans Heavy';text-align:start;letter-spacing:0px;word-spacing:0px;writing-mode:tb-rl;text-anchor:start;fill:#1a1a1a;fill-opacity:1;stroke:none;stroke-width:0.18474005"
         d="m 227.00344,170.10738 c 0.19039,0 0.3427,-0.15231 0.3427,-0.3427 v -5.73073 c 0,-0.1904 -0.15231,-0.34271 -0.3427,-0.34271 h -0.26655 c -0.19039,0 -0.3427,0.15231 -0.3427,0.34271 v 3.14143 l -1.32321,-3.2747 c -0.0381,-0.1047 -0.19039,-0.20944 -0.31414,-0.20944 h -0.22847 c -0.18087,0 -0.3427,0.15231 -0.3427,0.34271 v 5.73073 c 0,0.19039 0.16183,0.3427 0.3427,0.3427 h 0.27607 c 0.18087,0 0.3427,-0.15231 0.3427,-0.3427 v -3.14144 l 1.32321,3.27471 c 0.0381,0.1047 0.19991,0.20943 0.31414,0.20943 z"
         inkscape:connector-curvature="0" />
      <path
         id="path4532"
         style="font-style:normal;font-variant:normal;font-weight:900;font-stretch:normal;font-size:6.57370329px;line-height:0;font-family:'Ostrich Sans';-inkscape-font-specification:'Ostrich Sans Heavy';text-align:start;letter-spacing:0px;word-spacing:0px;writing-mode:tb-rl;text-anchor:start;fill:#1a1a1a;fill-opacity:1;stroke:none;stroke-width:0.18474005"
         d="m 229.43091,170.10738 c 1.14234,0 1.67543,-0.64732 1.67543,-1.88485 v -2.64642 c 0,-1.23753 -0.53309,-1.88487 -1.67543,-1.88487 h -0.97099 c -0.19039,0 -0.3427,0.15231 -0.3427,0.34271 v 5.73073 c 0,0.19039 0.15231,0.3427 0.3427,0.3427 z m 0,-5.47371 c 0.50453,0 0.71396,0.30463 0.71396,0.94244 v 2.64642 c 0,0.63779 -0.20943,0.94242 -0.71396,0.94242 h -0.37126 v -4.53128 z"
         inkscape:connector-curvature="0" />
      <path
         id="path4534"
         style="font-style:normal;font-variant:normal;font-weight:900;font-stretch:normal;font-size:6.57370329px;line-height:0;font-family:'Ostrich Sans';-inkscape-font-specification:'Ostrich Sans Heavy';text-align:start;letter-spacing:0px;word-spacing:0px;writing-mode:tb-rl;text-anchor:start;fill:#1a1a1a;fill-opacity:1;stroke:none;stroke-width:0.18474005"
         d="m 232.80081,164.03395 c 0,-0.1904 -0.16183,-0.34271 -0.3427,-0.34271 h -0.26655 c -0.19039,0 -0.3427,0.15231 -0.3427,0.34271 v 5.73073 c 0,0.19039 0.15231,0.3427 0.3427,0.3427 h 0.26655 c 0.18087,0 0.3427,-0.15231 0.3427,-0.3427 z"
         inkscape:connector-curvature="0" />
      <path
         id="path4536"
         style="font-style:normal;font-weight:normal;font-size:5.1029067px;line-height:1.25;font-family:sans-serif;letter-spacing:-0.28839585px;word-spacing:0px;fill:#1a1a1a;fill-opacity:1;stroke:none;stroke-width:0.18474005"
         d="m 234.39056,166.09016 v -2.05621 c 0,-0.1904 -0.15231,-0.34271 -0.3427,-0.34271 h -0.26655 c -0.19039,0 -0.3427,0.15231 -0.3427,0.34271 v 5.73073 c 0,0.19039 0.15231,0.3427 0.3427,0.3427 h 0.26655 c 0.19039,0 0.3427,-0.15231 0.3427,-0.3427 v -1.88486 l 0.11423,-0.17135 1.27561,2.22756 c 0.0476,0.0857 0.19991,0.17135 0.2951,0.17135 h 0.30463 c 0.28558,0 0.43789,-0.26654 0.30462,-0.51405 l -1.59927,-2.81778 1.58975,-2.56073 c 0.15231,-0.24751 0,-0.52358 -0.2951,-0.52358 h -0.32367 c -0.0952,0 -0.23798,0.0857 -0.28558,0.16184 z"
         inkscape:connector-curvature="0" />
      <path
         id="path4538"
         style="font-style:normal;font-weight:normal;font-size:5.1029067px;line-height:1.25;font-family:sans-serif;letter-spacing:-0.75141668px;word-spacing:0px;fill:#1a1a1a;fill-opacity:1;stroke:none;stroke-width:0.18474005"
         d="m 239.52279,169.84084 c 0.0381,0.14278 0.19039,0.26654 0.33318,0.26654 h 0.27607 c 0.22847,0 0.38078,-0.19991 0.33318,-0.41885 l -1.31369,-5.73073 c -0.0286,-0.14279 -0.19039,-0.26656 -0.33318,-0.26656 h -0.20943 c -0.1428,0 -0.2951,0.12381 -0.33318,0.26656 l -0.86627,3.72212 -0.45694,2.01812 c -0.0476,0.21896 0.10471,0.40934 0.33318,0.40934 h 0.27607 c 0.1428,0 0.2951,-0.12381 0.33318,-0.26654 l 0.33318,-1.48504 h 0.97099 z m -0.80915,-3.95059 c 0.18087,0.80915 0.16183,1.06618 0.26654,1.52311 h -0.53309 z"
         inkscape:connector-curvature="0" />
      <path
         id="path4540"
         style="font-style:normal;font-variant:normal;font-weight:900;font-stretch:normal;font-size:6.57370329px;line-height:0;font-family:'Ostrich Sans';-inkscape-font-specification:'Ostrich Sans Heavy';text-align:start;letter-spacing:0px;word-spacing:0px;writing-mode:tb-rl;text-anchor:start;fill:#1a1a1a;fill-opacity:1;stroke:none;stroke-width:0.18474005"
         d="m 240.01489,164.29098 c 0,0.19038 0.15231,0.34269 0.3427,0.34269 h 0.77108 v 5.12149 c 0,0.19039 0.15231,0.34271 0.3427,0.34271 h 0.25703 c 0.19038,0 0.3427,-0.15232 0.3427,-0.34271 v -5.12149 h 0.78059 c 0.19039,0 0.3427,-0.15231 0.3427,-0.34269 v -0.26656 c 0,-0.19038 -0.15231,-0.34269 -0.3427,-0.34269 h -2.4941 c -0.19039,0 -0.3427,0.15231 -0.3427,0.34269 z"
         inkscape:connector-curvature="0" />
      <path
         id="path4542"
         style="font-style:normal;font-weight:normal;font-size:5.1029067px;line-height:1.25;font-family:sans-serif;letter-spacing:-0.25135416px;word-spacing:0px;fill:#1a1a1a;fill-opacity:1;stroke:none;stroke-width:0.18474005"
         d="m 219.78767,175.32716 v -2.05621 c 0,-0.19038 -0.15231,-0.3427 -0.3427,-0.3427 h -0.26655 c -0.19039,0 -0.3427,0.15232 -0.3427,0.3427 v 5.73073 c 0,0.19039 0.15231,0.3427 0.3427,0.3427 h 0.26655 c 0.19039,0 0.3427,-0.15231 0.3427,-0.3427 v -1.88485 l 0.11423,-0.17136 1.27561,2.22757 c 0.0476,0.0857 0.19991,0.17134 0.2951,0.17134 h 0.30463 c 0.28558,0 0.43789,-0.26654 0.30462,-0.51406 l -1.59927,-2.81775 1.58975,-2.56075 c 0.15231,-0.24751 0,-0.52357 -0.2951,-0.52357 h -0.32367 c -0.0952,0 -0.23798,0.0857 -0.28558,0.16183 z"
         inkscape:connector-curvature="0" />
      <path
         id="path4544"
         style="font-style:normal;font-variant:normal;font-weight:900;font-stretch:normal;font-size:6.57370329px;line-height:0;font-family:'Ostrich Sans';-inkscape-font-specification:'Ostrich Sans Heavy';text-align:start;letter-spacing:0px;word-spacing:0px;writing-mode:tb-rl;text-anchor:start;fill:#1a1a1a;fill-opacity:1;stroke:none;stroke-width:0.18474005"
         d="m 222.3176,177.59279 c 0,1.00907 0.41886,1.74207 1.5612,1.74207 1.10426,0 1.56119,-0.67588 1.56119,-1.74207 v -4.33135 c 0,-0.1904 -0.15231,-0.34272 -0.3427,-0.34272 h -0.26654 c -0.18087,0 -0.33318,0.15232 -0.33318,0.34272 v 4.33135 c 0,0.45694 -0.13327,0.79964 -0.61877,0.79964 -0.46646,0 -0.61877,-0.2951 -0.61877,-0.79964 v -4.33135 c 0,-0.1904 -0.15231,-0.34272 -0.3427,-0.34272 h -0.26654 c -0.18088,0 -0.33319,0.15232 -0.33319,0.34272 z"
         inkscape:connector-curvature="0" />
      <path
         id="path4546"
         style="font-style:normal;font-weight:normal;font-size:5.1029067px;line-height:1.25;font-family:sans-serif;letter-spacing:-0.76993752px;word-spacing:-1.06097925px;fill:#1a1a1a;fill-opacity:1;stroke:none;stroke-width:0.18474005"
         d="m 228.92413,178.74466 c 0,-0.19039 -0.15232,-0.3427 -0.3427,-0.3427 h -1.41841 v -5.13101 c 0,-0.19038 -0.15231,-0.3427 -0.33318,-0.3427 h -0.27607 c -0.19039,0 -0.3427,0.15232 -0.3427,0.3427 v 5.73073 c 0,0.19039 0.15231,0.3427 0.3427,0.3427 h 2.02766 c 0.19038,0 0.3427,-0.15231 0.3427,-0.3427 z"
         inkscape:connector-curvature="0" />
      <path
         id="path4548"
         style="font-style:normal;font-weight:normal;font-size:5.1029067px;line-height:1.25;font-family:sans-serif;letter-spacing:-0.19843753px;word-spacing:0px;fill:#1a1a1a;fill-opacity:1;stroke:none;stroke-width:0.18474005"
         d="m 228.3137,173.52797 c 0,0.19039 0.15231,0.3427 0.3427,0.3427 h 0.77108 v 5.1215 c 0,0.19038 0.15231,0.34269 0.3427,0.34269 h 0.25703 c 0.19039,0 0.3427,-0.15231 0.3427,-0.34269 v -5.1215 h 0.7806 c 0.19039,0 0.3427,-0.15231 0.3427,-0.3427 v -0.26653 c 0,-0.1904 -0.15231,-0.34272 -0.3427,-0.34272 h -2.49411 c -0.19039,0 -0.3427,0.15232 -0.3427,0.34272 z"
         inkscape:connector-curvature="0" />
      <path
         id="path4550"
         style="font-style:normal;font-weight:normal;font-size:5.1029067px;line-height:1.25;font-family:sans-serif;letter-spacing:-0.22754169px;word-spacing:0px;fill:#1a1a1a;fill-opacity:1;stroke:none;stroke-width:0.18474005"
         d="m 231.8151,177.59279 c 0,1.00907 0.41885,1.74207 1.56119,1.74207 1.10426,0 1.5612,-0.67588 1.5612,-1.74207 v -4.33135 c 0,-0.1904 -0.15231,-0.34272 -0.3427,-0.34272 h -0.26655 c -0.18087,0 -0.33318,0.15232 -0.33318,0.34272 v 4.33135 c 0,0.45694 -0.13327,0.79964 -0.61877,0.79964 -0.46645,0 -0.61877,-0.2951 -0.61877,-0.79964 v -4.33135 c 0,-0.1904 -0.15231,-0.34272 -0.3427,-0.34272 h -0.26654 c -0.18087,0 -0.33318,0.15232 -0.33318,0.34272 z"
         inkscape:connector-curvature="0" />
      <path
         id="path4552"
         style="font-style:normal;font-variant:normal;font-weight:900;font-stretch:normal;font-size:6.57370329px;line-height:0;font-family:'Ostrich Sans';-inkscape-font-specification:'Ostrich Sans Heavy';text-align:start;letter-spacing:0px;word-spacing:0px;writing-mode:tb-rl;text-anchor:start;fill:#1a1a1a;fill-opacity:1;stroke:none;stroke-width:0.18474005"
         d="m 238.51097,177.40241 c 0,-0.49501 -0.13327,-0.88532 -0.40934,-1.18042 0.0286,-0.0285 0.0476,-0.0476 0.0762,-0.0762 0.2951,-0.29511 0.39982,-0.77107 0.39982,-1.36129 0,-1.27561 -0.40934,-1.86582 -1.58024,-1.86582 h -1.19945 c -0.19039,0 -0.3427,0.15231 -0.3427,0.34271 v 5.73073 c 0,0.19039 0.15231,0.3427 0.3427,0.3427 h 0.26654 c 0.18087,0 0.33318,-0.15231 0.33318,-0.3427 v -2.33228 h 0.42838 c 0.46646,0 0.733,0.26655 0.733,0.74253 v 1.58975 c 0,0.19039 0.15231,0.3427 0.3427,0.3427 h 0.26655 c 0.19039,0 0.3427,-0.15231 0.3427,-0.3427 z m -2.11333,-3.53174 h 0.59973 c 0.49501,0 0.63781,0.26656 0.63781,0.91388 0,0.64732 -0.27607,0.91386 -0.80916,0.91386 h -0.42838 z"
         inkscape:connector-curvature="0" />
      <path
         id="path4554"
         style="font-style:normal;font-variant:normal;font-weight:900;font-stretch:normal;font-size:6.57370329px;line-height:0;font-family:'Ostrich Sans';-inkscape-font-specification:'Ostrich Sans Heavy';text-align:start;letter-spacing:0px;word-spacing:0px;writing-mode:tb-rl;text-anchor:start;fill:#1a1a1a;fill-opacity:1;stroke:none;stroke-width:0.18474005"
         d="m 242.0427,179.34438 c 0.19039,0 0.3427,-0.15231 0.3427,-0.3427 v -5.73073 c 0,-0.19038 -0.15231,-0.3427 -0.3427,-0.3427 h -0.26655 c -0.19039,0 -0.3427,0.15232 -0.3427,0.3427 v 3.14143 l -1.32321,-3.2747 c -0.0381,-0.1047 -0.19039,-0.20943 -0.31414,-0.20943 h -0.22847 c -0.18087,0 -0.3427,0.15232 -0.3427,0.3427 v 5.73073 c 0,0.19039 0.16183,0.3427 0.3427,0.3427 h 0.27607 c 0.18087,0 0.3427,-0.15231 0.3427,-0.3427 v -3.14143 l 1.32321,3.2747 c 0.0381,0.1047 0.19991,0.20943 0.31414,0.20943 z"
         inkscape:connector-curvature="0" />
      <path
         id="path4556"
         style="font-style:normal;font-variant:normal;font-weight:900;font-stretch:normal;font-size:6.57370329px;line-height:0;font-family:'Ostrich Sans';-inkscape-font-specification:'Ostrich Sans Heavy';text-align:start;letter-spacing:0px;word-spacing:0px;writing-mode:tb-rl;text-anchor:start;fill:#1a1a1a;fill-opacity:1;stroke:none;stroke-width:0.18474005"
         d="m 244.05131,173.27095 c 0,-0.19038 -0.16183,-0.3427 -0.3427,-0.3427 h -0.26655 c -0.19039,0 -0.3427,0.15232 -0.3427,0.3427 v 5.73073 c 0,0.19039 0.15231,0.3427 0.3427,0.3427 h 0.26655 c 0.18087,0 0.3427,-0.15231 0.3427,-0.3427 z"
         inkscape:connector-curvature="0" />
      <path
         id="path4558"
         style="font-style:normal;font-variant:normal;font-weight:900;font-stretch:normal;font-size:6.57370329px;line-height:0;font-family:'Ostrich Sans';-inkscape-font-specification:'Ostrich Sans Heavy';text-align:start;letter-spacing:0px;word-spacing:0px;writing-mode:tb-rl;text-anchor:start;fill:#1a1a1a;fill-opacity:1;stroke:none;stroke-width:0.18474005"
         d="m 245.65058,175.66986 v -2.39891 c 0,-0.19038 -0.15231,-0.3427 -0.34269,-0.3427 h -0.26655 c -0.19039,0 -0.3427,0.15232 -0.3427,0.3427 v 5.73073 c 0,0.19039 0.15231,0.3427 0.3427,0.3427 h 0.26655 c 0.19038,0 0.34269,-0.15231 0.34269,-0.3427 v -2.38939 h 1.05667 v 2.38939 c 0,0.19039 0.15231,0.3427 0.3427,0.3427 h 0.26655 c 0.19039,0 0.3427,-0.15231 0.3427,-0.3427 v -5.73073 c 0,-0.19038 -0.15231,-0.3427 -0.3427,-0.3427 h -0.26655 c -0.19039,0 -0.3427,0.15232 -0.3427,0.3427 v 2.39891 z"
         inkscape:connector-curvature="0" />
      <path
         id="path4560"
         style="font-style:normal;font-variant:normal;font-weight:900;font-stretch:normal;font-size:6.57370329px;line-height:0;font-family:'Ostrich Sans';-inkscape-font-specification:'Ostrich Sans Heavy';text-align:start;letter-spacing:0px;word-spacing:0px;writing-mode:tb-rl;text-anchor:start;fill:#1a1a1a;fill-opacity:1;stroke:none;stroke-width:0.18474005"
         d="m 251.36227,173.27095 c 0,-0.19038 -0.16183,-0.3427 -0.34269,-0.3427 h -0.26655 c -0.19039,0 -0.3427,0.15232 -0.3427,0.3427 v 5.73073 c 0,0.19039 0.15231,0.3427 0.3427,0.3427 h 0.26655 c 0.18086,0 0.34269,-0.15231 0.34269,-0.3427 z"
         inkscape:connector-curvature="0" />
      <path
         id="path4562"
         style="font-style:normal;font-variant:normal;font-weight:900;font-stretch:normal;font-size:6.57370329px;line-height:0;font-family:'Ostrich Sans';-inkscape-font-specification:'Ostrich Sans Heavy';text-align:start;letter-spacing:0px;word-spacing:0px;writing-mode:tb-rl;text-anchor:start;fill:#1a1a1a;fill-opacity:1;stroke:none;stroke-width:0.18474005"
         d="m 254.81785,179.34438 c 0.19039,0 0.3427,-0.15231 0.3427,-0.3427 v -5.73073 c 0,-0.19038 -0.15231,-0.3427 -0.3427,-0.3427 h -0.26655 c -0.19039,0 -0.3427,0.15232 -0.3427,0.3427 v 3.14143 l -1.32321,-3.2747 c -0.0381,-0.1047 -0.19039,-0.20943 -0.31414,-0.20943 h -0.22847 c -0.18087,0 -0.3427,0.15232 -0.3427,0.3427 v 5.73073 c 0,0.19039 0.16183,0.3427 0.3427,0.3427 h 0.27607 c 0.18087,0 0.3427,-0.15231 0.3427,-0.3427 v -3.14143 l 1.32321,3.2747 c 0.0381,0.1047 0.19991,0.20943 0.31414,0.20943 z"
         inkscape:connector-curvature="0" />
      <path
         id="path4564"
         style="font-style:normal;font-weight:normal;font-size:5.1029067px;line-height:1.25;font-family:sans-serif;letter-spacing:-0.19050001px;word-spacing:0px;fill:#1a1a1a;fill-opacity:1;stroke:none;stroke-width:0.18474005"
         d="m 218.7786,186.8298 c 0,1.00907 0.41886,1.74206 1.5612,1.74206 1.10426,0 1.5612,-0.67588 1.5612,-1.74206 v -4.33137 c 0,-0.19038 -0.15232,-0.34269 -0.34271,-0.34269 h -0.26654 c -0.18087,0 -0.33318,0.15231 -0.33318,0.34269 v 4.33137 c 0,0.45693 -0.13327,0.79964 -0.61877,0.79964 -0.46645,0 -0.61877,-0.29511 -0.61877,-0.79964 v -4.33137 c 0,-0.19038 -0.15231,-0.34269 -0.3427,-0.34269 h -0.26654 c -0.18087,0 -0.33319,0.15231 -0.33319,0.34269 z"
         inkscape:connector-curvature="0" />
      <path
         id="path4566"
         style="font-style:normal;font-weight:normal;font-size:5.1029067px;line-height:1.25;font-family:sans-serif;letter-spacing:-0.16933334px;word-spacing:0px;fill:#1a1a1a;fill-opacity:1;stroke:none;stroke-width:0.18474005"
         d="m 224.25251,188.58139 c 0.14278,0 0.2951,-0.12382 0.33318,-0.27607 l 0.31414,-2.11333 v 2.04668 c 0,0.1904 0.15231,0.34272 0.3427,0.34272 h 0.26655 c 0.19039,0 0.3427,-0.15232 0.3427,-0.34272 v -5.73072 c 0,-0.19039 -0.15231,-0.3427 -0.3427,-0.3427 h -0.28558 c -0.1428,0 -0.30463,0.12381 -0.33319,0.26654 l -0.74252,3.83636 -0.75204,-3.83636 c -0.0286,-0.14278 -0.18087,-0.26654 -0.32366,-0.26654 h -0.28558 c -0.19039,0 -0.34271,0.15231 -0.34271,0.3427 v 5.73072 c 0,0.1904 0.15232,0.34272 0.34271,0.34272 h 0.26654 c 0.18087,0 0.3427,-0.15232 0.3427,-0.34272 v -2.06572 l 0.32367,2.14188 c 0.0286,0.14278 0.18087,0.26656 0.32366,0.26656 z"
         inkscape:connector-curvature="0" />
      <path
         id="path4568"
         style="font-style:normal;font-weight:normal;font-size:5.1029067px;line-height:1.25;font-family:sans-serif;letter-spacing:-0.0238125px;word-spacing:0px;fill:#1a1a1a;fill-opacity:1;stroke:none;stroke-width:0.18474005"
         d="m 226.76794,182.16525 c -0.19038,0 -0.3427,0.15231 -0.3427,0.3427 v 5.73072 c 0,0.1904 0.15232,0.34272 0.3427,0.34272 h 2.05621 c 0.19039,0 0.34271,-0.15232 0.34271,-0.34272 v -0.25702 c 0,-0.19039 -0.15232,-0.3427 -0.34271,-0.3427 h -1.45648 v -1.79918 h 1.19946 c 0.19039,0 0.3427,-0.15231 0.3427,-0.3427 v -0.25702 c 0,-0.1904 -0.15231,-0.34271 -0.3427,-0.34271 h -1.19946 v -1.78965 h 1.45648 c 0.19039,0 0.34271,-0.15232 0.34271,-0.34272 v -0.25702 c 0,-0.19039 -0.15232,-0.3427 -0.34271,-0.3427 z"
         inkscape:connector-curvature="0" />
      <path
         id="path4570"
         style="font-style:normal;font-weight:normal;font-size:5.1029067px;line-height:1.25;font-family:sans-serif;letter-spacing:-0.19579166px;word-spacing:0px;fill:#1a1a1a;fill-opacity:1;stroke:none;stroke-width:0.18474005"
         d="m 229.72258,182.76497 c 0,0.1904 0.15231,0.34272 0.3427,0.34272 h 0.77108 v 5.12147 c 0,0.19038 0.15231,0.3427 0.3427,0.3427 h 0.25703 c 0.19039,0 0.3427,-0.15232 0.3427,-0.3427 v -5.12147 h 0.7806 c 0.19039,0 0.3427,-0.15232 0.3427,-0.34272 v -0.26654 c 0,-0.19038 -0.15231,-0.34269 -0.3427,-0.34269 h -2.49411 c -0.19039,0 -0.3427,0.15231 -0.3427,0.34269 z"
         inkscape:connector-curvature="0" />
      <path
         id="path4572"
         style="font-style:normal;font-variant:normal;font-weight:900;font-stretch:normal;font-size:6.57370329px;line-height:0;font-family:'Ostrich Sans';-inkscape-font-specification:'Ostrich Sans Heavy';text-align:start;letter-spacing:0px;word-spacing:0px;writing-mode:tb-rl;text-anchor:start;fill:#1a1a1a;fill-opacity:1;stroke:none;stroke-width:0.18474005"
         d="m 236.10269,188.58139 c 0.19039,0 0.3427,-0.15232 0.3427,-0.34272 v -5.73072 c 0,-0.19039 -0.15231,-0.3427 -0.3427,-0.3427 h -0.26654 c -0.19039,0 -0.34271,0.15231 -0.34271,0.3427 v 3.14144 l -1.3232,-3.27471 c -0.0381,-0.1047 -0.19039,-0.20943 -0.31415,-0.20943 h -0.22847 c -0.18087,0 -0.3427,0.15231 -0.3427,0.3427 v 5.73072 c 0,0.1904 0.16183,0.34272 0.3427,0.34272 h 0.27607 c 0.18087,0 0.3427,-0.15232 0.3427,-0.34272 v -3.14142 l 1.32321,3.27471 c 0.0381,0.1047 0.19991,0.20943 0.31414,0.20943 z"
         inkscape:connector-curvature="0" />
      <path
         id="path4574"
         style="font-style:normal;font-variant:normal;font-weight:900;font-stretch:normal;font-size:6.57370329px;line-height:0;font-family:'Ostrich Sans';-inkscape-font-specification:'Ostrich Sans Heavy';text-align:start;letter-spacing:0px;word-spacing:0px;writing-mode:tb-rl;text-anchor:start;fill:#1a1a1a;fill-opacity:1;stroke:none;stroke-width:0.18474005"
         d="m 238.1113,182.50795 c 0,-0.19039 -0.16183,-0.3427 -0.3427,-0.3427 h -0.26655 c -0.19038,0 -0.3427,0.15231 -0.3427,0.3427 v 5.73072 c 0,0.1904 0.15232,0.34272 0.3427,0.34272 h 0.26655 c 0.18087,0 0.3427,-0.15232 0.3427,-0.34272 z"
         inkscape:connector-curvature="0" />
      <path
         id="path4576"
         style="font-style:normal;font-variant:normal;font-weight:900;font-stretch:normal;font-size:6.57370329px;line-height:0;font-family:'Ostrich Sans';-inkscape-font-specification:'Ostrich Sans Heavy';text-align:start;letter-spacing:0px;word-spacing:0px;writing-mode:tb-rl;text-anchor:start;fill:#1a1a1a;fill-opacity:1;stroke:none;stroke-width:0.18474005"
         d="m 238.75863,186.71556 c 0,1.24706 0.52357,1.8563 1.57071,1.8563 1.00907,0 1.57072,-0.57117 1.57072,-1.63735 0,-0.92339 -0.63781,-1.40888 -1.26609,-1.89438 h 0.01 c -0.46646,-0.36173 -0.93291,-0.733 -0.93291,-1.21848 0,-0.49502 0.21895,-0.71396 0.61876,-0.71396 0.41886,0 0.61877,0.28558 0.61877,0.91386 v 0.13322 c 0,0.1904 0.15231,0.34272 0.3427,0.34272 h 0.26655 c 0.19039,0 0.3427,-0.15232 0.3427,-0.34272 v -0.13322 c 0,-1.20898 -0.54261,-1.86581 -1.57072,-1.86581 -1.00906,0 -1.57071,0.61876 -1.57071,1.69447 0,0.94242 0.65684,1.45646 1.28513,1.95149 v -0.0101 c 0.46645,0.36174 0.90435,0.71397 0.90435,1.16138 0,0.50454 -0.21895,0.67589 -0.61877,0.67589 -0.13327,0 -0.2951,-0.019 -0.39981,-0.12381 -0.13327,-0.11426 -0.21895,-0.33318 -0.21895,-0.79012 v -0.12382 c 0,-0.19038 -0.16183,-0.34269 -0.3427,-0.34269 h -0.26655 c -0.19039,0 -0.3427,0.15231 -0.3427,0.34269 z m 1.58975,-5.93064 -0.16183,-0.28558 c -0.0381,-0.0571 -0.19039,-0.13323 -0.26654,-0.13323 h -0.31415 c -0.31414,0 -0.46645,0.31414 -0.26654,0.55214 l 0.58069,0.70443 c 0.0381,0.0571 0.19038,0.13323 0.25702,0.13323 h 0.3427 c 0.0666,0 0.21895,-0.0762 0.26655,-0.13323 l 0.58069,-0.70443 c 0.19039,-0.238 0.0381,-0.55214 -0.26655,-0.55214 h -0.32366 c -0.0666,0 -0.21895,0.0762 -0.26655,0.13323 z"
         inkscape:connector-curvature="0" />
      <path
         id="path4578"
         style="font-style:normal;font-variant:normal;font-weight:900;font-stretch:normal;font-size:6.57370329px;line-height:0;font-family:'Ostrich Sans';-inkscape-font-specification:'Ostrich Sans Heavy';text-align:start;letter-spacing:0px;word-spacing:0px;writing-mode:tb-rl;text-anchor:start;fill:#1a1a1a;fill-opacity:1;stroke:none;stroke-width:0.18474005"
         d="m 243.48981,184.56416 v -2.05621 c 0,-0.19039 -0.15231,-0.3427 -0.3427,-0.3427 h -0.26654 c -0.1904,0 -0.34271,0.15231 -0.34271,0.3427 v 5.73072 c 0,0.1904 0.15231,0.34272 0.34271,0.34272 h 0.26654 c 0.19039,0 0.3427,-0.15232 0.3427,-0.34272 v -1.88485 l 0.11423,-0.17135 1.27561,2.22756 c 0.0476,0.0857 0.19991,0.17136 0.2951,0.17136 h 0.30463 c 0.28558,0 0.43789,-0.26656 0.30462,-0.51406 l -1.59927,-2.81777 1.58975,-2.56074 c 0.15231,-0.2475 0,-0.52357 -0.2951,-0.52357 h -0.32366 c -0.0952,0 -0.23799,0.0857 -0.28558,0.16183 z"
         inkscape:connector-curvature="0" />
      <path
         id="path4580"
         style="font-style:normal;font-variant:normal;font-weight:900;font-stretch:normal;font-size:6.57370329px;line-height:0;font-family:'Ostrich Sans';-inkscape-font-specification:'Ostrich Sans Heavy';text-align:start;letter-spacing:0px;word-spacing:0px;writing-mode:tb-rl;text-anchor:start;fill:#1a1a1a;fill-opacity:1;stroke:none;stroke-width:0.18474005"
         d="m 247.36424,182.50795 c 0,-0.19039 -0.16183,-0.3427 -0.3427,-0.3427 H 246.755 c -0.19039,0 -0.34271,0.15231 -0.34271,0.3427 v 5.73072 c 0,0.1904 0.15232,0.34272 0.34271,0.34272 h 0.26654 c 0.18087,0 0.3427,-0.15232 0.3427,-0.34272 z"
         inkscape:connector-curvature="0" />
      <path
         id="path4582"
         style="font-style:normal;font-variant:normal;font-weight:900;font-stretch:normal;font-size:6.57370329px;line-height:0;font-family:'Ostrich Sans';-inkscape-font-specification:'Ostrich Sans Heavy';text-align:start;letter-spacing:0px;word-spacing:0px;writing-mode:tb-rl;text-anchor:start;fill:#1a1a1a;fill-opacity:1;stroke:none;stroke-width:0.18474005"
         d="m 248.96352,184.90687 v -2.39892 c 0,-0.19039 -0.15232,-0.3427 -0.3427,-0.3427 h -0.26655 c -0.19039,0 -0.3427,0.15231 -0.3427,0.3427 v 5.73072 c 0,0.1904 0.15231,0.34272 0.3427,0.34272 h 0.26655 c 0.19038,0 0.3427,-0.15232 0.3427,-0.34272 v -2.38939 h 1.05666 v 2.38939 c 0,0.1904 0.15231,0.34272 0.3427,0.34272 h 0.26655 c 0.19039,0 0.3427,-0.15232 0.3427,-0.34272 v -5.73072 c 0,-0.19039 -0.15231,-0.3427 -0.3427,-0.3427 h -0.26655 c -0.19039,0 -0.3427,0.15231 -0.3427,0.3427 v 2.39892 z"
         inkscape:connector-curvature="0" />
      <path
         id="path4584"
         style="font-style:normal;font-weight:normal;font-size:5.1029067px;line-height:1.25;font-family:sans-serif;letter-spacing:-0.3095625px;word-spacing:0px;fill:#1a1a1a;fill-opacity:1;stroke:none;stroke-width:0.18474005"
         d="m 218.7786,196.0668 c 0,1.00906 0.41886,1.74207 1.5612,1.74207 1.10426,0 1.5612,-0.6759 1.5612,-1.74207 v -4.33137 c 0,-0.19039 -0.15232,-0.3427 -0.34271,-0.3427 h -0.26654 c -0.18087,0 -0.33318,0.15231 -0.33318,0.3427 v 4.33137 c 0,0.45694 -0.13327,0.79964 -0.61877,0.79964 -0.46645,0 -0.61877,-0.29512 -0.61877,-0.79964 v -4.33137 c 0,-0.19039 -0.15231,-0.3427 -0.3427,-0.3427 h -0.26654 c -0.18087,0 -0.33319,0.15231 -0.33319,0.3427 z"
         inkscape:connector-curvature="0" />
      <path
         id="path4586"
         style="font-style:normal;font-weight:normal;font-size:5.1029067px;line-height:1.25;font-family:sans-serif;letter-spacing:-0.23812501px;word-spacing:0px;fill:#1a1a1a;fill-opacity:1;stroke:none;stroke-width:0.18474005"
         d="m 222.29043,195.95256 c 0,1.24706 0.52357,1.85631 1.57071,1.85631 1.00907,0 1.57072,-0.57118 1.57072,-1.63736 0,-0.92339 -0.63781,-1.40888 -1.26609,-1.89438 h 0.01 c -0.46646,-0.36174 -0.93291,-0.73299 -0.93291,-1.21849 0,-0.49501 0.21895,-0.71396 0.61876,-0.71396 0.41886,0 0.61877,0.28558 0.61877,0.91387 v 0.13323 c 0,0.19039 0.15231,0.3427 0.3427,0.3427 h 0.26655 c 0.19039,0 0.3427,-0.15231 0.3427,-0.3427 v -0.13323 c 0,-1.20897 -0.54261,-1.86582 -1.57072,-1.86582 -1.00906,0 -1.57071,0.61877 -1.57071,1.69447 0,0.94243 0.65684,1.45649 1.28513,1.95149 v -0.0101 c 0.46645,0.36175 0.90435,0.71397 0.90435,1.16139 0,0.50452 -0.21895,0.67588 -0.61877,0.67588 -0.13327,0 -0.2951,-0.019 -0.39981,-0.12381 -0.13327,-0.11426 -0.21895,-0.33319 -0.21895,-0.79012 v -0.12382 c 0,-0.1904 -0.16183,-0.34271 -0.3427,-0.34271 h -0.26659 c -0.19039,0 -0.3427,0.15231 -0.3427,0.34271 z"
         inkscape:connector-curvature="0" />
      <path
         id="path4588"
         style="font-style:normal;font-weight:normal;font-size:5.1029067px;line-height:1.25;font-family:sans-serif;letter-spacing:-0.23283334px;word-spacing:0px;fill:#1a1a1a;fill-opacity:1;stroke:none;stroke-width:0.18474005"
         d="m 225.69627,192.00198 c 0,0.19038 0.15232,0.3427 0.3427,0.3427 h 0.77108 v 5.12148 c 0,0.1904 0.15231,0.34271 0.3427,0.34271 h 0.25703 c 0.19039,0 0.3427,-0.15231 0.3427,-0.34271 v -5.12148 h 0.7806 c 0.19039,0 0.3427,-0.15232 0.3427,-0.3427 v -0.26655 c 0,-0.19039 -0.15231,-0.3427 -0.3427,-0.3427 h -2.49411 c -0.19038,0 -0.3427,0.15231 -0.3427,0.3427 z"
         inkscape:connector-curvature="0" />
      <path
         id="path4590"
         style="font-style:normal;font-weight:normal;font-size:5.1029067px;line-height:1.25;font-family:sans-serif;letter-spacing:-0.77258337px;word-spacing:0px;fill:#1a1a1a;fill-opacity:1;stroke:none;stroke-width:0.18474005"
         d="m 230.17596,191.65927 c -0.0381,-0.14278 -0.19039,-0.26654 -0.33318,-0.26654 h -0.26654 c -0.23799,0 -0.3903,0.19991 -0.33319,0.41885 l 1.35177,5.73073 c 0.0286,0.15232 0.18087,0.26656 0.33318,0.26656 h 0.19991 c 0.1428,0 0.29511,-0.11426 0.33318,-0.26656 l 1.35177,-5.73073 c 0.0476,-0.21894 -0.10471,-0.41885 -0.33318,-0.41885 h -0.27607 c -0.14279,0 -0.30462,0.12381 -0.33318,0.26654 l -0.84723,3.62692 z"
         inkscape:connector-curvature="0" />
      <path
         id="path4592"
         style="font-style:normal;font-weight:normal;font-size:5.1029067px;line-height:1.25;font-family:sans-serif;letter-spacing:-0.27516666px;word-spacing:0px;fill:#1a1a1a;fill-opacity:1;stroke:none;stroke-width:0.18474005"
         d="m 234.82598,197.55184 c 0.0381,0.14279 0.19039,0.26654 0.33318,0.26654 h 0.27607 c 0.22847,0 0.38078,-0.19991 0.33318,-0.41885 l -1.31369,-5.73073 c -0.0286,-0.14279 -0.19039,-0.26656 -0.33318,-0.26656 h -0.20943 c -0.1428,0 -0.2951,0.12382 -0.33318,0.26656 l -0.86628,3.72212 -0.45693,2.01812 c -0.0476,0.21896 0.10471,0.40934 0.33318,0.40934 h 0.27607 c 0.14279,0 0.2951,-0.12381 0.33318,-0.26654 l 0.33318,-1.48504 h 0.97099 z m -0.80916,-3.95059 c 0.18087,0.80915 0.16183,1.06618 0.26655,1.52312 h -0.53309 z"
         inkscape:connector-curvature="0" />
      <path
         id="path4594"
         style="font-style:normal;font-weight:normal;font-size:5.1029067px;line-height:1.25;font-family:sans-serif;letter-spacing:-0.13758335px;word-spacing:0px;fill:#1a1a1a;fill-opacity:1;stroke:none;stroke-width:0.18474005"
         d="m 239.1111,195.8764 c 0,-0.49501 -0.13327,-0.8853 -0.40934,-1.1804 0.0286,-0.0285 0.0476,-0.0477 0.0761,-0.0762 0.2951,-0.29511 0.39982,-0.77108 0.39982,-1.36129 0,-1.27562 -0.40934,-1.86583 -1.58024,-1.86583 h -1.19945 c -0.19039,0 -0.3427,0.15232 -0.3427,0.3427 v 5.73073 c 0,0.1904 0.15231,0.34272 0.3427,0.34272 h 0.26654 c 0.18087,0 0.33318,-0.15232 0.33318,-0.34272 v -2.33226 h 0.42838 c 0.46646,0 0.733,0.26654 0.733,0.74251 v 1.58975 c 0,0.1904 0.15231,0.34272 0.3427,0.34272 h 0.26655 c 0.19039,0 0.3427,-0.15232 0.3427,-0.34272 z m -2.11333,-3.53172 h 0.59973 c 0.49501,0 0.6378,0.26654 0.6378,0.91387 0,0.64733 -0.27606,0.91387 -0.80915,0.91387 h -0.42838 z"
         inkscape:connector-curvature="0" />
      <path
         id="path4596"
         style="font-style:normal;font-weight:normal;font-size:5.1029067px;line-height:1.25;font-family:sans-serif;letter-spacing:-0.365125px;word-spacing:0px;fill:#1a1a1a;fill-opacity:1;stroke:none;stroke-width:0.18474005"
         d="m 239.54014,196.07631 c 0,1.14235 0.49502,1.74207 1.48505,1.74207 0.99002,0 1.46599,-0.59972 1.46599,-1.74207 v -4.33136 c 0,-0.19039 -0.15231,-0.34271 -0.33318,-0.34271 h -0.26654 c -0.19039,0 -0.3427,0.15232 -0.3427,0.34271 v 4.33136 c 0,0.55214 -0.18088,0.79964 -0.52357,0.79964 -0.12376,0 -0.25703,-0.0101 -0.34271,-0.0951 -0.11422,-0.11426 -0.19039,-0.31416 -0.19039,-0.70445 v -0.13323 c 0,-0.18087 -0.16183,-0.33318 -0.3427,-0.33318 h -0.26654 c -0.19039,0 -0.34271,0.15231 -0.34271,0.33318 z"
         inkscape:connector-curvature="0" />
      <path
         id="path4598"
         style="font-style:normal;font-variant:normal;font-weight:900;font-stretch:normal;font-size:6.57370329px;line-height:0;font-family:'Ostrich Sans';-inkscape-font-specification:'Ostrich Sans Heavy';text-align:start;letter-spacing:0px;word-spacing:0px;writing-mode:tb-rl;text-anchor:start;fill:#1a1a1a;fill-opacity:1;stroke:none;stroke-width:0.18474005"
         d="m 245.25618,197.55184 c 0.0381,0.14279 0.19039,0.26654 0.33318,0.26654 h 0.27607 c 0.22847,0 0.38078,-0.19991 0.33318,-0.41885 l -1.31369,-5.73073 c -0.0286,-0.14279 -0.19039,-0.26656 -0.33318,-0.26656 h -0.20943 c -0.14278,0 -0.2951,0.12382 -0.33318,0.26656 l -0.86627,3.72212 -0.45694,2.01812 c -0.0476,0.21896 0.10471,0.40934 0.33318,0.40934 h 0.27607 c 0.14278,0 0.2951,-0.12381 0.33318,-0.26654 l 0.33318,-1.48504 h 0.97099 z m -0.80915,-3.95059 c 0.18087,0.80915 0.16183,1.06618 0.26654,1.52312 h -0.53309 z"
         inkscape:connector-curvature="0" />
      <path
         id="path4600"
         style="font-style:normal;font-weight:normal;font-size:5.1029067px;line-height:1.25;font-family:sans-serif;letter-spacing:-0.11377084px;word-spacing:0px;fill:#1a1a1a;fill-opacity:1;stroke:none;stroke-width:0.18474005"
         d="m 249.52091,197.21866 c 0,-0.1904 -0.15231,-0.34271 -0.3427,-0.34271 h -1.4184 v -5.131 c 0,-0.19039 -0.15231,-0.34271 -0.33318,-0.34271 h -0.27607 c -0.19039,0 -0.3427,0.15232 -0.3427,0.34271 v 5.73074 c 0,0.19038 0.15231,0.34269 0.3427,0.34269 h 2.02765 c 0.19039,0 0.3427,-0.15231 0.3427,-0.34269 z"
         inkscape:connector-curvature="0" />
      <path
         id="path4602"
         style="font-style:normal;font-weight:normal;font-size:5.1029067px;line-height:1.25;font-family:sans-serif;letter-spacing:-0.07143751px;word-spacing:0px;fill:#1a1a1a;fill-opacity:1;stroke:none;stroke-width:0.18474005"
         d="m 249.87973,195.95256 c 0,0.75205 0.20943,1.18994 0.50454,1.48504 0.31414,0.30463 0.70444,0.38078 1.06618,0.38078 0.3427,0 0.74252,-0.0762 1.05666,-0.38078 0.29511,-0.2951 0.49501,-0.73299 0.49501,-1.48504 v -0.13323 c 0,-0.19038 -0.15231,-0.34269 -0.33318,-0.34269 h -0.27606 c -0.19039,0 -0.3427,0.15231 -0.3427,0.34269 v 0.13323 c 0,0.34271 -0.0476,0.59974 -0.16184,0.75205 -0.0857,0.0951 -0.25702,0.17134 -0.43789,0.17134 -0.40934,0 -0.60925,-0.28558 -0.60925,-0.92339 v -2.69401 c 0,-0.6378 0.20943,-0.91387 0.60925,-0.91387 0.3903,0 0.59973,0.27607 0.59973,0.91387 v 0.13323 c 0,0.19039 0.15231,0.3427 0.3427,0.3427 h 0.27606 c 0.18087,0 0.33318,-0.15231 0.33318,-0.3427 v -0.13323 c 0,-0.72349 -0.1999,-1.19946 -0.50453,-1.48504 -0.31414,-0.28558 -0.69492,-0.37127 -1.04714,-0.37127 -0.36174,0 -0.74252,0.0857 -1.05666,0.37127 -0.30463,0.28558 -0.51406,0.76155 -0.51406,1.48504 z"
         inkscape:connector-curvature="0" />
      <path
         id="path4604"
         style="font-style:normal;font-weight:normal;font-size:5.1029067px;line-height:1.25;font-family:sans-serif;letter-spacing:-0.16139586px;word-spacing:0px;fill:#1a1a1a;fill-opacity:1;stroke:none;stroke-width:0.18474005"
         d="m 253.87918,191.40224 c -0.19039,0 -0.3427,0.15232 -0.3427,0.34271 v 5.73074 c 0,0.19038 0.15231,0.34269 0.3427,0.34269 h 2.05621 c 0.19039,0 0.3427,-0.15231 0.3427,-0.34269 v -0.25703 c 0,-0.1904 -0.15231,-0.34271 -0.3427,-0.34271 h -1.45648 v -1.79918 h 1.19945 c 0.1904,0 0.34271,-0.15232 0.34271,-0.3427 v -0.25703 c 0,-0.19038 -0.15231,-0.34269 -0.34271,-0.34269 h -1.19945 v -1.78967 h 1.45648 c 0.19039,0 0.3427,-0.15232 0.3427,-0.3427 v -0.25703 c 0,-0.19039 -0.15231,-0.34271 -0.3427,-0.34271 z"
         inkscape:connector-curvature="0" />
      <path
         id="path4606"
         style="font-style:normal;font-variant:normal;font-weight:900;font-stretch:normal;font-size:6.57370329px;line-height:0;font-family:'Ostrich Sans';-inkscape-font-specification:'Ostrich Sans Heavy';text-align:start;letter-spacing:0px;word-spacing:0px;writing-mode:tb-rl;text-anchor:start;fill:#1a1a1a;fill-opacity:1;stroke:none;stroke-width:0.18474005"
         d="m 257.63412,191.65927 c -0.0381,-0.14278 -0.19038,-0.26654 -0.33318,-0.26654 h -0.26654 c -0.23799,0 -0.3903,0.19991 -0.33318,0.41885 l 1.35176,5.73073 c 0.0286,0.15232 0.18087,0.26656 0.33319,0.26656 h 0.1999 c 0.1428,0 0.29511,-0.11426 0.33319,-0.26656 l 1.35176,-5.73073 c 0.0476,-0.21894 -0.10471,-0.41885 -0.33318,-0.41885 h -0.27606 c -0.1428,0 -0.30463,0.12381 -0.33319,0.26654 l -0.84723,3.62692 z"
         inkscape:connector-curvature="0" />
    </g>
  </g>
</svg>
