<?xml version="1.0" encoding="UTF-8" standalone="no"?>
<svg
   xmlns:dc="http://purl.org/dc/elements/1.1/"
   xmlns:cc="http://creativecommons.org/ns#"
   xmlns:rdf="http://www.w3.org/1999/02/22-rdf-syntax-ns#"
   xmlns:svg="http://www.w3.org/2000/svg"
   xmlns="http://www.w3.org/2000/svg"
   xmlns:sodipodi="http://sodipodi.sourceforge.net/DTD/sodipodi-0.dtd"
   xmlns:inkscape="http://www.inkscape.org/namespaces/inkscape"
   id="svg8"
   version="1.1"
   viewBox="0 0 488.11815 184.9161"
   height="698.89545"
   width="1844.856"
   sodipodi:docname="logo.svg"
   inkscape:version="0.92.1 r15371">
  <sodipodi:namedview
     pagecolor="#ffffff"
     bordercolor="#666666"
     borderopacity="1"
     objecttolerance="10"
     gridtolerance="10"
     guidetolerance="10"
     inkscape:pageopacity="0"
     inkscape:pageshadow="2"
     inkscape:window-width="1914"
     inkscape:window-height="1088"
     id="namedview8"
     showgrid="false"
     inkscape:zoom="0.59408432"
     inkscape:cx="933.07719"
     inkscape:cy="207.74497"
     inkscape:window-x="6"
     inkscape:window-y="46"
     inkscape:window-maximized="1"
     inkscape:current-layer="text4487" />
  <title
     id="title4490">1920x1080</title>
  <defs
     id="defs2" />
  <metadata
     id="metadata5">
    <rdf:RDF>
      <cc:Work
         rdf:about="">
        <dc:format>image/svg+xml</dc:format>
        <dc:type
           rdf:resource="http://purl.org/dc/dcmitype/StillImage" />
        <dc:title>1920x1080</dc:title>
        <cc:license
           rdf:resource="http://artlibre.org/licence/lal" />
        <dc:publisher>
          <cc:Agent>
            <dc:title>brontosaurusrex</dc:title>
          </cc:Agent>
        </dc:publisher>
      </cc:Work>
      <cc:License
         rdf:about="http://artlibre.org/licence/lal">
        <cc:permits
           rdf:resource="http://creativecommons.org/ns#Reproduction" />
        <cc:permits
           rdf:resource="http://creativecommons.org/ns#Distribution" />
        <cc:permits
           rdf:resource="http://creativecommons.org/ns#DerivativeWorks" />
        <cc:requires
           rdf:resource="http://creativecommons.org/ns#ShareAlike" />
        <cc:requires
           rdf:resource="http://creativecommons.org/ns#Notice" />
        <cc:requires
           rdf:resource="http://creativecommons.org/ns#Attribution" />
      </cc:License>
    </rdf:RDF>
  </metadata>
  <g
     inkscape:groupmode="layer"
     id="layer3"
     inkscape:label="back">
    <g
       transform="translate(-9.9409258,-61.666934)"
       id="layer1">
      <path
         inkscape:connector-curvature="0"
         id="path4823"
         d="m 187.91312,234.23563 c 0.428,-2.28458 2.26571,-9.33016 4.08415,-15.65673 1.81839,-6.32662 3.86382,-13.73423 4.54532,-16.46137 2.00167,-8.00999 3.13499,-9.38112 7.25416,-8.77656 3.37047,0.49465 3.85956,1.26175 5.77361,9.05486 1.15012,4.68295 3.7804,14.72998 5.84505,22.32672 l 3.75389,13.81235 -3.34739,-0.39225 c -2.69737,-0.31593 -3.56611,-1.32287 -4.47389,-5.1851 l -1.1265,-4.7929 h -7.58175 c -4.95087,0 -7.75258,0.55442 -8.07396,1.59764 -0.27052,0.87868 -0.83874,3.17926 -1.26234,5.11239 -0.54378,2.48164 -1.56352,3.51481 -3.46922,3.51481 -2.35265,0 -2.59925,-0.53321 -1.92113,-4.15386 z m 20.00612,-12.55145 c 0,-3.97706 -4.3902,-22.91586 -5.31212,-22.91586 -0.59312,0 -1.0828,1.29407 -1.08817,2.87572 -0.005,1.58164 -1.15122,6.61419 -2.5464,11.18338 -1.39518,4.56924 -2.54111,8.73903 -2.54647,9.26624 -0.005,0.52722 2.57839,0.9586 5.74173,0.9586 3.2344,0 5.75143,-0.59871 5.75143,-1.36808 z m -42.63596,-4.70292 c -2.68598,-11.07159 -5.16732,-20.84873 -5.51407,-21.72708 -0.92901,-2.3532 3.33386,-3.51727 5.32293,-1.45353 1.49566,1.55179 5.64947,18.46583 8.28225,33.72497 0.7927,4.5943 0.96791,4.78859 1.72874,1.91717 1.2618,-4.76243 6.03581,-25.54478 7.04632,-30.67447 0.65403,-3.32019 1.61812,-4.57865 3.73974,-4.88179 1.57217,-0.22461 2.85851,0.21594 2.85851,0.97883 0,0.763 -1.94118,8.99883 -4.31369,18.30185 -2.37251,9.30305 -4.68407,18.49626 -5.13674,20.42939 -0.68952,2.94445 -1.49707,3.5148 -4.97671,3.5148 h -4.15362 z m 82.57008,15.97629 c -0.70301,-0.87868 -1.67488,-2.89171 -2.15978,-4.47335 -1.26852,-4.13786 2.82122,-3.84108 4.40307,0.3193 1.29649,3.41009 4.86473,4.20984 7.41298,1.66154 1.04472,-1.04472 1.53378,-7.15735 1.53378,-19.17155 0,-14.82595 0.30577,-17.63781 1.91712,-17.63781 1.56783,0 1.94969,2.3871 2.09582,13.10056 0.25409,18.64161 -0.16037,23.02822 -2.4172,25.56207 -2.336,2.62299 -10.85779,3.0489 -12.78579,0.63905 z M 99.2013,221.41394 c -1.098003,-0.85637 -2.391838,-2.60999 -2.875244,-3.89696 -1.159923,-3.08817 0.463747,-23.86117 1.864915,-23.86117 0.599237,0 1.089552,5.08719 1.089552,11.30483 0,12.42001 1.573087,15.53534 7.844487,15.53534 6.20505,0 7.39493,-2.2463 7.77793,-14.6838 0.30966,-10.05809 0.652,-11.54558 2.7484,-11.94657 2.23464,-0.4275 2.35894,0.3565 1.86129,11.73567 -0.66678,15.24472 -2.17562,17.47038 -11.80302,17.41029 -3.58156,-0.0241 -7.41032,-0.7413 -8.50831,-1.59763 z m 27.75653,-0.69908 c -2.58284,-2.85399 -2.68191,-4.05318 -0.33477,-4.05318 0.97922,0 2.11148,0.86273 2.51608,1.91717 0.81082,2.11291 9.11597,2.7194 10.33044,0.75435 1.503,-2.43188 -0.85183,-4.79957 -5.9181,-5.95046 -6.78944,-1.54237 -9.48845,-5.26404 -6.7023,-9.24185 2.63599,-3.76335 10.66826,-3.90838 13.97683,-0.25266 3.9634,4.37945 0.85059,5.0056 -4.79994,0.96541 -1.58614,-1.13404 -2.84442,-1.21587 -4.32611,-0.28115 -3.56661,2.24977 -2.61454,3.7049 3.82107,5.83994 8.36196,2.77409 10.62757,6.48835 6.48473,10.63115 -2.86191,2.8619 -12.34786,2.65462 -15.04783,-0.32897 z m 23.4468,-4.54316 c 0,-5.80559 -0.3995,-6.98494 -2.55623,-7.54897 -5.21979,-1.36503 -2.50918,-3.46399 4.4734,-3.46399 5.39644,0 7.02952,0.44539 7.02952,1.91718 0,1.06505 -1.13607,1.91713 -2.55617,1.91713 -2.24639,0 -2.55622,0.85212 -2.55622,7.02958 0,5.39643 -0.44538,7.02957 -1.91713,7.02957 -1.46673,0 -1.91717,-1.61657 -1.91717,-6.8805 z m 71.57378,-7.86937 v -14.74989 l 10.53109,0.37148 c 10.09065,0.35553 10.60193,0.51924 12.22342,3.91038 1.43628,3.00379 1.39435,4.13647 -0.27728,7.48734 -1.39277,2.79185 -1.60378,4.63164 -0.7205,6.28207 0.68702,1.28369 1.24911,4.38477 1.24911,6.89133 0,6.79905 -3.3309,5.97887 -4.38959,-1.08085 -0.93163,-6.21252 -2.20459,-7.14276 -9.77409,-7.14276 h -5.00786 v 6.39049 c 0,4.82839 -0.46858,6.39052 -1.91718,6.39052 -1.59338,0 -1.91712,-2.49096 -1.91712,-14.74988 z m 15.71875,-1.76758 c 3.7205,-1.41451 5.31852,-4.87938 3.34641,-7.25566 -1.79462,-2.16237 -9.03742,-3.58243 -12.56353,-2.46327 -3.51371,1.11519 -3.85795,9.12249 -0.4309,10.01809 3.83947,1.00336 6.43344,0.92294 9.64778,-0.29901 z m 63.84314,15.48539 -5.43195,-0.39322 v -14.62471 c 0,-12.14763 0.32463,-14.62468 1.91718,-14.62468 1.57633,0 1.91714,2.27219 1.91714,12.78102 0,7.5621 0.52189,12.84627 1.27813,12.94081 0.70295,0.0879 1.85321,0.30336 2.55617,0.47919 0.70296,0.17585 3.86628,0.39129 7.02957,0.47921 3.1633,0.0879 5.75149,0.67445 5.75149,1.30359 0,1.37237 -7.50949,2.20165 -15.01773,1.6584 z m 18.74654,-2.5242 c -7.30907,-6.53062 -6.02123,-21.94254 2.14436,-25.66302 5.45861,-2.4871 11.80321,-1.78841 15.27362,1.68196 1.7254,1.7255 3.13716,3.73847 3.13716,4.47335 0,2.06283 -3.46758,1.57928 -4.3039,-0.60009 -1.19611,-3.11717 -7.12083,-4.79673 -11.10256,-3.14746 -8.85488,3.66785 -8.277,19.56104 0.83724,23.02624 4.18767,1.59217 9.21137,-0.51519 10.72616,-4.49948 1.20447,-3.16793 2.64298,-3.99218 4.2181,-2.41711 1.21945,1.2195 -2.63399,7.89663 -5.41668,9.38587 -4.67159,2.50018 -11.27535,1.54651 -15.5135,-2.24026 z m 25.3373,-10.82238 c -0.38064,-7.90827 -0.60595,-14.46841 -0.50049,-14.57806 0.94762,-0.98555 21.27711,-0.79754 21.55854,0.1995 0.20771,0.73615 -3.29747,1.43837 -8.2663,1.65604 l -8.62721,0.37775 v 4.35395 4.35398 l 7.98817,0.38066 c 10.13599,0.48305 9.92089,2.81059 -0.30675,3.31723 l -7.68161,0.38065 v 5.05144 5.05143 h 8.94675 c 7.10053,0 8.9467,0.39564 8.9467,1.91714 0,1.55125 -2.03905,1.91717 -10.68288,1.91717 h -10.68288 z m -77.63404,11.49828 c 0,-0.88124 2.01302,-7.30868 4.47335,-14.28323 2.46034,-6.97461 4.47335,-12.86778 4.47335,-13.09598 0,-0.22801 1.09047,-0.41495 2.42329,-0.41495 1.89617,0 3.56419,2.94393 7.66863,13.53465 2.88494,7.44408 5.24533,14.05827 5.24533,14.69819 0,2.82084 -3.53907,0.78622 -5.20128,-2.99031 -1.59455,-3.62282 -2.52091,-4.204 -7.24618,-4.5461 -5.09699,-0.36907 -5.54629,-0.12317 -7.58582,4.15376 -2.16243,4.53475 -4.25067,5.98098 -4.25067,2.94393 z m 15.62935,-10.61882 c 0.91888,-0.91889 -2.91896,-10.78476 -4.19526,-10.78476 -1.05559,0 -3.76547,7.03581 -3.76547,9.77646 0,1.69449 6.45676,2.51232 7.96073,1.0083 z m 87.897,11.08155 c 0,-0.62674 1.40909,-1.49325 3.1314,-1.92549 4.93414,-1.23843 17.95079,-14.10353 31.16748,-30.8047 6.6755,-8.43548 18.48367,-21.62526 26.24039,-29.31065 7.75673,-7.68533 13.26886,-13.46721 12.24927,-12.84855 -1.01961,0.61866 -4.34302,2.6939 -7.38541,4.61166 -6.56056,4.1354 -13.7081,5.59565 -18.49018,3.77749 -2.96287,-1.1265 -3.45748,-2.04615 -3.45748,-6.42911 0,-7.6346 -3.63291,-9.56446 -16.34504,-8.68281 -20.90517,1.44992 -37.78636,14.60462 -33.43363,26.0532 1.27504,3.35367 5.74173,6.07099 8.34022,5.07384 1.20099,-0.46083 1.81728,-2.66137 1.81728,-6.48891 0,-4.29603 0.4951,-5.79159 1.91713,-5.79159 1.47507,0 1.91718,1.64439 1.91718,7.13111 v 7.13111 l 4.1538,-0.89656 c 8.90275,-1.92162 15.02243,-6.3941 21.11424,-15.43114 1.48034,-2.19595 1.55207,-2.12669 0.81503,0.7874 -0.44443,1.75737 -2.32522,4.85119 -4.17937,6.87518 -3.58438,3.91261 -15.18178,9.74013 -19.38395,9.74013 -2.20218,0 -2.51975,0.88595 -2.51975,7.02957 0,5.39645 -0.44538,7.02959 -1.91718,7.02959 -1.47373,0 -1.91713,-1.63996 -1.91713,-7.09059 v -7.09054 l -7.98816,0.38066 -7.98811,0.38065 -0.38935,6.79331 c -0.26183,4.5687 -0.88961,6.62718 -1.91717,6.28589 -1.03758,-0.34442 -1.629,-5.08844 -1.8428,-14.78146 -0.25844,-11.72433 0.0145,-14.27403 1.52758,-14.27403 1.29128,0 1.95902,1.81618 2.23201,6.07099 0.33233,5.1808 0.81125,6.13088 3.2653,6.47942 2.91007,0.41351 3.94774,-1.51218 1.59762,-2.96466 -2.05175,-1.26803 -1.47347,-9.49753 0.9586,-13.64096 1.23016,-2.09581 5.53846,-6.01949 9.57396,-8.71929 18.91872,-12.65679 46.98208,-10.76592 46.98208,3.16562 0,7.85977 5.62532,6.72655 24.2509,-4.88528 5.25399,-3.27557 10.2973,-5.95551 11.20734,-5.95551 0.91009,0 -2.3629,3.78993 -7.27323,8.42214 -4.91033,4.63214 -13.97964,15.11552 -20.15403,23.29643 -11.11011,14.72045 -27.58159,32.44662 -38.70545,41.65394 -5.53517,4.58151 -5.58324,4.67967 -1.27808,2.6112 7.67132,-3.68577 21.57479,-14.8163 43.19317,-34.57859 11.45453,-10.47104 25.5456,-22.71046 31.31352,-27.19864 10.86635,-8.4555 23.81923,-15.48187 28.54364,-15.48361 3.14028,-9.8e-4 6.19444,3.09678 4.98394,5.05546 -1.24064,2.00743 -4.66792,1.60393 -6.39092,-0.75242 -1.30161,-1.78015 -2.19744,-1.86483 -6.10002,-0.57687 -8.78246,2.89848 -29.44565,19.28602 -55.92216,44.35059 -18.04282,17.08066 -32.93593,28.17467 -45.42454,33.83732 -8.39442,3.8062 -12.0901,4.59431 -12.0901,2.57834 z M 122.28637,196.12802 c 0,-4.65313 1.67005,-8.18844 6.22716,-13.18218 3.01629,-3.30536 3.07276,-3.53259 0.55408,-2.22982 -1.54252,0.79784 -3.15619,2.01959 -3.58597,2.71501 -0.42993,0.69536 -1.96911,1.89993 -3.42072,2.67683 -4.55987,2.44039 -1.4502,-0.78955 8.18487,-8.50132 5.1122,-4.09172 11.6637,-9.67695 14.55878,-12.41157 3.93575,-3.71758 6.12939,-4.86593 8.69465,-4.55141 3.21676,0.39418 2.38979,1.51571 -13.25196,17.96868 -9.17553,9.6514 -16.6828,17.84722 -16.6828,18.21294 0,3.78098 15.65804,-7.94603 34.78866,-26.05474 6.58767,-6.23576 12.00289,-10.34527 13.63228,-10.34527 1.48676,0 2.6862,0.43137 2.66543,0.95855 -0.0194,0.5272 -6.92247,8.36817 -15.33723,17.4244 -8.41471,9.05621 -15.29951,16.96448 -15.29951,17.5739 0,2.05457 2.06441,1.13061 8.94676,-4.00429 7.33273,-5.47097 11.54228,-7.09281 5.52999,-2.13059 -5.85307,4.83076 -13.66753,9.79921 -15.41249,9.79921 -2.185,0 -2.05109,-6.17388 0.22897,-10.54433 2.33285,-4.47201 1.09535,-4.4553 -3.76639,0.0508 -11.87855,11.00995 -17.25437,13.05854 -17.25437,6.57506 z m 90.50751,-20.38658 c -0.22076,-7.86546 -0.0638,-14.84277 0.34878,-15.5051 0.99916,-1.60434 20.97772,-0.8159 20.97772,0.82788 0,0.70295 -3.88224,1.44817 -8.62721,1.65604 l -8.62721,0.37775 v 4.35393 4.35394 l 7.98816,0.38065 c 10.13601,0.48306 9.92089,2.81061 -0.30675,3.31719 l -7.68166,0.38067 v 5.05137 5.05144 h 9.05328 c 6.65872,0 8.91284,0.42123 8.52243,1.59241 -0.34878,1.04559 -4.08754,1.74183 -10.88867,2.02752 l -10.35783,0.43523 z m -34.6905,11.84339 c -0.3135,-0.52721 -0.42027,-4.12188 -0.23719,-7.98812 0.18357,-3.86628 0.40578,-10.04909 0.49495,-13.73964 0.13574,-5.63711 0.54262,-6.71003 2.5442,-6.71003 1.668,0 3.07126,1.82075 4.67878,6.07098 1.26297,3.33908 3.39657,8.65914 4.74141,11.82247 l 2.44522,5.75145 4.70797,-11.50294 c 3.75963,-9.18581 5.28535,-11.58519 7.57424,-11.91131 2.82794,-0.40286 2.8662,-0.2111 2.8662,14.37865 0,12.29202 -0.32365,14.78709 -1.91714,14.78709 -1.54825,0 -1.91717,-2.01661 -1.91717,-10.48043 0,-6.28088 -0.46229,-9.99395 -1.15414,-9.26626 -0.63479,0.66779 -2.84335,5.24021 -4.90791,10.16089 -2.06456,4.92072 -4.52659,8.94675 -5.47112,8.94675 -0.94453,0 -3.4809,-4.31361 -5.63643,-9.5858 l -3.91908,-9.58575 -1.111,9.90529 c -1.00205,8.93396 -2.15981,11.67288 -3.78188,8.94671 z m 66.88087,-11.82242 v -12.78107 h -4.47335 c -3.12426,0 -4.4734,-0.57817 -4.4734,-1.91712 0,-1.56213 2.13021,-1.91718 11.50292,-1.91718 9.37277,0 11.50299,0.35505 11.50299,1.91718 0,1.33895 -1.34916,1.91712 -4.4734,1.91712 h -4.47336 v 12.78107 c 0,11.92893 -0.17051,12.78102 -2.55623,12.78102 -2.38573,0 -2.55617,-0.85209 -2.55617,-12.78102 z m 16.61533,-1.91718 c 0,-13.60053 0.18163,-14.69819 2.43419,-14.69819 1.66251,0 4.60001,3.42409 9.26626,10.80122 3.75764,5.94066 7.26342,10.8294 7.79063,10.86389 0.52722,0.0339 0.95859,-4.82608 0.95859,-10.80124 0,-8.80468 0.36327,-10.86387 1.91714,-10.86387 1.59298,0 1.91716,2.4852 1.91716,14.69819 0,13.51648 -0.19273,14.6982 -2.39505,14.6982 -1.58237,0 -4.67292,-3.46952 -9.10787,-10.22485 -3.69204,-5.62362 -7.21545,-10.22479 -7.82976,-10.22479 -0.61435,0 -1.11699,4.60117 -1.11699,10.22479 0,8.23665 -0.37293,10.22485 -1.91712,10.22485 -1.593,0 -1.91718,-2.48523 -1.91718,-14.6982 z m 29.39638,0 c 0,-8.94671 0.50012,-14.69819 1.27809,-14.69819 1.11065,0 1.42789,2.86991 1.62468,14.69819 0.14492,8.70131 -0.51809,14.6982 -1.62468,14.6982 -0.77797,0 -1.27809,-5.75149 -1.27809,-14.6982 z m 7.79527,11.63775 c -1.985,-2.11291 -2.41937,-3.34207 -1.403,-3.97025 0.80966,-0.50036 2.60076,0.30144 3.98024,1.78237 2.65429,2.84905 5.72081,3.38815 8.66575,1.52342 2.92752,-1.85369 0.67692,-4.82763 -5.11447,-6.75809 -8.62778,-2.87591 -10.06214,-8.28688 -3.04431,-11.48443 3.83692,-1.74824 9.20563,-0.29852 11.30971,3.05407 2.15668,3.43636 0.002,4.12652 -3.72601,1.19374 -2.66491,-2.09624 -3.93855,-2.38507 -5.89641,-1.33726 -3.71359,1.98748 -2.35208,3.73939 4.73165,6.08843 4.90675,1.62714 6.44226,2.78085 6.76873,5.08568 1.05853,7.47395 -10.54908,10.91398 -16.27188,4.82232 z m 19.86219,2.17363 c -0.44974,-0.44972 -0.81731,-7.33564 -0.81731,-15.3025 0,-12.02363 0.3256,-14.48516 1.91714,-14.48516 1.47509,0 1.91719,1.64448 1.91719,7.13165 v 7.13168 l 7.98811,-7.12594 c 4.3935,-3.91923 8.73565,-7.1285 9.64932,-7.13165 2.31357,-0.009 0.51093,2.7649 -4.53689,6.97876 -2.28459,1.90713 -4.15384,4.17893 -4.15384,5.04835 0,0.86947 2.57283,4.98815 5.71742,9.15263 6.14503,8.13821 6.72655,9.489 4.08502,9.489 -0.93526,0 -3.51249,-2.44439 -5.72719,-5.43195 -8.36191,-11.28014 -7.53147,-10.64361 -10.44545,-8.00652 -1.71903,1.55566 -2.5765,3.94218 -2.5765,7.17057 0,4.68233 -1.3349,7.06321 -3.01702,5.38108 z M 83.255833,185.68305 c -0.378715,-0.98718 -0.522909,-7.49878 -0.320262,-14.47013 0.492579,-16.94039 2.017115,-17.22216 12.031243,-2.2235 l 7.508876,11.24636 0.36906,-11.18342 c 0.29032,-8.78778 0.76932,-11.18337 2.23667,-11.18337 1.52957,0 1.86742,2.65924 1.86742,14.69819 0,18.7678 -1.46575,19.26888 -11.482482,3.9256 -3.855039,-5.905 -7.508197,-10.42792 -8.118163,-10.05093 -0.609907,0.37678 -0.906702,5.02046 -0.659475,10.31894 0.321715,6.89755 -0.0046,9.78742 -1.147421,10.17538 -0.878351,0.29804 -1.906934,-0.26617 -2.285752,-1.25312 z M 344.67628,172.56718 c 0,-12.21299 0.32414,-14.69819 1.91713,-14.69819 1.59305,0 1.91718,2.4852 1.91718,14.69819 0,12.21297 -0.32413,14.6982 -1.91718,14.6982 -1.59299,0 -1.91713,-2.48523 -1.91713,-14.6982 z M 72.440358,171.18257 c 0,-11.27444 0.381139,-14.6783 1.597627,-14.27455 1.121049,0.37196 1.705407,4.78841 1.959016,14.80471 0.307225,12.12912 0.06714,14.2745 -1.597639,14.2745 -1.647195,0 -1.959004,-2.35642 -1.959004,-14.80466 z M 302.65612,161.2537 c -1.29258,-1.55748 -0.80869,-1.851 3.0515,-1.851 2.88564,0 4.40829,0.54533 4.10416,1.46981 -0.73262,2.22697 -5.41673,2.47648 -7.15566,0.38115 z M 35.712439,156.95184 c 1.942821,-0.29371 4.818547,-0.28598 6.390523,0.0194 1.571986,0.30337 -0.01933,0.54373 -3.532342,0.53413 -3.514808,-0.009 -4.800969,-0.25796 -2.858181,-0.55156 z M 143.23332,156.6166 c -3.65316,-1.4761 -4.39501,-3.88577 -5.2622,-17.09264 -0.6988,-10.6422 -0.59818,-11.28744 1.69144,-10.84726 2.13108,0.40963 2.4784,1.81955 2.78776,11.31525 0.19419,5.96601 0.60769,11.56615 0.9185,12.44485 0.33862,0.95743 2.86785,1.59762 6.31169,1.59762 7.74301,0 8.9794,-2.41742 7.96492,-15.57319 -0.73183,-9.49069 -0.6386,-9.98892 1.86932,-9.98892 2.51462,0 2.61859,0.58006 2.19667,12.25637 -0.39949,11.05951 -0.73759,12.49478 -3.46022,14.69822 -3.16807,2.56386 -10.23209,3.12344 -15.01788,1.1897 z m 75.31384,-0.0339 c -1.53571,-0.61874 -3.42728,-2.31164 -4.20347,-3.76199 -1.95216,-3.64766 -1.18631,-24.6102 0.92468,-25.30938 1.19828,-0.39707 1.59759,2.32295 1.59759,10.88219 0,12.85603 1.52662,15.64189 8.57136,15.64189 5.7853,0 7.19207,-2.68925 7.57075,-14.47268 0.18453,-5.74776 0.36665,-10.88176 0.40432,-11.40898 0.0386,-0.52721 0.64382,-0.95859 1.34679,-0.95859 0.76623,0 1.27808,5.08149 1.27808,12.68832 0,12.18505 -0.13333,12.79337 -3.36762,15.33728 -3.49564,2.74968 -9.29123,3.30858 -14.12272,1.36194 z M 18.668876,154.0645 c -5.46169,-2.88736 -7.098557,-4.70648 -8.206214,-9.1198 -1.2869267,-5.12745 4.774539,-10.25378 6.575306,-5.56095 0.414466,1.08062 -0.178252,2.99516 -1.318184,4.2545 -1.13969,1.25936 -2.072194,2.95009 -2.072194,3.75724 0,2.16333 5.478412,5.37619 12.42509,7.28676 5.912971,1.62627 5.965008,1.68157 1.634053,1.73756 -2.460333,0.0339 -6.527374,-1.02809 -9.037857,-2.35531 z m 33.321805,0.70381 c 23.225548,-5.15528 31.736481,-11.37116 56.130419,-40.99426 5.20983,-6.32663 14.9857,-16.929128 21.72413,-23.56109 7.9505,-7.824789 10.68125,-11.12532 7.77837,-9.401122 -10.14866,6.027797 -14.8817,8.039182 -18.91712,8.039182 -7.1571,0 -9.20118,-1.870039 -9.20118,-8.417851 0,-5.437548 -0.27099,-5.885008 -4.68367,-7.728709 -12.825305,-5.35876 -42.774368,8.104439 -45.921464,20.643335 -2.016359,8.033905 2.532019,12.118535 13.494353,12.118535 10.756691,0 24.560829,-8.354029 25.993735,-15.731025 l 0.544123,-2.801466 0.173896,2.831271 c 0.242024,3.937497 -6.081274,10.708 -13.427013,14.37663 -11.937577,5.9619 -25.699652,4.41755 -28.599428,-3.20943 -3.231682,-8.499966 4.26071,-18.666066 18.974513,-25.745833 8.91298,-4.288581 10.815235,-4.725029 20.890802,-4.79309 13.970173,-0.09424 18.087213,2.253101 18.707853,10.666891 0.6803,9.221668 4.1854,8.585913 25.32113,-4.592719 7.11507,-4.436389 13.33161,-8.066171 13.81442,-8.066171 0.48307,0 -5.62613,6.5041 -13.57555,14.453618 -7.94941,7.949472 -17.28634,18.733454 -20.74879,23.964394 -14.63757,22.11412 -25.329871,32.59885 -41.625061,40.81675 -8.968059,4.52272 -23.93498,8.99282 -29.542659,8.82342 -3.672864,-0.11105 -3.261109,-0.36953 2.693996,-1.69126 z m 59.358189,0.42511 c -0.47485,-0.76846 -0.83314,-3.59752 -0.79599,-6.28677 0.0735,-5.32961 3.0014,-10.39942 12.38239,-21.44087 3.99063,-4.69701 5.74158,-7.91266 5.74158,-10.54438 0,-2.38441 -0.65924,-3.7864 -1.78038,-3.7864 -0.97925,0 -2.12589,-0.90033 -2.54819,-2.00075 -0.6075,-1.58318 -0.16907,-1.81679 2.09996,-1.1193 3.90967,1.20167 3.80199,1.00945 4.47166,7.97898 0.68012,7.07808 -2.23059,14.10756 -8.04333,19.42505 -4.65435,4.25784 -10.81504,12.73976 -10.81504,14.89002 0,3.1203 6.00094,1.81467 12.85294,-2.79636 8.4638,-5.69575 10.39826,-6.67738 6.31861,-3.20637 -4.22428,3.59408 -15.57457,10.25716 -17.49851,10.27233 -0.8372,0.005 -1.91075,-0.61677 -2.3857,-1.38518 z m 55.24177,-0.43428 c -0.38645,-1.00729 -0.59185,-14.09193 -0.456,-29.07698 l 0.24635,-27.245397 5.91341,-0.383072 5.91342,-0.383061 0.53576,23.79136 c 0.59731,26.52321 0.57543,26.46269 9.36517,25.90436 5.04859,-0.32075 5.11739,-0.2652 5.5091,4.44979 l 0.39659,4.77449 h -13.3605 c -10.41897,0 -13.51521,-0.40337 -14.0633,-1.83139 z m 32.38191,-14.14489 v -15.97633 h -4.47335 c -3.52897,0 -4.4734,-0.50818 -4.4734,-2.40715 0,-2.95229 1.72293,-3.34434 14.69819,-3.34434 9.37276,0 10.22484,0.21304 10.22484,2.55622 0,1.9497 -0.98559,2.65125 -4.15386,2.95673 l -4.15381,0.40046 v 15.89537 15.89531 h -3.8343 -3.83431 z m 43.44886,9.99025 c -0.004,-3.38573 -0.37776,-11.76362 -0.83184,-18.6175 l -0.82516,-12.46147 h 10.21948 c 8.27733,0 10.62153,0.44442 12.33476,2.33729 2.94345,3.25247 2.74862,11.20456 -0.33911,13.84851 -2.36846,2.02796 -2.37309,2.17318 -0.13285,4.14132 1.53735,1.35061 2.55387,4.54783 3.00896,9.46353 l 0.68725,7.42375 -4.06918,-0.39418 c -3.94198,-0.3821 -4.08917,-0.61397 -4.70827,-7.42375 -0.62575,-6.88358 -0.72753,-7.0381 -4.89926,-7.43804 l -4.26022,-0.40867 0.42606,7.43804 c 0.41736,7.28462 0.3536,7.44631 -3.08885,7.84242 -3.40304,0.39176 -3.51501,0.20869 -3.52142,-5.75149 z m 14.74862,-18.43596 c 1.39195,-4.38564 -0.53054,-7.53062 -4.60329,-7.53062 -3.50752,0 -3.74818,0.32123 -3.74818,5.00588 0,2.86603 0.68295,5.23574 1.59763,5.54351 2.75574,0.92719 5.95534,-0.50292 6.75384,-3.01877 z m 13.66594,1.82844 0.34926,-22.77917 3.94314,-0.38499 c 2.16876,-0.21159 4.5091,0.36374 5.20079,1.27813 0.6917,0.91458 3.40424,8.56465 6.02786,17.00013 7.04907,22.66428 7.01223,22.65983 7.10851,0.86487 0.0793,-17.93779 0.27438,-19.54866 2.32318,-19.15516 2.01437,0.38692 2.2714,2.69085 2.58603,23.17852 l 0.34926,22.74893 -4.71764,-0.39853 -4.71769,-0.39853 -4.88159,-14.05917 c -2.68491,-7.73257 -4.91491,-14.92191 -4.9556,-15.97634 -0.0386,-1.05443 -0.83008,-3.64258 -1.75428,-5.75144 -1.4747,-3.36506 -1.66318,-1.40976 -1.54,15.97631 0.1396,19.67964 0.12124,19.81336 -2.76525,20.22298 l -2.90557,0.41255 z m 32.74927,8.53446 c -0.10533,-7.02961 -0.24926,-13.49214 -0.3193,-14.36123 -0.0705,-0.86907 0.87869,-1.77399 2.10886,-2.01089 2.02615,-0.39031 2.23667,0.96163 2.23667,14.36122 0,12.29635 -0.32365,14.79194 -1.91712,14.79194 -1.56359,0 -1.95255,-2.3574 -2.10891,-12.78104 z m 9.13848,-1.91719 c 0,-11.96536 0.34346,-14.69824 1.84709,-14.69824 1.29688,0 1.96321,1.80863 2.23668,6.07099 l 0.38983,6.07102 h 7.66862 7.66862 l 0.38934,-6.07102 c 0.27342,-4.26236 0.93985,-6.07099 2.23667,-6.07099 1.50368,0 1.84715,2.73288 1.84715,14.69824 0,11.97724 -0.3425,14.69823 -1.85039,14.69823 -1.33102,0 -1.95876,-1.88316 -2.23667,-6.71003 -0.36568,-6.3536 -0.58377,-6.73261 -4.10294,-7.13398 -2.04417,-0.23333 -5.63883,-0.0632 -7.98816,0.37726 -4.16071,0.78059 -4.27148,0.96561 -4.27148,7.13399 0,4.77691 -0.47098,6.33256 -1.91718,6.33256 -1.59299,0 -1.91713,-2.48515 -1.91713,-14.69816 z m 53.29402,-20.62295 c -2.507,-2.50701 -0.56054,-8.44162 5.01299,-15.28444 5.91944,-7.267532 5.70191,-7.643834 -1.43147,-2.47614 -4.87487,3.53158 -7.02952,4.80219 -7.02952,4.14536 0,-0.28549 5.32007,-4.70169 11.82242,-9.813558 14.31112,-11.250814 22.42236,-19.662432 19.54298,-20.266701 -3.43859,-0.721646 -2.12055,-2.782003 1.7797,-2.782003 2.89267,0 4.82497,-1.313448 8.4616,-5.751485 2.59212,-3.16329 5.79391,-5.751439 7.11513,-5.751439 3.23285,0 3.02407,1.621107 -0.793,6.157408 -3.72035,4.421374 -3.92826,5.345516 -1.20268,5.345516 1.09593,0 1.63715,0.575142 1.20268,1.278087 -0.43428,0.702957 -2.13315,1.278086 -3.77489,1.278086 -2.92943,0 -12.23708,9.336584 -31.84431,31.943189 -9.353,10.7838 -9.61178,13.17499 -0.7839,7.2443 8.99085,-6.04022 11.48012,-7.51259 11.48012,-6.79047 0,0.82204 -14.31981,10.7483 -16.97622,11.76765 -0.92941,0.35651 -2.09113,0.24733 -2.58163,-0.24346 z m -246.28758,-8.77349 c 0,-1.05443 0.57512,-1.91712 1.27808,-1.91712 0.70294,0 1.27813,0.86269 1.27813,1.91712 0,1.05448 -0.57519,1.91718 -1.27813,1.91718 -0.70296,0 -1.27808,-0.8627 -1.27808,-1.91718 z m 13.3884,-2.31184 c 1.38851,-0.83733 9.4406,-8.13661 17.89347,-16.220606 13.83197,-13.228324 27.75164,-23.191101 29.69158,-21.251219 0.40142,0.401417 -0.87343,1.339673 -2.83316,2.084752 -1.95974,0.745066 -9.66019,7.556883 -17.11216,15.137338 -7.91479,8.051349 -16.53678,15.475055 -20.73405,17.852595 -6.64506,3.76401 -12.59983,5.8311 -6.90568,2.39714 z m 81.83027,-0.47001 c -4.22278,-1.11883 -7.02959,-4.42491 -7.02959,-8.28008 0,-3.168988 0.48114,-3.636212 3.74544,-3.636212 2.91103,0 3.83638,0.640639 4.15386,2.875725 0.51097,3.598137 6.6678,4.809077 7.9158,1.556957 1.17977,-3.074551 -0.5151,-5.297697 -7.54911,-9.901955 -7.3712,-4.82502 -9.41721,-9.115341 -7.06045,-14.805147 1.94298,-4.690732 8.02608,-7.107685 14.72582,-5.850802 4.74262,0.889753 7.07451,3.575388 7.07451,8.147761 0,2.081526 -0.8114,2.640232 -3.83432,2.640232 -2.40472,0 -3.8343,-0.656432 -3.8343,-1.760669 0,-3.194295 -3.15136,-4.771978 -5.74444,-2.875864 -3.37685,2.469175 -1.74111,5.264465 5.79357,9.900609 3.59301,2.210829 7.07763,5.452667 7.74353,7.204107 1.40407,3.693015 0.30289,11.148348 -1.91877,12.992298 -1.90408,1.58025 -10.75915,2.69985 -14.18155,1.79304 z M 236.0375,93.324412 c 0,-12.212983 0.32414,-14.698191 1.91718,-14.698191 1.59299,0 1.91712,2.485208 1.91712,14.698191 0,12.212968 -0.32413,14.698188 -1.91712,14.698188 -1.593,0 -1.91718,-2.48522 -1.91718,-14.698188 z m 9.49841,13.014138 c -0.35553,-0.92618 -0.48113,-7.684174 -0.27969,-15.017688 0.46181,-16.793282 1.6882,-17.099066 11.23071,-2.800655 3.86624,5.793126 7.46091,10.538101 7.98813,10.544334 0.52721,0.0046 0.95859,-4.925355 0.95859,-10.95904 0,-8.20825 0.40238,-10.836302 1.59762,-10.437825 2.4814,0.827103 2.25976,29.715874 -0.228,29.715874 -1.0041,0 -5.03013,-4.71986 -8.94675,-10.488587 -3.91663,-5.768685 -7.55244,-10.51366 -8.07966,-10.544334 -0.52721,-0.02893 -0.95859,4.832947 -0.95859,10.808088 0,6.610903 -0.51606,10.863883 -1.31823,10.863883 -0.72503,0 -1.60898,-0.75783 -1.96441,-1.68405 z m 29.00347,-8.221243 c 0.0874,-5.447932 0.51865,-13.931326 0.95857,-18.852049 l 0.79982,-8.946706 8.94671,0.449737 c 12.88502,0.647546 13.4201,1.367543 13.4201,18.058181 0,12.60339 -0.22463,13.84915 -2.95813,16.41727 -2.47057,2.32096 -4.47171,2.779 -12.14197,2.779 h -9.18385 z m 14.96677,3.130823 c 1.78631,-2.152424 2.23107,-22.391826 0.52944,-24.093516 -0.71557,-0.715561 -2.66144,-1.108537 -4.32414,-0.873284 -2.92635,0.413985 -3.03485,0.847391 -3.38738,13.52832 -0.36423,13.09582 -0.36327,13.10055 2.7192,13.10055 1.69594,0 3.70422,-0.74792 4.46288,-1.66207 z m 15.54895,-7.923718 c 0,-8.946706 0.50012,-14.698191 1.27809,-14.698191 0.77797,0 1.27808,5.751485 1.27808,14.698191 0,8.946698 -0.50011,14.698188 -1.27808,14.698188 -0.77797,0 -1.27809,-5.75149 -1.27809,-14.698188 z m 8.94671,0.182107 c 0,-8.440838 0.54567,-15.066476 1.27808,-15.519153 0.70296,-0.434274 1.35002,-0.180665 1.43788,0.56359 0.088,0.744449 0.30338,1.92872 0.47921,2.631677 0.17584,0.702946 0.39128,3.91459 0.47919,7.136962 l 0.1599,5.858819 4.97679,-3.941694 c 6.32967,-5.013178 9.41895,-5.127945 4.67238,-0.173415 l -3.61006,3.768131 4.00999,6.249084 c 4.31593,6.72573 4.73039,7.94242 2.70558,7.94242 -0.71744,0 -3.11918,-2.57462 -5.33721,-5.7214 -4.49649,-6.379176 -6.96717,-6.080885 -7.66311,0.92526 -0.21641,2.17814 -1.11234,4.19622 -1.99104,4.4847 -1.21601,0.39902 -1.59763,-2.99377 -1.59763,-14.204786 z m 19.17155,14.190971 c 0,-0.2821 1.93746,-5.44783 4.30544,-11.479636 2.36796,-6.031811 4.68888,-12.494797 5.15756,-14.362171 0.64029,-2.551049 1.53281,-3.295166 3.58969,-2.992723 2.2129,0.325592 3.67016,2.974173 7.60461,13.822599 5.5343,15.259701 5.5499,15.337231 3.08672,15.337231 -0.99994,0 -2.48241,-2.01301 -3.29439,-4.4734 -1.41325,-4.282202 -1.73724,-4.473355 -7.58282,-4.473355 -5.79033,0 -6.16809,0.214484 -7.29532,4.145065 -0.65382,2.27981 -2.17488,4.33495 -3.38013,4.56707 -1.20525,0.23187 -2.19136,0.19129 -2.19136,-0.0908 z M 350.0419,95.840636 c 0.76444,-0.764497 -3.06319,-12.10183 -4.0858,-12.10183 -1.12905,0 -3.93487,10.308989 -3.15101,11.577263 0.7913,1.280408 6.09639,1.664933 7.23681,0.524567 z M 200.88828,76.076647 c 0.73942,-3.366565 0.40529,-3.995551 -2.77418,-5.219437 -1.98819,-0.765323 -6.49067,-1.076218 -10.00543,-0.690835 -4.2966,0.470986 -5.55295,0.326072 -3.83431,-0.442006 8.02197,-3.58678 21.08867,0.72957 21.08867,6.966304 0,2.402898 -0.67073,3.214046 -2.65776,3.214046 -2.28711,0 -2.54047,-0.533775 -1.81699,-3.827877 z"
         style="fill:#000000;stroke-width:1.27810299"
         sodipodi:nodetypes="ccccccccccsccscsscccsscccccccsscsccccccssccccccsssccccccscccccccccccscsssssscccsccscscssscccccccccssscccsccsscsccccccsccccccccccccsssccccsscsccccccssccccccccscccssscccccssssccccccscccccscsccscccccccscccccccccccsscsccsccsccccccscccccccccscccccccscccccsssccsccsccscssssscsssssscsssscsssssscsscccccccccccccsssccccscsccsccccccssccccccssssssccsscscccccccccccccscsccccccssccsscccccccsscccsccssccscccssccccsccsccccccssccccscccccccccccccsccccssssccccccccccscccccccccccccssscsccccsccccccccccccccccsscccscccccssscccsscccccsccscscscsccscccsssssccccccccsscccccssscccccsssssccccscsccssccccccscsccscccsssssssccccccccccscccccccccsscscccccscccsccsscc" />
    </g>
  </g>
  <g
     inkscape:groupmode="layer"
     id="layer2"
     inkscape:label="rtv"
     style="display:inline">
    <g
       aria-label="RTV SLOVENIJA"
       style="font-style:normal;font-weight:normal;font-size:10.51509285px;line-height:1.25;font-family:sans-serif;letter-spacing:0px;word-spacing:0px;fill:#000000;fill-opacity:1;stroke:none;stroke-width:0.26287735"
       id="text4487">
      <path
         d="m 258.07939,165.20818 q 0.58043,-0.10094 1.23657,-0.17665 0.68138,-0.10095 1.33752,-0.15142 0.68138,-0.0505 1.31229,-0.0757 0.6309,-0.0252 1.16086,-0.0252 1.23658,0 2.42268,0.22713 1.21134,0.22713 2.14508,0.78232 0.95898,0.5552 1.51417,1.53941 0.58044,0.95898 0.58044,2.42268 0,2.17032 -1.00945,3.53307 -1.00945,1.36276 -2.70028,1.89272 l 1.23658,0.78232 4.03779,6.73807 h -3.98732 l -4.01256,-6.91472 -1.81701,-0.32807 v 7.24279 h -3.45736 z m 5.29961,2.6498 q -0.52996,0 -1.05992,0.0252 -0.50473,0.0252 -0.78233,0.10094 v 5.12296 h 1.4637 q 1.43847,0 2.2965,-0.65614 0.85803,-0.65615 0.85803,-2.17032 0,-1.13563 -0.70661,-1.76653 -0.70662,-0.65615 -2.06937,-0.65615 z"
         style="font-style:normal;font-variant:normal;font-weight:bold;font-stretch:normal;font-size:25.23622513px;font-family:'PT Sans';-inkscape-font-specification:'PT Sans Bold';letter-spacing:1.45785391px;stroke-width:0.26287735"
         id="path4498" />
      <path
         d="m 286.02858,168.11035 h -5.14819 v 14.58653 h -3.45737 v -14.58653 h -5.17342 v -3.07882 h 13.77898 z"
         style="font-style:normal;font-variant:normal;font-weight:bold;font-stretch:normal;font-size:25.23622513px;font-family:'PT Sans';-inkscape-font-specification:'PT Sans Bold';letter-spacing:1.45785391px;stroke-width:0.26287735"
         id="path4500" />
      <path
         d="m 294.25368,175.40362 0.45425,3.00311 h 0.12619 l 0.50472,-3.02835 3.38165,-10.34685 h 3.63402 l -6.56142,17.79154 h -2.47315 l -6.61189,-17.79154 h 4.01256 z"
         style="font-style:normal;font-variant:normal;font-weight:bold;font-stretch:normal;font-size:25.23622513px;font-family:'PT Sans';-inkscape-font-specification:'PT Sans Bold';letter-spacing:1.45785391px;stroke-width:0.26287735"
         id="path4502" />
      <path
         d="m 319.83586,177.95247 q 0,-0.80756 -0.60567,-1.31228 -0.58043,-0.50472 -1.48894,-0.9085 -0.88327,-0.42902 -1.94319,-0.85804 -1.03468,-0.45425 -1.94319,-1.08515 -0.88327,-0.65615 -1.48894,-1.61512 -0.58043,-0.95898 -0.58043,-2.44792 0,-1.28704 0.42902,-2.22078 0.42901,-0.95898 1.21134,-1.58989 0.80756,-0.6309 1.89271,-0.93374 1.08516,-0.30283 2.42268,-0.30283 1.53941,0 2.90217,0.2776 1.36275,0.25236 2.24602,0.75708 l -1.08516,2.90217 q -0.55519,-0.35331 -1.66559,-0.63091 -1.11039,-0.30283 -2.39744,-0.30283 -1.21134,0 -1.86748,0.47949 -0.63091,0.47949 -0.63091,1.28705 0,0.75708 0.58044,1.26181 0.60567,0.50472 1.48894,0.93374 0.9085,0.42901 1.94318,0.88327 1.05993,0.45425 1.94319,1.11039 0.90851,0.6309 1.48894,1.58988 0.60567,0.93374 0.60567,2.34697 0,1.41323 -0.47949,2.44791 -0.45425,1.00945 -1.31228,1.69083 -0.8328,0.68138 -2.04414,1.00945 -1.1861,0.32807 -2.62456,0.32807 -1.89272,0 -3.33118,-0.35331 -1.43847,-0.3533 -2.11985,-0.70661 l 1.1104,-2.95264 q 0.27759,0.15142 0.70661,0.32807 0.45425,0.17666 1.00945,0.32807 0.5552,0.15142 1.16087,0.25237 0.6309,0.10094 1.28704,0.10094 1.53941,0 2.34697,-0.50472 0.8328,-0.52996 0.8328,-1.58989 z"
         style="font-style:normal;font-variant:normal;font-weight:bold;font-stretch:normal;font-size:25.23622513px;font-family:'PT Sans';-inkscape-font-specification:'PT Sans Bold';letter-spacing:1.45785391px;stroke-width:0.26287735"
         id="path4504" />
      <path
         d="m 338.20948,182.69688 h -11.17965 v -17.66535 h 3.45736 v 14.58653 h 7.72229 z"
         style="font-style:normal;font-variant:normal;font-weight:bold;font-stretch:normal;font-size:25.23622513px;font-family:'PT Sans';-inkscape-font-specification:'PT Sans Bold';letter-spacing:1.45785391px;stroke-width:0.26287735"
         id="path4506" />
      <path
         d="m 338.52972,173.86421 q 0,-4.41634 1.94319,-6.78855 1.94319,-2.39744 5.55197,-2.39744 1.89272,0 3.30595,0.65614 1.41323,0.65614 2.34697,1.86748 0.93374,1.21134 1.38799,2.90217 0.45425,1.69082 0.45425,3.7602 0,4.41633 -1.96842,6.81378 -1.94319,2.3722 -5.52674,2.3722 -1.91795,0 -3.33118,-0.65614 -1.41323,-0.65614 -2.34697,-1.86748 -0.9085,-1.21134 -1.36275,-2.90217 -0.45426,-1.69082 -0.45426,-3.76019 z m 3.63402,0 q 0,1.33752 0.22713,2.47315 0.22712,1.11039 0.68137,1.91795 0.47949,0.80756 1.21134,1.26181 0.73185,0.45425 1.7413,0.45425 1.84225,0 2.8517,-1.43846 1.00945,-1.43847 1.00945,-4.6687 0,-1.28705 -0.22713,-2.39745 -0.20189,-1.11039 -0.65614,-1.94319 -0.45425,-0.83279 -1.18611,-1.28704 -0.73185,-0.47949 -1.79177,-0.47949 -1.84224,0 -2.85169,1.48894 -1.00945,1.4637 -1.00945,4.61823 z"
         style="font-style:normal;font-variant:normal;font-weight:bold;font-stretch:normal;font-size:25.23622513px;font-family:'PT Sans';-inkscape-font-specification:'PT Sans Bold';letter-spacing:1.45785391px;stroke-width:0.26287735"
         id="path4508" />
      <path
         d="m 362.31691,175.40362 0.45425,3.00311 h 0.12618 l 0.50473,-3.02835 3.38165,-10.34685 h 3.63402 l -6.56142,17.79154 h -2.47315 l -6.61189,-17.79154 h 4.01256 z"
         style="font-style:normal;font-variant:normal;font-weight:bold;font-stretch:normal;font-size:25.23622513px;font-family:'PT Sans';-inkscape-font-specification:'PT Sans Bold';letter-spacing:1.45785391px;stroke-width:0.26287735"
         id="path4510" />
      <path
         d="m 373.15159,165.03153 h 10.47304 v 3.07882 h -7.01567 v 4.1135 h 6.38476 v 3.07882 h -6.38476 v 4.31539 h 7.14185 v 3.07882 h -10.59922 z"
         style="font-style:normal;font-variant:normal;font-weight:bold;font-stretch:normal;font-size:25.23622513px;font-family:'PT Sans';-inkscape-font-specification:'PT Sans Bold';letter-spacing:1.45785391px;stroke-width:0.26287735"
         id="path4512" />
      <path
         d="m 392.16085,173.48566 -1.388,-2.77598 h -0.12618 l 0.40378,2.77598 v 9.21122 h -3.28071 v -17.79153 h 2.52363 l 6.6876,9.41311 1.33752,2.70027 h 0.12618 l -0.40378,-2.70027 v -9.28693 h 3.28071 v 17.79154 h -2.52363 z"
         style="font-style:normal;font-variant:normal;font-weight:bold;font-stretch:normal;font-size:25.23622513px;font-family:'PT Sans';-inkscape-font-specification:'PT Sans Bold';letter-spacing:1.45785391px;stroke-width:0.26287735"
         id="path4514" />
      <path
         d="m 406.14218,165.03153 h 3.45737 v 17.66535 h -3.45737 z"
         style="font-style:normal;font-variant:normal;font-weight:bold;font-stretch:normal;font-size:25.23622513px;font-family:'PT Sans';-inkscape-font-specification:'PT Sans Bold';letter-spacing:1.45785391px;stroke-width:0.26287735"
         id="path4516" />
      <path
         d="m 416.23476,165.03153 h 3.45737 v 12.92094 q 0,1.00945 -0.22713,1.91796 -0.22713,0.9085 -0.75709,1.61512 -0.50472,0.68137 -1.31228,1.11039 -0.80756,0.40378 -1.96843,0.40378 -0.73185,0 -1.58988,-0.15142 -0.85803,-0.15142 -1.48894,-0.42901 l 0.75709,-2.82646 q 0.65614,0.32807 1.48894,0.32807 1.05992,0 1.33752,-0.78232 0.30283,-0.78233 0.30283,-2.06937 z"
         style="font-style:normal;font-variant:normal;font-weight:bold;font-stretch:normal;font-size:25.23622513px;font-family:'PT Sans';-inkscape-font-specification:'PT Sans Bold';letter-spacing:1.45785391px;stroke-width:0.26287735"
         id="path4518" />
      <path
         d="m 433.03586,178.78527 h -5.42579 l -1.33752,3.91161 h -3.45736 l 6.35952,-17.79153 h 2.54886 l 6.35953,17.79153 h -3.63401 z m -4.54252,-2.77599 h 3.78543 l -1.31228,-3.93685 -0.52996,-2.77598 h -0.12619 l -0.52996,2.80122 z"
         style="font-style:normal;font-variant:normal;font-weight:bold;font-stretch:normal;font-size:25.23622513px;font-family:'PT Sans';-inkscape-font-specification:'PT Sans Bold';letter-spacing:1.45785391px;stroke-width:0.26287735"
         id="path4520" />
    </g>
  </g>
</svg>
